G04*
G04 #@! TF.GenerationSoftware,Altium Limited,Altium Designer,25.8.1 (18)*
G04*
G04 Layer_Color=255*
%FSLAX44Y44*%
%MOMM*%
G71*
G04*
G04 #@! TF.SameCoordinates,5DE29F06-CBE8-4A30-823B-2EEFCEBFC4E8*
G04*
G04*
G04 #@! TF.FilePolarity,Positive*
G04*
G01*
G75*
%ADD13C,1.1000*%
%ADD23C,1.0000*%
%ADD24C,0.3000*%
%ADD25C,5.0000*%
%ADD26O,2.7000X0.8000*%
%ADD27C,0.9000*%
D13*
X595200Y318300D02*
D03*
X641200Y696300D02*
D03*
Y586300D02*
D03*
Y366300D02*
D03*
X595200Y648300D02*
D03*
X641200Y476300D02*
D03*
X595200Y538300D02*
D03*
Y428300D02*
D03*
D23*
X673500Y156350D02*
D03*
Y143650D02*
D03*
X610000D02*
D03*
X622700D02*
D03*
X635400D02*
D03*
X648100D02*
D03*
X660800D02*
D03*
X622700Y156350D02*
D03*
X610000D02*
D03*
X597300D02*
D03*
X584600D02*
D03*
X559200D02*
D03*
X571900D02*
D03*
X546500D02*
D03*
Y143650D02*
D03*
X559200D02*
D03*
X571900D02*
D03*
X584600D02*
D03*
X597300D02*
D03*
X660800Y156350D02*
D03*
X648100D02*
D03*
X635400D02*
D03*
D24*
X75230Y260130D02*
D03*
Y299130D02*
D03*
X62230D02*
D03*
X75230Y286130D02*
D03*
X62230D02*
D03*
Y260130D02*
D03*
X75230Y273130D02*
D03*
X62230D02*
D03*
D25*
X790000Y770000D02*
D03*
Y445000D02*
D03*
X455360Y770000D02*
D03*
X790000Y30000D02*
D03*
X30000Y770000D02*
D03*
Y445000D02*
D03*
X430000Y30000D02*
D03*
X30000D02*
D03*
D26*
X207300Y352700D02*
D03*
Y327300D02*
D03*
X189300Y340000D02*
D03*
X114000Y677700D02*
D03*
Y652300D02*
D03*
X96000Y665000D02*
D03*
X393900Y677700D02*
D03*
Y652300D02*
D03*
X375900Y665000D02*
D03*
X282600D02*
D03*
X300600Y652300D02*
D03*
Y677700D02*
D03*
X207300D02*
D03*
Y652300D02*
D03*
X189300Y665000D02*
D03*
X393900Y612700D02*
D03*
Y587300D02*
D03*
X375900Y600000D02*
D03*
X96000D02*
D03*
X114000Y587300D02*
D03*
Y612700D02*
D03*
X300600D02*
D03*
Y587300D02*
D03*
X282600Y600000D02*
D03*
X189300D02*
D03*
X207300Y587300D02*
D03*
Y612700D02*
D03*
X393900Y547700D02*
D03*
Y522300D02*
D03*
X375900Y535000D02*
D03*
X282600D02*
D03*
X300600Y522300D02*
D03*
Y547700D02*
D03*
X207300D02*
D03*
Y522300D02*
D03*
X189300Y535000D02*
D03*
X96000D02*
D03*
X114000Y522300D02*
D03*
Y547700D02*
D03*
X393900Y482700D02*
D03*
Y457300D02*
D03*
X375900Y470000D02*
D03*
X96000D02*
D03*
X114000Y457300D02*
D03*
Y482700D02*
D03*
X300600D02*
D03*
Y457300D02*
D03*
X282600Y470000D02*
D03*
X189300D02*
D03*
X207300Y457300D02*
D03*
Y482700D02*
D03*
X393900Y417700D02*
D03*
Y392300D02*
D03*
X375900Y405000D02*
D03*
X282600D02*
D03*
X300600Y392300D02*
D03*
Y417700D02*
D03*
X207300D02*
D03*
Y392300D02*
D03*
X189300Y405000D02*
D03*
X96000D02*
D03*
X114000Y392300D02*
D03*
Y417700D02*
D03*
X393900Y352700D02*
D03*
Y327300D02*
D03*
X375900Y340000D02*
D03*
X96000D02*
D03*
X114000Y327300D02*
D03*
Y352700D02*
D03*
X300600D02*
D03*
Y327300D02*
D03*
X282600Y340000D02*
D03*
D27*
X585200Y328300D02*
D03*
X605200D02*
D03*
X651200Y706300D02*
D03*
X631200D02*
D03*
X651200Y596300D02*
D03*
X631200D02*
D03*
Y376300D02*
D03*
X651200D02*
D03*
X605200Y658300D02*
D03*
X585200D02*
D03*
X651200Y486300D02*
D03*
X631200D02*
D03*
X605200Y548300D02*
D03*
X585200D02*
D03*
X605200Y438300D02*
D03*
X585200D02*
D03*
M02*
