G04*
G04 #@! TF.GenerationSoftware,Altium Limited,Altium Designer,25.8.1 (18)*
G04*
G04 Layer_Color=2752767*
%FSLAX44Y44*%
%MOMM*%
G71*
G04*
G04 #@! TF.SameCoordinates,5DE29F06-CBE8-4A30-823B-2EEFCEBFC4E8*
G04*
G04*
G04 #@! TF.FilePolarity,Positive*
G04*
G01*
G75*
%ADD93C,0.1270*%
%ADD97C,0.1693*%
D93*
X673500Y151270D02*
X668420Y161430D01*
X678580D01*
X673500Y151270D01*
Y138570D02*
X668420Y148730D01*
X678580D01*
X673500Y138570D01*
X70150Y255050D02*
X72690Y260130D01*
X70150Y265210D01*
X75230Y262670D01*
X80310Y265210D01*
X77770Y260130D01*
X80310Y255050D01*
X75230Y257590D01*
X70150Y255050D01*
Y294050D02*
X72690Y299130D01*
X70150Y304210D01*
X75230Y301670D01*
X80310Y304210D01*
X77770Y299130D01*
X80310Y294050D01*
X75230Y296590D01*
X70150Y294050D01*
X57150D02*
X59690Y299130D01*
X57150Y304210D01*
X62230Y301670D01*
X67310Y304210D01*
X64770Y299130D01*
X67310Y294050D01*
X62230Y296590D01*
X57150Y294050D01*
X70150Y281050D02*
X72690Y286130D01*
X70150Y291210D01*
X75230Y288670D01*
X80310Y291210D01*
X77770Y286130D01*
X80310Y281050D01*
X75230Y283590D01*
X70150Y281050D01*
X57150D02*
X59690Y286130D01*
X57150Y291210D01*
X62230Y288670D01*
X67310Y291210D01*
X64770Y286130D01*
X67310Y281050D01*
X62230Y283590D01*
X57150Y281050D01*
Y255050D02*
X59690Y260130D01*
X57150Y265210D01*
X62230Y262670D01*
X67310Y265210D01*
X64770Y260130D01*
X67310Y255050D01*
X62230Y257590D01*
X57150Y255050D01*
X70150Y268050D02*
X72690Y273130D01*
X70150Y278210D01*
X75230Y275670D01*
X80310Y278210D01*
X77770Y273130D01*
X80310Y268050D01*
X75230Y270590D01*
X70150Y268050D01*
X57150D02*
X59690Y273130D01*
X57150Y278210D01*
X62230Y275670D01*
X67310Y278210D01*
X64770Y273130D01*
X67310Y268050D01*
X62230Y270590D01*
X57150Y268050D01*
X787460Y767460D02*
Y764920D01*
X792540D01*
Y767460D01*
X795080D01*
Y772540D01*
X792540D01*
Y775080D01*
X787460D01*
Y772540D01*
X784920D01*
Y767460D01*
X787460D01*
X202220Y347620D02*
Y357780D01*
X212380D01*
Y347620D01*
X202220D01*
Y322220D02*
Y332380D01*
X212380D01*
Y322220D01*
X202220D01*
X184220Y334920D02*
Y345080D01*
X194380D01*
Y334920D01*
X184220D01*
X595200Y313220D02*
X590120Y323380D01*
X600280D01*
X595200Y313220D01*
X610000Y138570D02*
X604920Y148730D01*
X615080D01*
X610000Y138570D01*
X622700D02*
X617620Y148730D01*
X627780D01*
X622700Y138570D01*
X635400D02*
X630320Y148730D01*
X640480D01*
X635400Y138570D01*
X648100D02*
X643020Y148730D01*
X653180D01*
X648100Y138570D01*
X660800D02*
X655720Y148730D01*
X665880D01*
X660800Y138570D01*
X622700Y151270D02*
X617620Y161430D01*
X627780D01*
X622700Y151270D01*
X610000D02*
X604920Y161430D01*
X615080D01*
X610000Y151270D01*
X597300D02*
X592220Y161430D01*
X602380D01*
X597300Y151270D01*
X584600D02*
X579520Y161430D01*
X589680D01*
X584600Y151270D01*
X559200D02*
X554120Y161430D01*
X564280D01*
X559200Y151270D01*
X571900D02*
X566820Y161430D01*
X576980D01*
X571900Y151270D01*
X546500D02*
X541420Y161430D01*
X551580D01*
X546500Y151270D01*
Y138570D02*
X541420Y148730D01*
X551580D01*
X546500Y138570D01*
X559200D02*
X554120Y148730D01*
X564280D01*
X559200Y138570D01*
X571900D02*
X566820Y148730D01*
X576980D01*
X571900Y138570D01*
X584600D02*
X579520Y148730D01*
X589680D01*
X584600Y138570D01*
X597300D02*
X592220Y148730D01*
X602380D01*
X597300Y138570D01*
X660800Y151270D02*
X655720Y161430D01*
X665880D01*
X660800Y151270D01*
X648100D02*
X643020Y161430D01*
X653180D01*
X648100Y151270D01*
X635400D02*
X630320Y161430D01*
X640480D01*
X635400Y151270D01*
X108920Y672620D02*
Y682780D01*
X119080D01*
Y672620D01*
X108920D01*
Y647220D02*
Y657380D01*
X119080D01*
Y647220D01*
X108920D01*
X90920Y659920D02*
Y670080D01*
X101080D01*
Y659920D01*
X90920D01*
X388820Y672620D02*
Y682780D01*
X398980D01*
Y672620D01*
X388820D01*
Y647220D02*
Y657380D01*
X398980D01*
Y647220D01*
X388820D01*
X370820Y659920D02*
Y670080D01*
X380980D01*
Y659920D01*
X370820D01*
X277520D02*
Y670080D01*
X287680D01*
Y659920D01*
X277520D01*
X295520Y647220D02*
Y657380D01*
X305680D01*
Y647220D01*
X295520D01*
Y672620D02*
Y682780D01*
X305680D01*
Y672620D01*
X295520D01*
X202220D02*
Y682780D01*
X212380D01*
Y672620D01*
X202220D01*
Y647220D02*
Y657380D01*
X212380D01*
Y647220D01*
X202220D01*
X184220Y659920D02*
Y670080D01*
X194380D01*
Y659920D01*
X184220D01*
X388820Y607620D02*
Y617780D01*
X398980D01*
Y607620D01*
X388820D01*
Y582220D02*
Y592380D01*
X398980D01*
Y582220D01*
X388820D01*
X370820Y594920D02*
Y605080D01*
X380980D01*
Y594920D01*
X370820D01*
X90920D02*
Y605080D01*
X101080D01*
Y594920D01*
X90920D01*
X108920Y582220D02*
Y592380D01*
X119080D01*
Y582220D01*
X108920D01*
Y607620D02*
Y617780D01*
X119080D01*
Y607620D01*
X108920D01*
X295520D02*
Y617780D01*
X305680D01*
Y607620D01*
X295520D01*
Y582220D02*
Y592380D01*
X305680D01*
Y582220D01*
X295520D01*
X277520Y594920D02*
Y605080D01*
X287680D01*
Y594920D01*
X277520D01*
X184220D02*
Y605080D01*
X194380D01*
Y594920D01*
X184220D01*
X202220Y582220D02*
Y592380D01*
X212380D01*
Y582220D01*
X202220D01*
Y607620D02*
Y617780D01*
X212380D01*
Y607620D01*
X202220D01*
X388820Y542620D02*
Y552780D01*
X398980D01*
Y542620D01*
X388820D01*
Y517220D02*
Y527380D01*
X398980D01*
Y517220D01*
X388820D01*
X370820Y529920D02*
Y540080D01*
X380980D01*
Y529920D01*
X370820D01*
X277520D02*
Y540080D01*
X287680D01*
Y529920D01*
X277520D01*
X295520Y517220D02*
Y527380D01*
X305680D01*
Y517220D01*
X295520D01*
Y542620D02*
Y552780D01*
X305680D01*
Y542620D01*
X295520D01*
X202220D02*
Y552780D01*
X212380D01*
Y542620D01*
X202220D01*
Y517220D02*
Y527380D01*
X212380D01*
Y517220D01*
X202220D01*
X184220Y529920D02*
Y540080D01*
X194380D01*
Y529920D01*
X184220D01*
X90920D02*
Y540080D01*
X101080D01*
Y529920D01*
X90920D01*
X108920Y517220D02*
Y527380D01*
X119080D01*
Y517220D01*
X108920D01*
Y542620D02*
Y552780D01*
X119080D01*
Y542620D01*
X108920D01*
X388820Y477620D02*
Y487780D01*
X398980D01*
Y477620D01*
X388820D01*
Y452220D02*
Y462380D01*
X398980D01*
Y452220D01*
X388820D01*
X370820Y464920D02*
Y475080D01*
X380980D01*
Y464920D01*
X370820D01*
X90920D02*
Y475080D01*
X101080D01*
Y464920D01*
X90920D01*
X108920Y452220D02*
Y462380D01*
X119080D01*
Y452220D01*
X108920D01*
Y477620D02*
Y487780D01*
X119080D01*
Y477620D01*
X108920D01*
X295520D02*
Y487780D01*
X305680D01*
Y477620D01*
X295520D01*
Y452220D02*
Y462380D01*
X305680D01*
Y452220D01*
X295520D01*
X277520Y464920D02*
Y475080D01*
X287680D01*
Y464920D01*
X277520D01*
X184220D02*
Y475080D01*
X194380D01*
Y464920D01*
X184220D01*
X202220Y452220D02*
Y462380D01*
X212380D01*
Y452220D01*
X202220D01*
Y477620D02*
Y487780D01*
X212380D01*
Y477620D01*
X202220D01*
X388820Y412620D02*
Y422780D01*
X398980D01*
Y412620D01*
X388820D01*
Y387220D02*
Y397380D01*
X398980D01*
Y387220D01*
X388820D01*
X370820Y399920D02*
Y410080D01*
X380980D01*
Y399920D01*
X370820D01*
X277520D02*
Y410080D01*
X287680D01*
Y399920D01*
X277520D01*
X295520Y387220D02*
Y397380D01*
X305680D01*
Y387220D01*
X295520D01*
Y412620D02*
Y422780D01*
X305680D01*
Y412620D01*
X295520D01*
X202220D02*
Y422780D01*
X212380D01*
Y412620D01*
X202220D01*
Y387220D02*
Y397380D01*
X212380D01*
Y387220D01*
X202220D01*
X184220Y399920D02*
Y410080D01*
X194380D01*
Y399920D01*
X184220D01*
X90920D02*
Y410080D01*
X101080D01*
Y399920D01*
X90920D01*
X108920Y387220D02*
Y397380D01*
X119080D01*
Y387220D01*
X108920D01*
Y412620D02*
Y422780D01*
X119080D01*
Y412620D01*
X108920D01*
X388820Y347620D02*
Y357780D01*
X398980D01*
Y347620D01*
X388820D01*
Y322220D02*
Y332380D01*
X398980D01*
Y322220D01*
X388820D01*
X370820Y334920D02*
Y345080D01*
X380980D01*
Y334920D01*
X370820D01*
X90920D02*
Y345080D01*
X101080D01*
Y334920D01*
X90920D01*
X108920Y322220D02*
Y332380D01*
X119080D01*
Y322220D01*
X108920D01*
Y347620D02*
Y357780D01*
X119080D01*
Y347620D01*
X108920D01*
X295520D02*
Y357780D01*
X305680D01*
Y347620D01*
X295520D01*
Y322220D02*
Y332380D01*
X305680D01*
Y322220D01*
X295520D01*
X277520Y334920D02*
Y345080D01*
X287680D01*
Y334920D01*
X277520D01*
X641200Y691220D02*
X636120Y701380D01*
X646280D01*
X641200Y691220D01*
Y581220D02*
X636120Y591380D01*
X646280D01*
X641200Y581220D01*
Y361220D02*
X636120Y371380D01*
X646280D01*
X641200Y361220D01*
X595200Y643220D02*
X590120Y653380D01*
X600280D01*
X595200Y643220D01*
X641200Y471220D02*
X636120Y481380D01*
X646280D01*
X641200Y471220D01*
X595200Y533220D02*
X590120Y543380D01*
X600280D01*
X595200Y533220D01*
Y423220D02*
X590120Y433380D01*
X600280D01*
X595200Y423220D01*
X787460Y442460D02*
Y439920D01*
X792540D01*
Y442460D01*
X795080D01*
Y447540D01*
X792540D01*
Y450080D01*
X787460D01*
Y447540D01*
X784920D01*
Y442460D01*
X787460D01*
X452820Y767460D02*
Y764920D01*
X457900D01*
Y767460D01*
X460440D01*
Y772540D01*
X457900D01*
Y775080D01*
X452820D01*
Y772540D01*
X450280D01*
Y767460D01*
X452820D01*
X787460Y27460D02*
Y24920D01*
X792540D01*
Y27460D01*
X795080D01*
Y32540D01*
X792540D01*
Y35080D01*
X787460D01*
Y32540D01*
X784920D01*
Y27460D01*
X787460D01*
X27460Y767460D02*
Y764920D01*
X32540D01*
Y767460D01*
X35080D01*
Y772540D01*
X32540D01*
Y775080D01*
X27460D01*
Y772540D01*
X24920D01*
Y767460D01*
X27460D01*
Y442460D02*
Y439920D01*
X32540D01*
Y442460D01*
X35080D01*
Y447540D01*
X32540D01*
Y450080D01*
X27460D01*
Y447540D01*
X24920D01*
Y442460D01*
X27460D01*
X427460Y27460D02*
Y24920D01*
X432540D01*
Y27460D01*
X435080D01*
Y32540D01*
X432540D01*
Y35080D01*
X427460D01*
Y32540D01*
X424920D01*
Y27460D01*
X427460D01*
X27460D02*
Y24920D01*
X32540D01*
Y27460D01*
X35080D01*
Y32540D01*
X32540D01*
Y35080D01*
X27460D01*
Y32540D01*
X24920D01*
Y27460D01*
X27460D01*
X500914Y332474D02*
X503454Y335014D01*
X505994D01*
X503454Y337554D01*
X505994Y340094D01*
X503454D01*
X500914Y342634D01*
X498374Y340094D01*
X495834D01*
X498374Y337554D01*
X495834Y335014D01*
X498374D01*
X500914Y332474D01*
X558800Y179420D02*
X561340Y181960D01*
X563880D01*
X561340Y184500D01*
X563880Y187040D01*
X561340D01*
X558800Y189580D01*
X556260Y187040D01*
X553720D01*
X556260Y184500D01*
X553720Y181960D01*
X556260D01*
X558800Y179420D01*
X596900Y201720D02*
X599440Y204260D01*
X601980D01*
X599440Y206800D01*
X601980Y209340D01*
X599440D01*
X596900Y211880D01*
X594360Y209340D01*
X591820D01*
X594360Y206800D01*
X591820Y204260D01*
X594360D01*
X596900Y201720D01*
X609700Y209120D02*
X612240Y211660D01*
X614780D01*
X612240Y214200D01*
X614780Y216740D01*
X612240D01*
X609700Y219280D01*
X607160Y216740D01*
X604620D01*
X607160Y214200D01*
X604620Y211660D01*
X607160D01*
X609700Y209120D01*
X668500Y188820D02*
X671040Y191360D01*
X673580D01*
X671040Y193900D01*
X673580Y196440D01*
X671040D01*
X668500Y198980D01*
X665960Y196440D01*
X663420D01*
X665960Y193900D01*
X663420Y191360D01*
X665960D01*
X668500Y188820D01*
X676410Y195857D02*
X678950Y198397D01*
X681490D01*
X678950Y200937D01*
X681490Y203477D01*
X678950D01*
X676410Y206017D01*
X673870Y203477D01*
X671330D01*
X673870Y200937D01*
X671330Y198397D01*
X673870D01*
X676410Y195857D01*
X683740Y202408D02*
X686280Y204948D01*
X688820D01*
X686280Y207488D01*
X688820Y210028D01*
X686280D01*
X683740Y212568D01*
X681200Y210028D01*
X678660D01*
X681200Y207488D01*
X678660Y204948D01*
X681200D01*
X683740Y202408D01*
X501340Y492648D02*
X503880Y495188D01*
X506420D01*
X503880Y497728D01*
X506420Y500268D01*
X503880D01*
X501340Y502808D01*
X498800Y500268D01*
X496260D01*
X498800Y497728D01*
X496260Y495188D01*
X498800D01*
X501340Y492648D01*
X694600Y170220D02*
X697140Y172760D01*
X699680D01*
X697140Y175300D01*
X699680Y177840D01*
X697140D01*
X694600Y180380D01*
X692060Y177840D01*
X689520D01*
X692060Y175300D01*
X689520Y172760D01*
X692060D01*
X694600Y170220D01*
X690127Y160670D02*
X692667Y163210D01*
X695207D01*
X692667Y165750D01*
X695207Y168290D01*
X692667D01*
X690127Y170830D01*
X687587Y168290D01*
X685047D01*
X687587Y165750D01*
X685047Y163210D01*
X687587D01*
X690127Y160670D01*
X556840Y455435D02*
X559380Y457975D01*
X561920D01*
X559380Y460515D01*
X561920Y463055D01*
X559380D01*
X556840Y465595D01*
X554300Y463055D01*
X551760D01*
X554300Y460515D01*
X551760Y457975D01*
X554300D01*
X556840Y455435D01*
X422900Y69520D02*
X425440Y72060D01*
X427980D01*
X425440Y74600D01*
X427980Y77140D01*
X425440D01*
X422900Y79680D01*
X420360Y77140D01*
X417820D01*
X420360Y74600D01*
X417820Y72060D01*
X420360D01*
X422900Y69520D01*
X422700Y173020D02*
X425240Y175560D01*
X427780D01*
X425240Y178100D01*
X427780Y180640D01*
X425240D01*
X422700Y183180D01*
X420160Y180640D01*
X417620D01*
X420160Y178100D01*
X417620Y175560D01*
X420160D01*
X422700Y173020D01*
X450700Y245520D02*
X453240Y248060D01*
X455780D01*
X453240Y250600D01*
X455780Y253140D01*
X453240D01*
X450700Y255680D01*
X448160Y253140D01*
X445620D01*
X448160Y250600D01*
X445620Y248060D01*
X448160D01*
X450700Y245520D01*
X449700Y78820D02*
X452240Y81360D01*
X454780D01*
X452240Y83900D01*
X454780Y86440D01*
X452240D01*
X449700Y88980D01*
X447160Y86440D01*
X444620D01*
X447160Y83900D01*
X444620Y81360D01*
X447160D01*
X449700Y78820D01*
Y141520D02*
X452240Y144060D01*
X454780D01*
X452240Y146600D01*
X454780Y149140D01*
X452240D01*
X449700Y151680D01*
X447160Y149140D01*
X444620D01*
X447160Y146600D01*
X444620Y144060D01*
X447160D01*
X449700Y141520D01*
X449600Y184420D02*
X452140Y186960D01*
X454680D01*
X452140Y189500D01*
X454680Y192040D01*
X452140D01*
X449600Y194580D01*
X447060Y192040D01*
X444520D01*
X447060Y189500D01*
X444520Y186960D01*
X447060D01*
X449600Y184420D01*
X491000Y47420D02*
X493540Y49960D01*
X496080D01*
X493540Y52500D01*
X496080Y55040D01*
X493540D01*
X491000Y57580D01*
X488460Y55040D01*
X485920D01*
X488460Y52500D01*
X485920Y49960D01*
X488460D01*
X491000Y47420D01*
X479183D02*
X481723Y49960D01*
X484263D01*
X481723Y52500D01*
X484263Y55040D01*
X481723D01*
X479183Y57580D01*
X476643Y55040D01*
X474103D01*
X476643Y52500D01*
X474103Y49960D01*
X476643D01*
X479183Y47420D01*
X467000D02*
X469540Y49960D01*
X472080D01*
X469540Y52500D01*
X472080Y55040D01*
X469540D01*
X467000Y57580D01*
X464460Y55040D01*
X461920D01*
X464460Y52500D01*
X461920Y49960D01*
X464460D01*
X467000Y47420D01*
X475000Y150920D02*
X477540Y153460D01*
X480080D01*
X477540Y156000D01*
X480080Y158540D01*
X477540D01*
X475000Y161080D01*
X472460Y158540D01*
X469920D01*
X472460Y156000D01*
X469920Y153460D01*
X472460D01*
X475000Y150920D01*
X483000Y184920D02*
X485540Y187460D01*
X488080D01*
X485540Y190000D01*
X488080Y192540D01*
X485540D01*
X483000Y195080D01*
X480460Y192540D01*
X477920D01*
X480460Y190000D01*
X477920Y187460D01*
X480460D01*
X483000Y184920D01*
X224000Y242920D02*
X226540Y245460D01*
X229080D01*
X226540Y248000D01*
X229080Y250540D01*
X226540D01*
X224000Y253080D01*
X221460Y250540D01*
X218920D01*
X221460Y248000D01*
X218920Y245460D01*
X221460D01*
X224000Y242920D01*
Y263920D02*
X226540Y266460D01*
X229080D01*
X226540Y269000D01*
X229080Y271540D01*
X226540D01*
X224000Y274080D01*
X221460Y271540D01*
X218920D01*
X221460Y269000D01*
X218920Y266460D01*
X221460D01*
X224000Y263920D01*
Y252920D02*
X226540Y255460D01*
X229080D01*
X226540Y258000D01*
X229080Y260540D01*
X226540D01*
X224000Y263080D01*
X221460Y260540D01*
X218920D01*
X221460Y258000D01*
X218920Y255460D01*
X221460D01*
X224000Y252920D01*
X672772Y73920D02*
X675312Y76460D01*
X677852D01*
X675312Y79000D01*
X677852Y81540D01*
X675312D01*
X672772Y84080D01*
X670232Y81540D01*
X667692D01*
X670232Y79000D01*
X667692Y76460D01*
X670232D01*
X672772Y73920D01*
X680529Y62868D02*
X683069Y65408D01*
X685609D01*
X683069Y67948D01*
X685609Y70488D01*
X683069D01*
X680529Y73028D01*
X677989Y70488D01*
X675449D01*
X677989Y67948D01*
X675449Y65408D01*
X677989D01*
X680529Y62868D01*
X362000Y259920D02*
X364540Y262460D01*
X367080D01*
X364540Y265000D01*
X367080Y267540D01*
X364540D01*
X362000Y270080D01*
X359460Y267540D01*
X356920D01*
X359460Y265000D01*
X356920Y262460D01*
X359460D01*
X362000Y259920D01*
X362779Y159747D02*
X365319Y162287D01*
X367859D01*
X365319Y164827D01*
X367859Y167367D01*
X365319D01*
X362779Y169907D01*
X360239Y167367D01*
X357699D01*
X360239Y164827D01*
X357699Y162287D01*
X360239D01*
X362779Y159747D01*
X369000Y176920D02*
X371540Y179460D01*
X374080D01*
X371540Y182000D01*
X374080Y184540D01*
X371540D01*
X369000Y187080D01*
X366460Y184540D01*
X363920D01*
X366460Y182000D01*
X363920Y179460D01*
X366460D01*
X369000Y176920D01*
X360000Y48920D02*
X362540Y51460D01*
X365080D01*
X362540Y54000D01*
X365080Y56540D01*
X362540D01*
X360000Y59080D01*
X357460Y56540D01*
X354920D01*
X357460Y54000D01*
X354920Y51460D01*
X357460D01*
X360000Y48920D01*
X439500Y685920D02*
X442040Y688460D01*
X444580D01*
X442040Y691000D01*
X444580Y693540D01*
X442040D01*
X439500Y696080D01*
X436960Y693540D01*
X434420D01*
X436960Y691000D01*
X434420Y688460D01*
X436960D01*
X439500Y685920D01*
X362494Y62048D02*
X365034Y64588D01*
X367574D01*
X365034Y67128D01*
X367574Y69668D01*
X365034D01*
X362494Y72208D01*
X359954Y69668D01*
X357414D01*
X359954Y67128D01*
X357414Y64588D01*
X359954D01*
X362494Y62048D01*
X484736Y219109D02*
X487276Y221649D01*
X489816D01*
X487276Y224188D01*
X489816Y226728D01*
X487276D01*
X484736Y229268D01*
X482196Y226728D01*
X479656D01*
X482196Y224188D01*
X479656Y221649D01*
X482196D01*
X484736Y219109D01*
X768170Y302001D02*
X770710Y304541D01*
X773250D01*
X770710Y307081D01*
X773250Y309621D01*
X770710D01*
X768170Y312161D01*
X765630Y309621D01*
X763090D01*
X765630Y307081D01*
X763090Y304541D01*
X765630D01*
X768170Y302001D01*
X768000Y294920D02*
X770540Y297460D01*
X773080D01*
X770540Y300000D01*
X773080Y302540D01*
X770540D01*
X768000Y305080D01*
X765460Y302540D01*
X762920D01*
X765460Y300000D01*
X762920Y297460D01*
X765460D01*
X768000Y294920D01*
X439000Y392920D02*
X441540Y395460D01*
X444080D01*
X441540Y398000D01*
X444080Y400540D01*
X441540D01*
X439000Y403080D01*
X436460Y400540D01*
X433920D01*
X436460Y398000D01*
X433920Y395460D01*
X436460D01*
X439000Y392920D01*
X438140Y542920D02*
X440680Y545460D01*
X443220D01*
X440680Y548000D01*
X443220Y550540D01*
X440680D01*
X438140Y553080D01*
X435600Y550540D01*
X433060D01*
X435600Y548000D01*
X433060Y545460D01*
X435600D01*
X438140Y542920D01*
X705000Y427920D02*
X707540Y430460D01*
X710080D01*
X707540Y433000D01*
X710080Y435540D01*
X707540D01*
X705000Y438080D01*
X702460Y435540D01*
X699920D01*
X702460Y433000D01*
X699920Y430460D01*
X702460D01*
X705000Y427920D01*
X459000Y615920D02*
X461540Y618460D01*
X464080D01*
X461540Y621000D01*
X464080Y623540D01*
X461540D01*
X459000Y626080D01*
X456460Y623540D01*
X453920D01*
X456460Y621000D01*
X453920Y618460D01*
X456460D01*
X459000Y615920D01*
X27000Y221920D02*
X29540Y224460D01*
X32080D01*
X29540Y227000D01*
X32080Y229540D01*
X29540D01*
X27000Y232080D01*
X24460Y229540D01*
X21920D01*
X24460Y227000D01*
X21920Y224460D01*
X24460D01*
X27000Y221920D01*
X564847Y448243D02*
X567388Y450784D01*
X569927D01*
X567388Y453324D01*
X569927Y455863D01*
X567388D01*
X564847Y458404D01*
X562308Y455863D01*
X559767D01*
X562308Y453324D01*
X559767Y450784D01*
X562308D01*
X564847Y448243D01*
X669000Y448920D02*
X671540Y451460D01*
X674080D01*
X671540Y454000D01*
X674080Y456540D01*
X671540D01*
X669000Y459080D01*
X666460Y456540D01*
X663920D01*
X666460Y454000D01*
X663920Y451460D01*
X666460D01*
X669000Y448920D01*
X736103Y428072D02*
X738643Y430612D01*
X741183D01*
X738643Y433152D01*
X741183Y435692D01*
X738643D01*
X736103Y438232D01*
X733563Y435692D01*
X731023D01*
X733563Y433152D01*
X731023Y430612D01*
X733563D01*
X736103Y428072D01*
X512000Y113920D02*
X514540Y116460D01*
X517080D01*
X514540Y119000D01*
X517080Y121540D01*
X514540D01*
X512000Y124080D01*
X509460Y121540D01*
X506920D01*
X509460Y119000D01*
X506920Y116460D01*
X509460D01*
X512000Y113920D01*
X500840Y549534D02*
X503380Y552074D01*
X505920D01*
X503380Y554614D01*
X505920Y557154D01*
X503380D01*
X500840Y559694D01*
X498300Y557154D01*
X495760D01*
X498300Y554614D01*
X495760Y552074D01*
X498300D01*
X500840Y549534D01*
X665000Y686920D02*
X667540Y689460D01*
X670080D01*
X667540Y692000D01*
X670080Y694540D01*
X667540D01*
X665000Y697080D01*
X662460Y694540D01*
X659920D01*
X662460Y692000D01*
X659920Y689460D01*
X662460D01*
X665000Y686920D01*
X545840Y618624D02*
X548380Y621164D01*
X550920D01*
X548380Y623704D01*
X550920Y626244D01*
X548380D01*
X545840Y628784D01*
X543300Y626244D01*
X540760D01*
X543300Y623704D01*
X540760Y621164D01*
X543300D01*
X545840Y618624D01*
X576000Y484920D02*
X578540Y487460D01*
X581080D01*
X578540Y490000D01*
X581080Y492540D01*
X578540D01*
X576000Y495080D01*
X573460Y492540D01*
X570920D01*
X573460Y490000D01*
X570920Y487460D01*
X573460D01*
X576000Y484920D01*
X539840Y489524D02*
X542380Y492064D01*
X544920D01*
X542380Y494604D01*
X544920Y497144D01*
X542380D01*
X539840Y499684D01*
X537300Y497144D01*
X534760D01*
X537300Y494604D01*
X534760Y492064D01*
X537300D01*
X539840Y489524D01*
X569000Y388920D02*
X571540Y391460D01*
X574080D01*
X571540Y394000D01*
X574080Y396540D01*
X571540D01*
X569000Y399080D01*
X566460Y396540D01*
X563920D01*
X566460Y394000D01*
X563920Y391460D01*
X566460D01*
X569000Y388920D01*
X551100Y311049D02*
X553640Y313589D01*
X556180D01*
X553640Y316129D01*
X556180Y318669D01*
X553640D01*
X551100Y321209D01*
X548560Y318669D01*
X546020D01*
X548560Y316129D01*
X546020Y313589D01*
X548560D01*
X551100Y311049D01*
X487680Y325974D02*
X490220Y328514D01*
X492760D01*
X490220Y331054D01*
X492760Y333594D01*
X490220D01*
X487680Y336134D01*
X485140Y333594D01*
X482600D01*
X485140Y331054D01*
X482600Y328514D01*
X485140D01*
X487680Y325974D01*
X488538Y299676D02*
X491078Y302216D01*
X493618D01*
X491078Y304756D01*
X493618Y307296D01*
X491078D01*
X488538Y309836D01*
X485998Y307296D01*
X483458D01*
X485998Y304756D01*
X483458Y302216D01*
X485998D01*
X488538Y299676D01*
X551000Y194920D02*
X553540Y197460D01*
X556080D01*
X553540Y200000D01*
X556080Y202540D01*
X553540D01*
X551000Y205080D01*
X548460Y202540D01*
X545920D01*
X548460Y200000D01*
X545920Y197460D01*
X548460D01*
X551000Y194920D01*
X691116Y345770D02*
X693656Y348310D01*
X696197D01*
X693656Y350850D01*
X696197Y353390D01*
X693656D01*
X691116Y355930D01*
X688577Y353390D01*
X686037D01*
X688577Y350850D01*
X686037Y348310D01*
X688577D01*
X691116Y345770D01*
X312000Y38920D02*
X314540Y41460D01*
X317080D01*
X314540Y44000D01*
X317080Y46540D01*
X314540D01*
X312000Y49080D01*
X309460Y46540D01*
X306920D01*
X309460Y44000D01*
X306920Y41460D01*
X309460D01*
X312000Y38920D01*
X745216Y504926D02*
X747756Y507466D01*
X750296D01*
X747756Y510006D01*
X750296Y512546D01*
X747756D01*
X745216Y515086D01*
X742676Y512546D01*
X740136D01*
X742676Y510006D01*
X740136Y507466D01*
X742676D01*
X745216Y504926D01*
X775696Y97224D02*
X778236Y99764D01*
X780776D01*
X778236Y102304D01*
X780776Y104844D01*
X778236D01*
X775696Y107384D01*
X773156Y104844D01*
X770616D01*
X773156Y102304D01*
X770616Y99764D01*
X773156D01*
X775696Y97224D01*
X769000Y90920D02*
X771540Y93460D01*
X774080D01*
X771540Y96000D01*
X774080Y98540D01*
X771540D01*
X769000Y101080D01*
X766460Y98540D01*
X763920D01*
X766460Y96000D01*
X763920Y93460D01*
X766460D01*
X769000Y90920D01*
X743243Y431454D02*
X745783Y433994D01*
X748323D01*
X745783Y436534D01*
X748323Y439074D01*
X745783D01*
X743243Y441614D01*
X740703Y439074D01*
X738163D01*
X740703Y436534D01*
X738163Y433994D01*
X740703D01*
X743243Y431454D01*
X763313Y419363D02*
X765853Y421903D01*
X768393D01*
X765853Y424443D01*
X768393Y426983D01*
X765853D01*
X763313Y429523D01*
X760773Y426983D01*
X758233D01*
X760773Y424443D01*
X758233Y421903D01*
X760773D01*
X763313Y419363D01*
X779420Y385072D02*
X781960Y387612D01*
X784500D01*
X781960Y390152D01*
X784500Y392692D01*
X781960D01*
X779420Y395232D01*
X776880Y392692D01*
X774340D01*
X776880Y390152D01*
X774340Y387612D01*
X776880D01*
X779420Y385072D01*
X779521Y363450D02*
X782061Y365989D01*
X784601D01*
X782061Y368530D01*
X784601Y371069D01*
X782061D01*
X779521Y373610D01*
X776981Y371069D01*
X774441D01*
X776981Y368530D01*
X774441Y365989D01*
X776981D01*
X779521Y363450D01*
X786056Y377148D02*
X788596Y379688D01*
X791136D01*
X788596Y382228D01*
X791136Y384768D01*
X788596D01*
X786056Y387308D01*
X783516Y384768D01*
X780976D01*
X783516Y382228D01*
X780976Y379688D01*
X783516D01*
X786056Y377148D01*
X696000Y725920D02*
X698540Y728460D01*
X701080D01*
X698540Y731000D01*
X701080Y733540D01*
X698540D01*
X696000Y736080D01*
X693460Y733540D01*
X690920D01*
X693460Y731000D01*
X690920Y728460D01*
X693460D01*
X696000Y725920D01*
X695854Y651799D02*
X698394Y654339D01*
X700934D01*
X698394Y656879D01*
X700934Y659419D01*
X698394D01*
X695854Y661959D01*
X693314Y659419D01*
X690774D01*
X693314Y656879D01*
X690774Y654339D01*
X693314D01*
X695854Y651799D01*
X766443Y357496D02*
X768983Y360036D01*
X771523D01*
X768983Y362576D01*
X771523Y365116D01*
X768983D01*
X766443Y367656D01*
X763903Y365116D01*
X761363D01*
X763903Y362576D01*
X761363Y360036D01*
X763903D01*
X766443Y357496D01*
X740806Y371920D02*
X743346Y374460D01*
X745886D01*
X743346Y377000D01*
X745886Y379540D01*
X743346D01*
X740806Y382080D01*
X738266Y379540D01*
X735726D01*
X738266Y377000D01*
X735726Y374460D01*
X738266D01*
X740806Y371920D01*
X753500Y369996D02*
X756040Y372536D01*
X758580D01*
X756040Y375076D01*
X758580Y377616D01*
X756040D01*
X753500Y380156D01*
X750960Y377616D01*
X748420D01*
X750960Y375076D01*
X748420Y372536D01*
X750960D01*
X753500Y369996D01*
X689000Y323920D02*
X691540Y326460D01*
X694080D01*
X691540Y329000D01*
X694080Y331540D01*
X691540D01*
X689000Y334080D01*
X686460Y331540D01*
X683920D01*
X686460Y329000D01*
X683920Y326460D01*
X686460D01*
X689000Y323920D01*
X660676Y318995D02*
X663216Y321535D01*
X665756D01*
X663216Y324075D01*
X665756Y326615D01*
X663216D01*
X660676Y329155D01*
X658136Y326615D01*
X655596D01*
X658136Y324075D01*
X655596Y321535D01*
X658136D01*
X660676Y318995D01*
X448000Y358920D02*
X450540Y361460D01*
X453080D01*
X450540Y364000D01*
X453080Y366540D01*
X450540D01*
X448000Y369080D01*
X445460Y366540D01*
X442920D01*
X445460Y364000D01*
X442920Y361460D01*
X445460D01*
X448000Y358920D01*
X451753Y425027D02*
X454293Y427566D01*
X456833D01*
X454293Y430107D01*
X456833Y432646D01*
X454293D01*
X451753Y435187D01*
X449213Y432646D01*
X446673D01*
X449213Y430107D01*
X446673Y427566D01*
X449213D01*
X451753Y425027D01*
X514175Y656952D02*
X516715Y659492D01*
X519255D01*
X516715Y662032D01*
X519255Y664572D01*
X516715D01*
X514175Y667112D01*
X511635Y664572D01*
X509095D01*
X511635Y662032D01*
X509095Y659492D01*
X511635D01*
X514175Y656952D01*
X501056Y648702D02*
X503596Y651242D01*
X506136D01*
X503596Y653782D01*
X506136Y656322D01*
X503596D01*
X501056Y658862D01*
X498516Y656322D01*
X495976D01*
X498516Y653782D01*
X495976Y651242D01*
X498516D01*
X501056Y648702D01*
X527000Y664920D02*
X529540Y667460D01*
X532080D01*
X529540Y670000D01*
X532080Y672540D01*
X529540D01*
X527000Y675080D01*
X524460Y672540D01*
X521920D01*
X524460Y670000D01*
X521920Y667460D01*
X524460D01*
X527000Y664920D01*
X29815Y784969D02*
X32355Y787509D01*
X34895D01*
X32355Y790049D01*
X34895Y792589D01*
X32355D01*
X29815Y795129D01*
X27275Y792589D01*
X24735D01*
X27275Y790049D01*
X24735Y787509D01*
X27275D01*
X29815Y784969D01*
X21494Y783046D02*
X24034Y785586D01*
X26574D01*
X24034Y788126D01*
X26574Y790666D01*
X24034D01*
X21494Y793206D01*
X18954Y790666D01*
X16414D01*
X18954Y788126D01*
X16414Y785586D01*
X18954D01*
X21494Y783046D01*
X14728Y777836D02*
X17268Y780376D01*
X19808D01*
X17268Y782916D01*
X19808Y785456D01*
X17268D01*
X14728Y787996D01*
X12188Y785456D01*
X9648D01*
X12188Y782916D01*
X9648Y780376D01*
X12188D01*
X14728Y777836D01*
X10720Y770294D02*
X13261Y772834D01*
X15800D01*
X13261Y775374D01*
X15800Y777914D01*
X13261D01*
X10720Y780454D01*
X8181Y777914D01*
X5641D01*
X8181Y775374D01*
X5641Y772834D01*
X8181D01*
X10720Y770294D01*
X9969Y761787D02*
X12509Y764327D01*
X15050D01*
X12509Y766868D01*
X15050Y769408D01*
X12509D01*
X9969Y771947D01*
X7430Y769408D01*
X4890D01*
X7430Y766868D01*
X4890Y764327D01*
X7430D01*
X9969Y761787D01*
Y753248D02*
X12509Y755788D01*
X15050D01*
X12509Y758327D01*
X15050Y760867D01*
X12509D01*
X9969Y763408D01*
X7430Y760867D01*
X4890D01*
X7430Y758327D01*
X4890Y755788D01*
X7430D01*
X9969Y753248D01*
Y744707D02*
X12509Y747247D01*
X15050D01*
X12509Y749788D01*
X15050Y752327D01*
X12509D01*
X9969Y754867D01*
X7430Y752327D01*
X4890D01*
X7430Y749788D01*
X4890Y747247D01*
X7430D01*
X9969Y744707D01*
Y736168D02*
X12509Y738708D01*
X15050D01*
X12509Y741247D01*
X15050Y743788D01*
X12509D01*
X9969Y746328D01*
X7430Y743788D01*
X4890D01*
X7430Y741247D01*
X4890Y738708D01*
X7430D01*
X9969Y736168D01*
Y727627D02*
X12509Y730167D01*
X15050D01*
X12509Y732708D01*
X15050Y735247D01*
X12509D01*
X9969Y737787D01*
X7430Y735247D01*
X4890D01*
X7430Y732708D01*
X4890Y730167D01*
X7430D01*
X9969Y727627D01*
Y719088D02*
X12509Y721628D01*
X15050D01*
X12509Y724167D01*
X15050Y726708D01*
X12509D01*
X9969Y729248D01*
X7430Y726708D01*
X4890D01*
X7430Y724167D01*
X4890Y721628D01*
X7430D01*
X9969Y719088D01*
Y710548D02*
X12509Y713088D01*
X15050D01*
X12509Y715628D01*
X15050Y718168D01*
X12509D01*
X9969Y720708D01*
X7430Y718168D01*
X4890D01*
X7430Y715628D01*
X4890Y713088D01*
X7430D01*
X9969Y710548D01*
Y702008D02*
X12509Y704548D01*
X15050D01*
X12509Y707088D01*
X15050Y709628D01*
X12509D01*
X9969Y712168D01*
X7430Y709628D01*
X4890D01*
X7430Y707088D01*
X4890Y704548D01*
X7430D01*
X9969Y702008D01*
Y693468D02*
X12509Y696008D01*
X15050D01*
X12509Y698548D01*
X15050Y701088D01*
X12509D01*
X9969Y703628D01*
X7430Y701088D01*
X4890D01*
X7430Y698548D01*
X4890Y696008D01*
X7430D01*
X9969Y693468D01*
Y684928D02*
X12509Y687468D01*
X15050D01*
X12509Y690008D01*
X15050Y692548D01*
X12509D01*
X9969Y695088D01*
X7430Y692548D01*
X4890D01*
X7430Y690008D01*
X4890Y687468D01*
X7430D01*
X9969Y684928D01*
Y676388D02*
X12509Y678928D01*
X15050D01*
X12509Y681468D01*
X15050Y684008D01*
X12509D01*
X9969Y686548D01*
X7430Y684008D01*
X4890D01*
X7430Y681468D01*
X4890Y678928D01*
X7430D01*
X9969Y676388D01*
Y667848D02*
X12509Y670388D01*
X15050D01*
X12509Y672928D01*
X15050Y675468D01*
X12509D01*
X9969Y678008D01*
X7430Y675468D01*
X4890D01*
X7430Y672928D01*
X4890Y670388D01*
X7430D01*
X9969Y667848D01*
Y659308D02*
X12509Y661848D01*
X15050D01*
X12509Y664388D01*
X15050Y666928D01*
X12509D01*
X9969Y669468D01*
X7430Y666928D01*
X4890D01*
X7430Y664388D01*
X4890Y661848D01*
X7430D01*
X9969Y659308D01*
Y650768D02*
X12509Y653308D01*
X15050D01*
X12509Y655848D01*
X15050Y658388D01*
X12509D01*
X9969Y660928D01*
X7430Y658388D01*
X4890D01*
X7430Y655848D01*
X4890Y653308D01*
X7430D01*
X9969Y650768D01*
Y642228D02*
X12509Y644768D01*
X15050D01*
X12509Y647308D01*
X15050Y649848D01*
X12509D01*
X9969Y652388D01*
X7430Y649848D01*
X4890D01*
X7430Y647308D01*
X4890Y644768D01*
X7430D01*
X9969Y642228D01*
Y633688D02*
X12509Y636228D01*
X15050D01*
X12509Y638768D01*
X15050Y641308D01*
X12509D01*
X9969Y643848D01*
X7430Y641308D01*
X4890D01*
X7430Y638768D01*
X4890Y636228D01*
X7430D01*
X9969Y633688D01*
Y625148D02*
X12509Y627688D01*
X15050D01*
X12509Y630228D01*
X15050Y632768D01*
X12509D01*
X9969Y635308D01*
X7430Y632768D01*
X4890D01*
X7430Y630228D01*
X4890Y627688D01*
X7430D01*
X9969Y625148D01*
X9969Y616608D02*
X12509Y619148D01*
X15050D01*
X12509Y621688D01*
X15050Y624228D01*
X12509D01*
X9969Y626768D01*
X7430Y624228D01*
X4890D01*
X7430Y621688D01*
X4890Y619148D01*
X7430D01*
X9969Y616608D01*
Y608068D02*
X12509Y610608D01*
X15050D01*
X12509Y613148D01*
X15050Y615688D01*
X12509D01*
X9969Y618228D01*
X7430Y615688D01*
X4890D01*
X7430Y613148D01*
X4890Y610608D01*
X7430D01*
X9969Y608068D01*
Y599528D02*
X12509Y602068D01*
X15050D01*
X12509Y604608D01*
X15050Y607148D01*
X12509D01*
X9969Y609688D01*
X7430Y607148D01*
X4890D01*
X7430Y604608D01*
X4890Y602068D01*
X7430D01*
X9969Y599528D01*
Y590988D02*
X12509Y593528D01*
X15050D01*
X12509Y596068D01*
X15050Y598608D01*
X12509D01*
X9969Y601148D01*
X7430Y598608D01*
X4890D01*
X7430Y596068D01*
X4890Y593528D01*
X7430D01*
X9969Y590988D01*
Y582448D02*
X12509Y584988D01*
X15050D01*
X12509Y587528D01*
X15050Y590068D01*
X12509D01*
X9969Y592608D01*
X7430Y590068D01*
X4890D01*
X7430Y587528D01*
X4890Y584988D01*
X7430D01*
X9969Y582448D01*
Y573908D02*
X12509Y576448D01*
X15050D01*
X12509Y578988D01*
X15050Y581528D01*
X12509D01*
X9969Y584068D01*
X7430Y581528D01*
X4890D01*
X7430Y578988D01*
X4890Y576448D01*
X7430D01*
X9969Y573908D01*
Y565368D02*
X12509Y567908D01*
X15050D01*
X12509Y570448D01*
X15050Y572988D01*
X12509D01*
X9969Y575528D01*
X7430Y572988D01*
X4890D01*
X7430Y570448D01*
X4890Y567908D01*
X7430D01*
X9969Y565368D01*
Y556828D02*
X12509Y559368D01*
X15050D01*
X12509Y561908D01*
X15050Y564448D01*
X12509D01*
X9969Y566988D01*
X7430Y564448D01*
X4890D01*
X7430Y561908D01*
X4890Y559368D01*
X7430D01*
X9969Y556828D01*
Y548288D02*
X12509Y550828D01*
X15050D01*
X12509Y553368D01*
X15050Y555908D01*
X12509D01*
X9969Y558448D01*
X7430Y555908D01*
X4890D01*
X7430Y553368D01*
X4890Y550828D01*
X7430D01*
X9969Y548288D01*
Y539748D02*
X12509Y542288D01*
X15050D01*
X12509Y544828D01*
X15050Y547368D01*
X12509D01*
X9969Y549908D01*
X7430Y547368D01*
X4890D01*
X7430Y544828D01*
X4890Y542288D01*
X7430D01*
X9969Y539748D01*
Y531208D02*
X12509Y533748D01*
X15050D01*
X12509Y536288D01*
X15050Y538828D01*
X12509D01*
X9969Y541368D01*
X7430Y538828D01*
X4890D01*
X7430Y536288D01*
X4890Y533748D01*
X7430D01*
X9969Y531208D01*
Y522668D02*
X12509Y525208D01*
X15050D01*
X12509Y527748D01*
X15050Y530288D01*
X12509D01*
X9969Y532828D01*
X7430Y530288D01*
X4890D01*
X7430Y527748D01*
X4890Y525208D01*
X7430D01*
X9969Y522668D01*
Y514128D02*
X12509Y516668D01*
X15050D01*
X12509Y519208D01*
X15050Y521748D01*
X12509D01*
X9969Y524288D01*
X7430Y521748D01*
X4890D01*
X7430Y519208D01*
X4890Y516668D01*
X7430D01*
X9969Y514128D01*
Y505588D02*
X12509Y508128D01*
X15050D01*
X12509Y510668D01*
X15050Y513208D01*
X12509D01*
X9969Y515748D01*
X7430Y513208D01*
X4890D01*
X7430Y510668D01*
X4890Y508128D01*
X7430D01*
X9969Y505588D01*
Y497048D02*
X12509Y499588D01*
X15050D01*
X12509Y502128D01*
X15050Y504668D01*
X12509D01*
X9969Y507208D01*
X7430Y504668D01*
X4890D01*
X7430Y502128D01*
X4890Y499588D01*
X7430D01*
X9969Y497048D01*
Y488508D02*
X12509Y491048D01*
X15050D01*
X12509Y493588D01*
X15050Y496128D01*
X12509D01*
X9969Y498668D01*
X7430Y496128D01*
X4890D01*
X7430Y493588D01*
X4890Y491048D01*
X7430D01*
X9969Y488508D01*
Y479968D02*
X12509Y482508D01*
X15050D01*
X12509Y485048D01*
X15050Y487588D01*
X12509D01*
X9969Y490128D01*
X7430Y487588D01*
X4890D01*
X7430Y485048D01*
X4890Y482508D01*
X7430D01*
X9969Y479968D01*
Y471428D02*
X12509Y473968D01*
X15050D01*
X12509Y476508D01*
X15050Y479048D01*
X12509D01*
X9969Y481588D01*
X7430Y479048D01*
X4890D01*
X7430Y476508D01*
X4890Y473968D01*
X7430D01*
X9969Y471428D01*
X9969Y462888D02*
X12509Y465428D01*
X15050D01*
X12509Y467968D01*
X15050Y470508D01*
X12509D01*
X9969Y473048D01*
X7430Y470508D01*
X4890D01*
X7430Y467968D01*
X4890Y465428D01*
X7430D01*
X9969Y462888D01*
Y454348D02*
X12509Y456888D01*
X15050D01*
X12509Y459428D01*
X15050Y461968D01*
X12509D01*
X9969Y464508D01*
X7430Y461968D01*
X4890D01*
X7430Y459428D01*
X4890Y456888D01*
X7430D01*
X9969Y454348D01*
Y445808D02*
X12509Y448348D01*
X15050D01*
X12509Y450888D01*
X15050Y453428D01*
X12509D01*
X9969Y455968D01*
X7430Y453428D01*
X4890D01*
X7430Y450888D01*
X4890Y448348D01*
X7430D01*
X9969Y445808D01*
Y437268D02*
X12509Y439808D01*
X15050D01*
X12509Y442348D01*
X15050Y444888D01*
X12509D01*
X9969Y447428D01*
X7430Y444888D01*
X4890D01*
X7430Y442348D01*
X4890Y439808D01*
X7430D01*
X9969Y437268D01*
Y428728D02*
X12509Y431268D01*
X15050D01*
X12509Y433808D01*
X15050Y436348D01*
X12509D01*
X9969Y438888D01*
X7430Y436348D01*
X4890D01*
X7430Y433808D01*
X4890Y431268D01*
X7430D01*
X9969Y428728D01*
Y420188D02*
X12509Y422728D01*
X15050D01*
X12509Y425268D01*
X15050Y427808D01*
X12509D01*
X9969Y430348D01*
X7430Y427808D01*
X4890D01*
X7430Y425268D01*
X4890Y422728D01*
X7430D01*
X9969Y420188D01*
Y411648D02*
X12509Y414188D01*
X15050D01*
X12509Y416728D01*
X15050Y419268D01*
X12509D01*
X9969Y421808D01*
X7430Y419268D01*
X4890D01*
X7430Y416728D01*
X4890Y414188D01*
X7430D01*
X9969Y411648D01*
Y403108D02*
X12509Y405648D01*
X15050D01*
X12509Y408188D01*
X15050Y410728D01*
X12509D01*
X9969Y413268D01*
X7430Y410728D01*
X4890D01*
X7430Y408188D01*
X4890Y405648D01*
X7430D01*
X9969Y403108D01*
Y394568D02*
X12509Y397108D01*
X15050D01*
X12509Y399648D01*
X15050Y402188D01*
X12509D01*
X9969Y404728D01*
X7430Y402188D01*
X4890D01*
X7430Y399648D01*
X4890Y397108D01*
X7430D01*
X9969Y394568D01*
Y386028D02*
X12509Y388568D01*
X15050D01*
X12509Y391108D01*
X15050Y393648D01*
X12509D01*
X9969Y396188D01*
X7430Y393648D01*
X4890D01*
X7430Y391108D01*
X4890Y388568D01*
X7430D01*
X9969Y386028D01*
Y377488D02*
X12509Y380028D01*
X15050D01*
X12509Y382568D01*
X15050Y385108D01*
X12509D01*
X9969Y387648D01*
X7430Y385108D01*
X4890D01*
X7430Y382568D01*
X4890Y380028D01*
X7430D01*
X9969Y377488D01*
Y368948D02*
X12509Y371488D01*
X15050D01*
X12509Y374028D01*
X15050Y376568D01*
X12509D01*
X9969Y379108D01*
X7430Y376568D01*
X4890D01*
X7430Y374028D01*
X4890Y371488D01*
X7430D01*
X9969Y368948D01*
Y360408D02*
X12509Y362948D01*
X15050D01*
X12509Y365488D01*
X15050Y368028D01*
X12509D01*
X9969Y370568D01*
X7430Y368028D01*
X4890D01*
X7430Y365488D01*
X4890Y362948D01*
X7430D01*
X9969Y360408D01*
Y351868D02*
X12509Y354408D01*
X15050D01*
X12509Y356948D01*
X15050Y359488D01*
X12509D01*
X9969Y362028D01*
X7430Y359488D01*
X4890D01*
X7430Y356948D01*
X4890Y354408D01*
X7430D01*
X9969Y351868D01*
Y343328D02*
X12509Y345868D01*
X15050D01*
X12509Y348408D01*
X15050Y350948D01*
X12509D01*
X9969Y353488D01*
X7430Y350948D01*
X4890D01*
X7430Y348408D01*
X4890Y345868D01*
X7430D01*
X9969Y343328D01*
Y334788D02*
X12509Y337328D01*
X15050D01*
X12509Y339868D01*
X15050Y342408D01*
X12509D01*
X9969Y344948D01*
X7430Y342408D01*
X4890D01*
X7430Y339868D01*
X4890Y337328D01*
X7430D01*
X9969Y334788D01*
Y326248D02*
X12509Y328788D01*
X15050D01*
X12509Y331328D01*
X15050Y333868D01*
X12509D01*
X9969Y336408D01*
X7430Y333868D01*
X4890D01*
X7430Y331328D01*
X4890Y328788D01*
X7430D01*
X9969Y326248D01*
X9969Y317708D02*
X12509Y320248D01*
X15049D01*
X12509Y322788D01*
X15049Y325328D01*
X12509D01*
X9969Y327868D01*
X7429Y325328D01*
X4889D01*
X7429Y322788D01*
X4889Y320248D01*
X7429D01*
X9969Y317708D01*
Y309168D02*
X12509Y311708D01*
X15049D01*
X12509Y314248D01*
X15049Y316788D01*
X12509D01*
X9969Y319328D01*
X7429Y316788D01*
X4889D01*
X7429Y314248D01*
X4889Y311708D01*
X7429D01*
X9969Y309168D01*
Y300628D02*
X12509Y303168D01*
X15049D01*
X12509Y305708D01*
X15049Y308248D01*
X12509D01*
X9969Y310788D01*
X7429Y308248D01*
X4889D01*
X7429Y305708D01*
X4889Y303168D01*
X7429D01*
X9969Y300628D01*
Y292088D02*
X12509Y294628D01*
X15049D01*
X12509Y297168D01*
X15049Y299708D01*
X12509D01*
X9969Y302248D01*
X7429Y299708D01*
X4889D01*
X7429Y297168D01*
X4889Y294628D01*
X7429D01*
X9969Y292088D01*
Y283548D02*
X12509Y286088D01*
X15049D01*
X12509Y288628D01*
X15049Y291168D01*
X12509D01*
X9969Y293708D01*
X7429Y291168D01*
X4889D01*
X7429Y288628D01*
X4889Y286088D01*
X7429D01*
X9969Y283548D01*
Y275008D02*
X12509Y277548D01*
X15049D01*
X12509Y280088D01*
X15049Y282628D01*
X12509D01*
X9969Y285168D01*
X7429Y282628D01*
X4889D01*
X7429Y280088D01*
X4889Y277548D01*
X7429D01*
X9969Y275008D01*
Y266468D02*
X12509Y269008D01*
X15049D01*
X12509Y271548D01*
X15049Y274088D01*
X12509D01*
X9969Y276628D01*
X7429Y274088D01*
X4889D01*
X7429Y271548D01*
X4889Y269008D01*
X7429D01*
X9969Y266468D01*
Y257928D02*
X12509Y260468D01*
X15049D01*
X12509Y263008D01*
X15049Y265548D01*
X12509D01*
X9969Y268088D01*
X7429Y265548D01*
X4889D01*
X7429Y263008D01*
X4889Y260468D01*
X7429D01*
X9969Y257928D01*
Y249388D02*
X12509Y251928D01*
X15049D01*
X12509Y254468D01*
X15049Y257008D01*
X12509D01*
X9969Y259548D01*
X7429Y257008D01*
X4889D01*
X7429Y254468D01*
X4889Y251928D01*
X7429D01*
X9969Y249388D01*
Y240848D02*
X12509Y243388D01*
X15049D01*
X12509Y245928D01*
X15049Y248468D01*
X12509D01*
X9969Y251008D01*
X7429Y248468D01*
X4889D01*
X7429Y245928D01*
X4889Y243388D01*
X7429D01*
X9969Y240848D01*
Y232308D02*
X12509Y234848D01*
X15049D01*
X12509Y237388D01*
X15049Y239928D01*
X12509D01*
X9969Y242468D01*
X7429Y239928D01*
X4889D01*
X7429Y237388D01*
X4889Y234848D01*
X7429D01*
X9969Y232308D01*
Y223768D02*
X12509Y226308D01*
X15049D01*
X12509Y228848D01*
X15049Y231388D01*
X12509D01*
X9969Y233928D01*
X7429Y231388D01*
X4889D01*
X7429Y228848D01*
X4889Y226308D01*
X7429D01*
X9969Y223768D01*
Y215228D02*
X12509Y217768D01*
X15049D01*
X12509Y220308D01*
X15049Y222848D01*
X12509D01*
X9969Y225388D01*
X7429Y222848D01*
X4889D01*
X7429Y220308D01*
X4889Y217768D01*
X7429D01*
X9969Y215228D01*
Y206688D02*
X12509Y209228D01*
X15049D01*
X12509Y211768D01*
X15049Y214308D01*
X12509D01*
X9969Y216848D01*
X7429Y214308D01*
X4889D01*
X7429Y211768D01*
X4889Y209228D01*
X7429D01*
X9969Y206688D01*
Y198148D02*
X12509Y200688D01*
X15049D01*
X12509Y203228D01*
X15049Y205768D01*
X12509D01*
X9969Y208308D01*
X7429Y205768D01*
X4889D01*
X7429Y203228D01*
X4889Y200688D01*
X7429D01*
X9969Y198148D01*
Y189608D02*
X12509Y192148D01*
X15049D01*
X12509Y194688D01*
X15049Y197228D01*
X12509D01*
X9969Y199768D01*
X7429Y197228D01*
X4889D01*
X7429Y194688D01*
X4889Y192148D01*
X7429D01*
X9969Y189608D01*
Y181068D02*
X12509Y183608D01*
X15049D01*
X12509Y186148D01*
X15049Y188688D01*
X12509D01*
X9969Y191228D01*
X7429Y188688D01*
X4889D01*
X7429Y186148D01*
X4889Y183608D01*
X7429D01*
X9969Y181068D01*
X9969Y172528D02*
X12509Y175068D01*
X15049D01*
X12509Y177608D01*
X15049Y180148D01*
X12509D01*
X9969Y182688D01*
X7429Y180148D01*
X4889D01*
X7429Y177608D01*
X4889Y175068D01*
X7429D01*
X9969Y172528D01*
Y163988D02*
X12509Y166528D01*
X15049D01*
X12509Y169068D01*
X15049Y171608D01*
X12509D01*
X9969Y174148D01*
X7429Y171608D01*
X4889D01*
X7429Y169068D01*
X4889Y166528D01*
X7429D01*
X9969Y163988D01*
Y155448D02*
X12509Y157988D01*
X15049D01*
X12509Y160528D01*
X15049Y163068D01*
X12509D01*
X9969Y165608D01*
X7429Y163068D01*
X4889D01*
X7429Y160528D01*
X4889Y157988D01*
X7429D01*
X9969Y155448D01*
Y146908D02*
X12509Y149448D01*
X15049D01*
X12509Y151988D01*
X15049Y154528D01*
X12509D01*
X9969Y157068D01*
X7429Y154528D01*
X4889D01*
X7429Y151988D01*
X4889Y149448D01*
X7429D01*
X9969Y146908D01*
Y138368D02*
X12509Y140908D01*
X15049D01*
X12509Y143448D01*
X15049Y145988D01*
X12509D01*
X9969Y148528D01*
X7429Y145988D01*
X4889D01*
X7429Y143448D01*
X4889Y140908D01*
X7429D01*
X9969Y138368D01*
Y129828D02*
X12509Y132368D01*
X15049D01*
X12509Y134908D01*
X15049Y137448D01*
X12509D01*
X9969Y139988D01*
X7429Y137448D01*
X4889D01*
X7429Y134908D01*
X4889Y132368D01*
X7429D01*
X9969Y129828D01*
Y121288D02*
X12509Y123828D01*
X15049D01*
X12509Y126368D01*
X15049Y128908D01*
X12509D01*
X9969Y131448D01*
X7429Y128908D01*
X4889D01*
X7429Y126368D01*
X4889Y123828D01*
X7429D01*
X9969Y121288D01*
Y112748D02*
X12509Y115288D01*
X15049D01*
X12509Y117828D01*
X15049Y120368D01*
X12509D01*
X9969Y122908D01*
X7429Y120368D01*
X4889D01*
X7429Y117828D01*
X4889Y115288D01*
X7429D01*
X9969Y112748D01*
Y104208D02*
X12509Y106748D01*
X15049D01*
X12509Y109288D01*
X15049Y111828D01*
X12509D01*
X9969Y114368D01*
X7429Y111828D01*
X4889D01*
X7429Y109288D01*
X4889Y106748D01*
X7429D01*
X9969Y104208D01*
Y95668D02*
X12509Y98208D01*
X15049D01*
X12509Y100748D01*
X15049Y103288D01*
X12509D01*
X9969Y105828D01*
X7429Y103288D01*
X4889D01*
X7429Y100748D01*
X4889Y98208D01*
X7429D01*
X9969Y95668D01*
Y87128D02*
X12509Y89668D01*
X15049D01*
X12509Y92208D01*
X15049Y94748D01*
X12509D01*
X9969Y97288D01*
X7429Y94748D01*
X4889D01*
X7429Y92208D01*
X4889Y89668D01*
X7429D01*
X9969Y87128D01*
Y78588D02*
X12509Y81128D01*
X15049D01*
X12509Y83668D01*
X15049Y86208D01*
X12509D01*
X9969Y88748D01*
X7429Y86208D01*
X4889D01*
X7429Y83668D01*
X4889Y81128D01*
X7429D01*
X9969Y78588D01*
Y70048D02*
X12509Y72589D01*
X15049D01*
X12509Y75128D01*
X15049Y77668D01*
X12509D01*
X9969Y80209D01*
X7429Y77668D01*
X4889D01*
X7429Y75128D01*
X4889Y72589D01*
X7429D01*
X9969Y70048D01*
Y61508D02*
X12509Y64049D01*
X15049D01*
X12509Y66589D01*
X15049Y69128D01*
X12509D01*
X9969Y71669D01*
X7429Y69128D01*
X4889D01*
X7429Y66589D01*
X4889Y64049D01*
X7429D01*
X9969Y61508D01*
Y52969D02*
X12509Y55508D01*
X15049D01*
X12509Y58049D01*
X15049Y60588D01*
X12509D01*
X9969Y63128D01*
X7429Y60588D01*
X4889D01*
X7429Y58049D01*
X4889Y55508D01*
X7429D01*
X9969Y52969D01*
Y44429D02*
X12509Y46968D01*
X15049D01*
X12509Y49509D01*
X15049Y52049D01*
X12509D01*
X9969Y54588D01*
X7429Y52049D01*
X4889D01*
X7429Y49509D01*
X4889Y46968D01*
X7429D01*
X9969Y44429D01*
Y35889D02*
X12509Y38428D01*
X15049D01*
X12509Y40968D01*
X15049Y43509D01*
X12509D01*
X9969Y46048D01*
X7429Y43509D01*
X4889D01*
X7429Y40968D01*
X4889Y38428D01*
X7429D01*
X9969Y35889D01*
Y27348D02*
X12509Y29889D01*
X15049D01*
X12509Y32429D01*
X15049Y34969D01*
X12509D01*
X9969Y37508D01*
X7429Y34969D01*
X4889D01*
X7429Y32429D01*
X4889Y29889D01*
X7429D01*
X9969Y27348D01*
X10886Y18858D02*
X13426Y21398D01*
X15966D01*
X13426Y23938D01*
X15966Y26478D01*
X13426D01*
X10886Y29018D01*
X8346Y26478D01*
X5806D01*
X8346Y23938D01*
X5806Y21398D01*
X8346D01*
X10886Y18858D01*
X14081Y10938D02*
X16621Y13478D01*
X19161D01*
X16621Y16018D01*
X19161Y18558D01*
X16621D01*
X14081Y21098D01*
X11541Y18558D01*
X9001D01*
X11541Y16018D01*
X9001Y13478D01*
X11541D01*
X14081Y10938D01*
X21538Y6776D02*
X24078Y9316D01*
X26618D01*
X24078Y11856D01*
X26618Y14396D01*
X24078D01*
X21538Y16936D01*
X18998Y14396D01*
X16458D01*
X18998Y11856D01*
X16458Y9316D01*
X18998D01*
X21538Y6776D01*
X29864Y4876D02*
X32404Y7416D01*
X34944D01*
X32404Y9956D01*
X34944Y12496D01*
X32404D01*
X29864Y15036D01*
X27324Y12496D01*
X24784D01*
X27324Y9956D01*
X24784Y7416D01*
X27324D01*
X29864Y4876D01*
X38404Y4890D02*
X40944Y7430D01*
X43484D01*
X40944Y9970D01*
X43484Y12510D01*
X40944D01*
X38404Y15050D01*
X35864Y12510D01*
X33324D01*
X35864Y9970D01*
X33324Y7430D01*
X35864D01*
X38404Y4890D01*
X46944D02*
X49484Y7430D01*
X52024D01*
X49484Y9970D01*
X52024Y12510D01*
X49484D01*
X46944Y15050D01*
X44404Y12510D01*
X41864D01*
X44404Y9970D01*
X41864Y7430D01*
X44404D01*
X46944Y4890D01*
X55484D02*
X58024Y7430D01*
X60564D01*
X58024Y9970D01*
X60564Y12510D01*
X58024D01*
X55484Y15050D01*
X52944Y12510D01*
X50404D01*
X52944Y9970D01*
X50404Y7430D01*
X52944D01*
X55484Y4890D01*
X64024D02*
X66564Y7430D01*
X69104D01*
X66564Y9970D01*
X69104Y12510D01*
X66564D01*
X64024Y15050D01*
X61484Y12510D01*
X58944D01*
X61484Y9970D01*
X58944Y7430D01*
X61484D01*
X64024Y4890D01*
X72564D02*
X75104Y7430D01*
X77644D01*
X75104Y9970D01*
X77644Y12510D01*
X75104D01*
X72564Y15050D01*
X70024Y12510D01*
X67484D01*
X70024Y9970D01*
X67484Y7430D01*
X70024D01*
X72564Y4890D01*
X81104D02*
X83644Y7430D01*
X86184D01*
X83644Y9970D01*
X86184Y12510D01*
X83644D01*
X81104Y15050D01*
X78564Y12510D01*
X76024D01*
X78564Y9970D01*
X76024Y7430D01*
X78564D01*
X81104Y4890D01*
X89644D02*
X92184Y7430D01*
X94724D01*
X92184Y9970D01*
X94724Y12510D01*
X92184D01*
X89644Y15050D01*
X87104Y12510D01*
X84564D01*
X87104Y9970D01*
X84564Y7430D01*
X87104D01*
X89644Y4890D01*
X98184D02*
X100724Y7430D01*
X103264D01*
X100724Y9970D01*
X103264Y12510D01*
X100724D01*
X98184Y15050D01*
X95644Y12510D01*
X93104D01*
X95644Y9970D01*
X93104Y7430D01*
X95644D01*
X98184Y4890D01*
X106724D02*
X109264Y7430D01*
X111804D01*
X109264Y9970D01*
X111804Y12510D01*
X109264D01*
X106724Y15050D01*
X104184Y12510D01*
X101644D01*
X104184Y9970D01*
X101644Y7430D01*
X104184D01*
X106724Y4890D01*
X115264D02*
X117804Y7430D01*
X120344D01*
X117804Y9970D01*
X120344Y12510D01*
X117804D01*
X115264Y15050D01*
X112724Y12510D01*
X110184D01*
X112724Y9970D01*
X110184Y7430D01*
X112724D01*
X115264Y4890D01*
X123804D02*
X126344Y7430D01*
X128884D01*
X126344Y9970D01*
X128884Y12510D01*
X126344D01*
X123804Y15050D01*
X121264Y12510D01*
X118724D01*
X121264Y9970D01*
X118724Y7430D01*
X121264D01*
X123804Y4890D01*
X132344D02*
X134884Y7430D01*
X137424D01*
X134884Y9970D01*
X137424Y12510D01*
X134884D01*
X132344Y15050D01*
X129804Y12510D01*
X127264D01*
X129804Y9970D01*
X127264Y7430D01*
X129804D01*
X132344Y4890D01*
X140884D02*
X143424Y7430D01*
X145964D01*
X143424Y9970D01*
X145964Y12510D01*
X143424D01*
X140884Y15050D01*
X138344Y12510D01*
X135804D01*
X138344Y9970D01*
X135804Y7430D01*
X138344D01*
X140884Y4890D01*
X149424D02*
X151964Y7430D01*
X154504D01*
X151964Y9970D01*
X154504Y12510D01*
X151964D01*
X149424Y15050D01*
X146884Y12510D01*
X144344D01*
X146884Y9970D01*
X144344Y7430D01*
X146884D01*
X149424Y4890D01*
X157964D02*
X160504Y7430D01*
X163044D01*
X160504Y9970D01*
X163044Y12510D01*
X160504D01*
X157964Y15050D01*
X155424Y12510D01*
X152884D01*
X155424Y9970D01*
X152884Y7430D01*
X155424D01*
X157964Y4890D01*
X166504D02*
X169044Y7430D01*
X171584D01*
X169044Y9970D01*
X171584Y12510D01*
X169044D01*
X166504Y15050D01*
X163964Y12510D01*
X161424D01*
X163964Y9970D01*
X161424Y7430D01*
X163964D01*
X166504Y4890D01*
X175044D02*
X177584Y7430D01*
X180124D01*
X177584Y9970D01*
X180124Y12510D01*
X177584D01*
X175044Y15050D01*
X172504Y12510D01*
X169964D01*
X172504Y9970D01*
X169964Y7430D01*
X172504D01*
X175044Y4890D01*
X183584D02*
X186124Y7430D01*
X188664D01*
X186124Y9970D01*
X188664Y12510D01*
X186124D01*
X183584Y15050D01*
X181044Y12510D01*
X178504D01*
X181044Y9970D01*
X178504Y7430D01*
X181044D01*
X183584Y4890D01*
X192124D02*
X194664Y7430D01*
X197204D01*
X194664Y9970D01*
X197204Y12510D01*
X194664D01*
X192124Y15050D01*
X189584Y12510D01*
X187044D01*
X189584Y9970D01*
X187044Y7430D01*
X189584D01*
X192124Y4890D01*
X200664D02*
X203204Y7430D01*
X205744D01*
X203204Y9970D01*
X205744Y12510D01*
X203204D01*
X200664Y15050D01*
X198124Y12510D01*
X195584D01*
X198124Y9970D01*
X195584Y7430D01*
X198124D01*
X200664Y4890D01*
X209204D02*
X211744Y7430D01*
X214284D01*
X211744Y9970D01*
X214284Y12510D01*
X211744D01*
X209204Y15050D01*
X206664Y12510D01*
X204124D01*
X206664Y9970D01*
X204124Y7430D01*
X206664D01*
X209204Y4890D01*
X217744D02*
X220284Y7430D01*
X222824D01*
X220284Y9970D01*
X222824Y12510D01*
X220284D01*
X217744Y15050D01*
X215204Y12510D01*
X212664D01*
X215204Y9970D01*
X212664Y7430D01*
X215204D01*
X217744Y4890D01*
X226284D02*
X228824Y7430D01*
X231364D01*
X228824Y9970D01*
X231364Y12510D01*
X228824D01*
X226284Y15050D01*
X223744Y12510D01*
X221204D01*
X223744Y9970D01*
X221204Y7430D01*
X223744D01*
X226284Y4890D01*
X234824D02*
X237364Y7430D01*
X239904D01*
X237364Y9970D01*
X239904Y12510D01*
X237364D01*
X234824Y15050D01*
X232284Y12510D01*
X229744D01*
X232284Y9970D01*
X229744Y7430D01*
X232284D01*
X234824Y4890D01*
X243364D02*
X245904Y7430D01*
X248444D01*
X245904Y9970D01*
X248444Y12510D01*
X245904D01*
X243364Y15050D01*
X240824Y12510D01*
X238284D01*
X240824Y9970D01*
X238284Y7430D01*
X240824D01*
X243364Y4890D01*
X251904D02*
X254444Y7430D01*
X256984D01*
X254444Y9970D01*
X256984Y12510D01*
X254444D01*
X251904Y15050D01*
X249364Y12510D01*
X246824D01*
X249364Y9970D01*
X246824Y7430D01*
X249364D01*
X251904Y4890D01*
X260444D02*
X262984Y7430D01*
X265524D01*
X262984Y9970D01*
X265524Y12510D01*
X262984D01*
X260444Y15050D01*
X257904Y12510D01*
X255364D01*
X257904Y9970D01*
X255364Y7430D01*
X257904D01*
X260444Y4890D01*
X268984D02*
X271524Y7430D01*
X274064D01*
X271524Y9970D01*
X274064Y12510D01*
X271524D01*
X268984Y15050D01*
X266444Y12510D01*
X263904D01*
X266444Y9970D01*
X263904Y7430D01*
X266444D01*
X268984Y4890D01*
X277524D02*
X280064Y7430D01*
X282604D01*
X280064Y9970D01*
X282604Y12510D01*
X280064D01*
X277524Y15050D01*
X274984Y12510D01*
X272444D01*
X274984Y9970D01*
X272444Y7430D01*
X274984D01*
X277524Y4890D01*
X286064D02*
X288604Y7430D01*
X291144D01*
X288604Y9970D01*
X291144Y12510D01*
X288604D01*
X286064Y15050D01*
X283524Y12510D01*
X280984D01*
X283524Y9970D01*
X280984Y7430D01*
X283524D01*
X286064Y4890D01*
X294604D02*
X297144Y7430D01*
X299684D01*
X297144Y9970D01*
X299684Y12510D01*
X297144D01*
X294604Y15050D01*
X292064Y12510D01*
X289524D01*
X292064Y9970D01*
X289524Y7430D01*
X292064D01*
X294604Y4890D01*
X303144D02*
X305684Y7430D01*
X308224D01*
X305684Y9970D01*
X308224Y12510D01*
X305684D01*
X303144Y15050D01*
X300604Y12510D01*
X298064D01*
X300604Y9970D01*
X298064Y7430D01*
X300604D01*
X303144Y4890D01*
X311684D02*
X314224Y7430D01*
X316764D01*
X314224Y9970D01*
X316764Y12510D01*
X314224D01*
X311684Y15050D01*
X309144Y12510D01*
X306604D01*
X309144Y9970D01*
X306604Y7430D01*
X309144D01*
X311684Y4890D01*
X320224D02*
X322764Y7430D01*
X325304D01*
X322764Y9970D01*
X325304Y12510D01*
X322764D01*
X320224Y15050D01*
X317684Y12510D01*
X315144D01*
X317684Y9970D01*
X315144Y7430D01*
X317684D01*
X320224Y4890D01*
X328764D02*
X331304Y7430D01*
X333844D01*
X331304Y9970D01*
X333844Y12510D01*
X331304D01*
X328764Y15050D01*
X326224Y12510D01*
X323684D01*
X326224Y9970D01*
X323684Y7430D01*
X326224D01*
X328764Y4890D01*
X337304D02*
X339844Y7430D01*
X342384D01*
X339844Y9970D01*
X342384Y12510D01*
X339844D01*
X337304Y15050D01*
X334764Y12510D01*
X332224D01*
X334764Y9970D01*
X332224Y7430D01*
X334764D01*
X337304Y4890D01*
X345844D02*
X348384Y7430D01*
X350924D01*
X348384Y9970D01*
X350924Y12510D01*
X348384D01*
X345844Y15050D01*
X343304Y12510D01*
X340764D01*
X343304Y9970D01*
X340764Y7430D01*
X343304D01*
X345844Y4890D01*
X354384D02*
X356924Y7430D01*
X359464D01*
X356924Y9970D01*
X359464Y12510D01*
X356924D01*
X354384Y15050D01*
X351844Y12510D01*
X349304D01*
X351844Y9970D01*
X349304Y7430D01*
X351844D01*
X354384Y4890D01*
X362924D02*
X365464Y7430D01*
X368004D01*
X365464Y9970D01*
X368004Y12510D01*
X365464D01*
X362924Y15050D01*
X360384Y12510D01*
X357844D01*
X360384Y9970D01*
X357844Y7430D01*
X360384D01*
X362924Y4890D01*
X371464D02*
X374003Y7430D01*
X376544D01*
X374003Y9970D01*
X376544Y12510D01*
X374003D01*
X371464Y15050D01*
X368923Y12510D01*
X366384D01*
X368923Y9970D01*
X366384Y7430D01*
X368923D01*
X371464Y4890D01*
X380004D02*
X382543Y7430D01*
X385084D01*
X382543Y9970D01*
X385084Y12510D01*
X382543D01*
X380004Y15050D01*
X377463Y12510D01*
X374924D01*
X377463Y9970D01*
X374924Y7430D01*
X377463D01*
X380004Y4890D01*
X388544D02*
X391083Y7430D01*
X393624D01*
X391083Y9970D01*
X393624Y12510D01*
X391083D01*
X388544Y15050D01*
X386003Y12510D01*
X383464D01*
X386003Y9970D01*
X383464Y7430D01*
X386003D01*
X388544Y4890D01*
X397084D02*
X399623Y7430D01*
X402164D01*
X399623Y9970D01*
X402164Y12510D01*
X399623D01*
X397084Y15050D01*
X394543Y12510D01*
X392004D01*
X394543Y9970D01*
X392004Y7430D01*
X394543D01*
X397084Y4890D01*
X405624D02*
X408163Y7430D01*
X410704D01*
X408163Y9970D01*
X410704Y12510D01*
X408163D01*
X405624Y15050D01*
X403083Y12510D01*
X400544D01*
X403083Y9970D01*
X400544Y7430D01*
X403083D01*
X405624Y4890D01*
X414164D02*
X416703Y7430D01*
X419244D01*
X416703Y9970D01*
X419244Y12510D01*
X416703D01*
X414164Y15050D01*
X411623Y12510D01*
X409084D01*
X411623Y9970D01*
X409084Y7430D01*
X411623D01*
X414164Y4890D01*
X422704D02*
X425243Y7430D01*
X427784D01*
X425243Y9970D01*
X427784Y12510D01*
X425243D01*
X422704Y15050D01*
X420163Y12510D01*
X417623D01*
X420163Y9970D01*
X417623Y7430D01*
X420163D01*
X422704Y4890D01*
X431244D02*
X433783Y7430D01*
X436324D01*
X433783Y9970D01*
X436324Y12510D01*
X433783D01*
X431244Y15050D01*
X428703Y12510D01*
X426163D01*
X428703Y9970D01*
X426163Y7430D01*
X428703D01*
X431244Y4890D01*
X439783D02*
X442323Y7430D01*
X444863D01*
X442323Y9970D01*
X444863Y12510D01*
X442323D01*
X439783Y15050D01*
X437243Y12510D01*
X434703D01*
X437243Y9970D01*
X434703Y7430D01*
X437243D01*
X439783Y4890D01*
X448323D02*
X450863Y7430D01*
X453403D01*
X450863Y9970D01*
X453403Y12510D01*
X450863D01*
X448323Y15050D01*
X445783Y12510D01*
X443243D01*
X445783Y9970D01*
X443243Y7430D01*
X445783D01*
X448323Y4890D01*
X456863D02*
X459403Y7430D01*
X461943D01*
X459403Y9970D01*
X461943Y12510D01*
X459403D01*
X456863Y15050D01*
X454323Y12510D01*
X451783D01*
X454323Y9970D01*
X451783Y7430D01*
X454323D01*
X456863Y4890D01*
X465403D02*
X467943Y7430D01*
X470483D01*
X467943Y9970D01*
X470483Y12510D01*
X467943D01*
X465403Y15050D01*
X462863Y12510D01*
X460323D01*
X462863Y9970D01*
X460323Y7430D01*
X462863D01*
X465403Y4890D01*
X473943D02*
X476483Y7430D01*
X479023D01*
X476483Y9970D01*
X479023Y12510D01*
X476483D01*
X473943Y15050D01*
X471403Y12510D01*
X468863D01*
X471403Y9970D01*
X468863Y7430D01*
X471403D01*
X473943Y4890D01*
X482483D02*
X485023Y7430D01*
X487563D01*
X485023Y9970D01*
X487563Y12510D01*
X485023D01*
X482483Y15050D01*
X479943Y12510D01*
X477403D01*
X479943Y9970D01*
X477403Y7430D01*
X479943D01*
X482483Y4890D01*
X491023D02*
X493563Y7430D01*
X496103D01*
X493563Y9970D01*
X496103Y12510D01*
X493563D01*
X491023Y15050D01*
X488483Y12510D01*
X485943D01*
X488483Y9970D01*
X485943Y7430D01*
X488483D01*
X491023Y4890D01*
X499563D02*
X502103Y7430D01*
X504643D01*
X502103Y9970D01*
X504643Y12510D01*
X502103D01*
X499563Y15050D01*
X497023Y12510D01*
X494483D01*
X497023Y9970D01*
X494483Y7430D01*
X497023D01*
X499563Y4890D01*
X508103D02*
X510643Y7430D01*
X513183D01*
X510643Y9970D01*
X513183Y12510D01*
X510643D01*
X508103Y15050D01*
X505563Y12510D01*
X503023D01*
X505563Y9970D01*
X503023Y7430D01*
X505563D01*
X508103Y4890D01*
X516643D02*
X519183Y7430D01*
X521723D01*
X519183Y9970D01*
X521723Y12510D01*
X519183D01*
X516643Y15050D01*
X514103Y12510D01*
X511563D01*
X514103Y9970D01*
X511563Y7430D01*
X514103D01*
X516643Y4890D01*
X525183D02*
X527723Y7430D01*
X530263D01*
X527723Y9970D01*
X530263Y12510D01*
X527723D01*
X525183Y15050D01*
X522643Y12510D01*
X520103D01*
X522643Y9970D01*
X520103Y7430D01*
X522643D01*
X525183Y4890D01*
X533723D02*
X536263Y7430D01*
X538803D01*
X536263Y9970D01*
X538803Y12510D01*
X536263D01*
X533723Y15050D01*
X531183Y12510D01*
X528643D01*
X531183Y9970D01*
X528643Y7430D01*
X531183D01*
X533723Y4890D01*
X542263D02*
X544803Y7430D01*
X547343D01*
X544803Y9970D01*
X547343Y12510D01*
X544803D01*
X542263Y15050D01*
X539723Y12510D01*
X537183D01*
X539723Y9970D01*
X537183Y7430D01*
X539723D01*
X542263Y4890D01*
X550803D02*
X553343Y7430D01*
X555883D01*
X553343Y9970D01*
X555883Y12510D01*
X553343D01*
X550803Y15050D01*
X548263Y12510D01*
X545723D01*
X548263Y9970D01*
X545723Y7430D01*
X548263D01*
X550803Y4890D01*
X559343D02*
X561883Y7430D01*
X564423D01*
X561883Y9970D01*
X564423Y12510D01*
X561883D01*
X559343Y15050D01*
X556803Y12510D01*
X554263D01*
X556803Y9970D01*
X554263Y7430D01*
X556803D01*
X559343Y4890D01*
X567883D02*
X570423Y7430D01*
X572963D01*
X570423Y9970D01*
X572963Y12510D01*
X570423D01*
X567883Y15050D01*
X565343Y12510D01*
X562803D01*
X565343Y9970D01*
X562803Y7430D01*
X565343D01*
X567883Y4890D01*
X576423D02*
X578963Y7430D01*
X581503D01*
X578963Y9970D01*
X581503Y12510D01*
X578963D01*
X576423Y15050D01*
X573883Y12510D01*
X571343D01*
X573883Y9970D01*
X571343Y7430D01*
X573883D01*
X576423Y4890D01*
X584963D02*
X587503Y7430D01*
X590043D01*
X587503Y9970D01*
X590043Y12510D01*
X587503D01*
X584963Y15050D01*
X582423Y12510D01*
X579883D01*
X582423Y9970D01*
X579883Y7430D01*
X582423D01*
X584963Y4890D01*
X593503D02*
X596043Y7430D01*
X598583D01*
X596043Y9970D01*
X598583Y12510D01*
X596043D01*
X593503Y15050D01*
X590963Y12510D01*
X588423D01*
X590963Y9970D01*
X588423Y7430D01*
X590963D01*
X593503Y4890D01*
X602043D02*
X604583Y7430D01*
X607123D01*
X604583Y9970D01*
X607123Y12510D01*
X604583D01*
X602043Y15050D01*
X599503Y12510D01*
X596963D01*
X599503Y9970D01*
X596963Y7430D01*
X599503D01*
X602043Y4890D01*
X610583D02*
X613123Y7430D01*
X615663D01*
X613123Y9970D01*
X615663Y12510D01*
X613123D01*
X610583Y15050D01*
X608043Y12510D01*
X605503D01*
X608043Y9970D01*
X605503Y7430D01*
X608043D01*
X610583Y4890D01*
X619123D02*
X621663Y7430D01*
X624203D01*
X621663Y9970D01*
X624203Y12510D01*
X621663D01*
X619123Y15050D01*
X616583Y12510D01*
X614043D01*
X616583Y9970D01*
X614043Y7430D01*
X616583D01*
X619123Y4890D01*
X627663D02*
X630203Y7430D01*
X632743D01*
X630203Y9970D01*
X632743Y12510D01*
X630203D01*
X627663Y15050D01*
X625123Y12510D01*
X622583D01*
X625123Y9970D01*
X622583Y7430D01*
X625123D01*
X627663Y4890D01*
X636203D02*
X638743Y7430D01*
X641283D01*
X638743Y9970D01*
X641283Y12510D01*
X638743D01*
X636203Y15050D01*
X633663Y12510D01*
X631123D01*
X633663Y9970D01*
X631123Y7430D01*
X633663D01*
X636203Y4890D01*
X644743D02*
X647283Y7430D01*
X649823D01*
X647283Y9970D01*
X649823Y12510D01*
X647283D01*
X644743Y15050D01*
X642203Y12510D01*
X639663D01*
X642203Y9970D01*
X639663Y7430D01*
X642203D01*
X644743Y4890D01*
X653283D02*
X655823Y7430D01*
X658363D01*
X655823Y9970D01*
X658363Y12510D01*
X655823D01*
X653283Y15050D01*
X650743Y12510D01*
X648203D01*
X650743Y9970D01*
X648203Y7430D01*
X650743D01*
X653283Y4890D01*
X661823D02*
X664363Y7430D01*
X666903D01*
X664363Y9970D01*
X666903Y12510D01*
X664363D01*
X661823Y15050D01*
X659283Y12510D01*
X656743D01*
X659283Y9970D01*
X656743Y7430D01*
X659283D01*
X661823Y4890D01*
X670363D02*
X672903Y7430D01*
X675443D01*
X672903Y9970D01*
X675443Y12510D01*
X672903D01*
X670363Y15050D01*
X667823Y12510D01*
X665283D01*
X667823Y9970D01*
X665283Y7430D01*
X667823D01*
X670363Y4890D01*
X678903D02*
X681443Y7430D01*
X683983D01*
X681443Y9970D01*
X683983Y12510D01*
X681443D01*
X678903Y15050D01*
X676363Y12510D01*
X673823D01*
X676363Y9970D01*
X673823Y7430D01*
X676363D01*
X678903Y4890D01*
X687443D02*
X689983Y7430D01*
X692523D01*
X689983Y9970D01*
X692523Y12510D01*
X689983D01*
X687443Y15050D01*
X684903Y12510D01*
X682363D01*
X684903Y9970D01*
X682363Y7430D01*
X684903D01*
X687443Y4890D01*
X695983D02*
X698523Y7430D01*
X701063D01*
X698523Y9970D01*
X701063Y12510D01*
X698523D01*
X695983Y15050D01*
X693443Y12510D01*
X690903D01*
X693443Y9970D01*
X690903Y7430D01*
X693443D01*
X695983Y4890D01*
X704523D02*
X707063Y7430D01*
X709603D01*
X707063Y9970D01*
X709603Y12510D01*
X707063D01*
X704523Y15050D01*
X701983Y12510D01*
X699443D01*
X701983Y9970D01*
X699443Y7430D01*
X701983D01*
X704523Y4890D01*
X713063D02*
X715603Y7430D01*
X718143D01*
X715603Y9970D01*
X718143Y12510D01*
X715603D01*
X713063Y15050D01*
X710523Y12510D01*
X707983D01*
X710523Y9970D01*
X707983Y7430D01*
X710523D01*
X713063Y4890D01*
X721603D02*
X724143Y7430D01*
X726683D01*
X724143Y9970D01*
X726683Y12510D01*
X724143D01*
X721603Y15050D01*
X719063Y12510D01*
X716523D01*
X719063Y9970D01*
X716523Y7430D01*
X719063D01*
X721603Y4890D01*
X730143D02*
X732683Y7430D01*
X735223D01*
X732683Y9970D01*
X735223Y12510D01*
X732683D01*
X730143Y15050D01*
X727603Y12510D01*
X725063D01*
X727603Y9970D01*
X725063Y7430D01*
X727603D01*
X730143Y4890D01*
X738683D02*
X741223Y7430D01*
X743763D01*
X741223Y9970D01*
X743763Y12510D01*
X741223D01*
X738683Y15050D01*
X736143Y12510D01*
X733603D01*
X736143Y9970D01*
X733603Y7430D01*
X736143D01*
X738683Y4890D01*
X747223D02*
X749763Y7430D01*
X752303D01*
X749763Y9970D01*
X752303Y12510D01*
X749763D01*
X747223Y15050D01*
X744683Y12510D01*
X742143D01*
X744683Y9970D01*
X742143Y7430D01*
X744683D01*
X747223Y4890D01*
X755763D02*
X758303Y7430D01*
X760843D01*
X758303Y9970D01*
X760843Y12510D01*
X758303D01*
X755763Y15050D01*
X753223Y12510D01*
X750683D01*
X753223Y9970D01*
X750683Y7430D01*
X753223D01*
X755763Y4890D01*
X764303D02*
X766843Y7430D01*
X769383D01*
X766843Y9970D01*
X769383Y12510D01*
X766843D01*
X764303Y15050D01*
X761763Y12510D01*
X759223D01*
X761763Y9970D01*
X759223Y7430D01*
X761763D01*
X764303Y4890D01*
X772843D02*
X775383Y7430D01*
X777923D01*
X775383Y9970D01*
X777923Y12510D01*
X775383D01*
X772843Y15050D01*
X770303Y12510D01*
X767763D01*
X770303Y9970D01*
X767763Y7430D01*
X770303D01*
X772843Y4890D01*
X781383D02*
X783923Y7430D01*
X786463D01*
X783923Y9970D01*
X786463Y12510D01*
X783923D01*
X781383Y15050D01*
X778843Y12510D01*
X776303D01*
X778843Y9970D01*
X776303Y7430D01*
X778843D01*
X781383Y4890D01*
X789923D02*
X792463Y7430D01*
X795003D01*
X792463Y9970D01*
X795003Y12510D01*
X792463D01*
X789923Y15050D01*
X787383Y12510D01*
X784843D01*
X787383Y9970D01*
X784843Y7430D01*
X787383D01*
X789923Y4890D01*
X798270Y6696D02*
X800810Y9236D01*
X803350D01*
X800810Y11776D01*
X803350Y14316D01*
X800810D01*
X798270Y16856D01*
X795730Y14316D01*
X793190D01*
X795730Y11776D01*
X793190Y9236D01*
X795730D01*
X798270Y6696D01*
X805108Y11812D02*
X807648Y14352D01*
X810188D01*
X807648Y16892D01*
X810188Y19432D01*
X807648D01*
X805108Y21972D01*
X802568Y19432D01*
X800028D01*
X802568Y16892D01*
X800028Y14352D01*
X802568D01*
X805108Y11812D01*
X809220Y19297D02*
X811760Y21837D01*
X814300D01*
X811760Y24377D01*
X814300Y26917D01*
X811760D01*
X809220Y29457D01*
X806680Y26917D01*
X804140D01*
X806680Y24377D01*
X804140Y21837D01*
X806680D01*
X809220Y19297D01*
X810030Y27798D02*
X812570Y30338D01*
X815110D01*
X812570Y32878D01*
X815110Y35418D01*
X812570D01*
X810030Y37958D01*
X807490Y35418D01*
X804950D01*
X807490Y32878D01*
X804950Y30338D01*
X807490D01*
X810030Y27798D01*
Y36338D02*
X812570Y38878D01*
X815110D01*
X812570Y41418D01*
X815110Y43958D01*
X812570D01*
X810030Y46498D01*
X807490Y43958D01*
X804950D01*
X807490Y41418D01*
X804950Y38878D01*
X807490D01*
X810030Y36338D01*
Y44878D02*
X812570Y47418D01*
X815110D01*
X812570Y49958D01*
X815110Y52498D01*
X812570D01*
X810030Y55038D01*
X807490Y52498D01*
X804950D01*
X807490Y49958D01*
X804950Y47418D01*
X807490D01*
X810030Y44878D01*
Y53418D02*
X812570Y55958D01*
X815110D01*
X812570Y58498D01*
X815110Y61038D01*
X812570D01*
X810030Y63578D01*
X807490Y61038D01*
X804950D01*
X807490Y58498D01*
X804950Y55958D01*
X807490D01*
X810030Y53418D01*
Y61958D02*
X812570Y64498D01*
X815110D01*
X812570Y67038D01*
X815110Y69578D01*
X812570D01*
X810030Y72118D01*
X807490Y69578D01*
X804950D01*
X807490Y67038D01*
X804950Y64498D01*
X807490D01*
X810030Y61958D01*
Y70498D02*
X812570Y73038D01*
X815110D01*
X812570Y75578D01*
X815110Y78118D01*
X812570D01*
X810030Y80658D01*
X807490Y78118D01*
X804950D01*
X807490Y75578D01*
X804950Y73038D01*
X807490D01*
X810030Y70498D01*
Y79038D02*
X812570Y81578D01*
X815110D01*
X812570Y84118D01*
X815110Y86658D01*
X812570D01*
X810030Y89198D01*
X807490Y86658D01*
X804950D01*
X807490Y84118D01*
X804950Y81578D01*
X807490D01*
X810030Y79038D01*
Y87578D02*
X812570Y90118D01*
X815110D01*
X812570Y92658D01*
X815110Y95198D01*
X812570D01*
X810030Y97738D01*
X807490Y95198D01*
X804950D01*
X807490Y92658D01*
X804950Y90118D01*
X807490D01*
X810030Y87578D01*
Y96118D02*
X812570Y98658D01*
X815110D01*
X812570Y101198D01*
X815110Y103738D01*
X812570D01*
X810030Y106278D01*
X807490Y103738D01*
X804950D01*
X807490Y101198D01*
X804950Y98658D01*
X807490D01*
X810030Y96118D01*
Y104658D02*
X812570Y107198D01*
X815110D01*
X812570Y109738D01*
X815110Y112278D01*
X812570D01*
X810030Y114818D01*
X807490Y112278D01*
X804950D01*
X807490Y109738D01*
X804950Y107198D01*
X807490D01*
X810030Y104658D01*
Y113198D02*
X812570Y115738D01*
X815110D01*
X812570Y118278D01*
X815110Y120818D01*
X812570D01*
X810030Y123358D01*
X807490Y120818D01*
X804950D01*
X807490Y118278D01*
X804950Y115738D01*
X807490D01*
X810030Y113198D01*
Y121738D02*
X812570Y124278D01*
X815110D01*
X812570Y126818D01*
X815110Y129358D01*
X812570D01*
X810030Y131898D01*
X807490Y129358D01*
X804950D01*
X807490Y126818D01*
X804950Y124278D01*
X807490D01*
X810030Y121738D01*
Y130278D02*
X812570Y132818D01*
X815110D01*
X812570Y135358D01*
X815110Y137898D01*
X812570D01*
X810030Y140438D01*
X807490Y137898D01*
X804950D01*
X807490Y135358D01*
X804950Y132818D01*
X807490D01*
X810030Y130278D01*
Y138818D02*
X812570Y141358D01*
X815110D01*
X812570Y143898D01*
X815110Y146438D01*
X812570D01*
X810030Y148978D01*
X807490Y146438D01*
X804950D01*
X807490Y143898D01*
X804950Y141358D01*
X807490D01*
X810030Y138818D01*
Y147358D02*
X812570Y149898D01*
X815110D01*
X812570Y152438D01*
X815110Y154978D01*
X812570D01*
X810030Y157518D01*
X807490Y154978D01*
X804950D01*
X807490Y152438D01*
X804950Y149898D01*
X807490D01*
X810030Y147358D01*
Y155898D02*
X812570Y158438D01*
X815110D01*
X812570Y160978D01*
X815110Y163518D01*
X812570D01*
X810030Y166058D01*
X807490Y163518D01*
X804950D01*
X807490Y160978D01*
X804950Y158438D01*
X807490D01*
X810030Y155898D01*
Y164438D02*
X812570Y166978D01*
X815110D01*
X812570Y169518D01*
X815110Y172058D01*
X812570D01*
X810030Y174598D01*
X807490Y172058D01*
X804950D01*
X807490Y169518D01*
X804950Y166978D01*
X807490D01*
X810030Y164438D01*
X810030Y172978D02*
X812570Y175518D01*
X815110D01*
X812570Y178058D01*
X815110Y180598D01*
X812570D01*
X810030Y183138D01*
X807490Y180598D01*
X804950D01*
X807490Y178058D01*
X804950Y175518D01*
X807490D01*
X810030Y172978D01*
Y181518D02*
X812570Y184058D01*
X815110D01*
X812570Y186598D01*
X815110Y189138D01*
X812570D01*
X810030Y191678D01*
X807490Y189138D01*
X804950D01*
X807490Y186598D01*
X804950Y184058D01*
X807490D01*
X810030Y181518D01*
Y190058D02*
X812570Y192598D01*
X815110D01*
X812570Y195138D01*
X815110Y197678D01*
X812570D01*
X810030Y200218D01*
X807490Y197678D01*
X804950D01*
X807490Y195138D01*
X804950Y192598D01*
X807490D01*
X810030Y190058D01*
Y198598D02*
X812570Y201138D01*
X815110D01*
X812570Y203678D01*
X815110Y206218D01*
X812570D01*
X810030Y208758D01*
X807490Y206218D01*
X804950D01*
X807490Y203678D01*
X804950Y201138D01*
X807490D01*
X810030Y198598D01*
Y207138D02*
X812570Y209678D01*
X815110D01*
X812570Y212218D01*
X815110Y214758D01*
X812570D01*
X810030Y217298D01*
X807490Y214758D01*
X804950D01*
X807490Y212218D01*
X804950Y209678D01*
X807490D01*
X810030Y207138D01*
Y215678D02*
X812570Y218218D01*
X815110D01*
X812570Y220758D01*
X815110Y223298D01*
X812570D01*
X810030Y225838D01*
X807490Y223298D01*
X804950D01*
X807490Y220758D01*
X804950Y218218D01*
X807490D01*
X810030Y215678D01*
Y224218D02*
X812570Y226758D01*
X815110D01*
X812570Y229298D01*
X815110Y231838D01*
X812570D01*
X810030Y234378D01*
X807490Y231838D01*
X804950D01*
X807490Y229298D01*
X804950Y226758D01*
X807490D01*
X810030Y224218D01*
Y232758D02*
X812570Y235298D01*
X815110D01*
X812570Y237838D01*
X815110Y240378D01*
X812570D01*
X810030Y242918D01*
X807490Y240378D01*
X804950D01*
X807490Y237838D01*
X804950Y235298D01*
X807490D01*
X810030Y232758D01*
Y241298D02*
X812570Y243838D01*
X815110D01*
X812570Y246378D01*
X815110Y248918D01*
X812570D01*
X810030Y251458D01*
X807490Y248918D01*
X804950D01*
X807490Y246378D01*
X804950Y243838D01*
X807490D01*
X810030Y241298D01*
Y249838D02*
X812570Y252378D01*
X815110D01*
X812570Y254918D01*
X815110Y257458D01*
X812570D01*
X810030Y259998D01*
X807490Y257458D01*
X804950D01*
X807490Y254918D01*
X804950Y252378D01*
X807490D01*
X810030Y249838D01*
Y258378D02*
X812570Y260918D01*
X815110D01*
X812570Y263458D01*
X815110Y265998D01*
X812570D01*
X810030Y268538D01*
X807490Y265998D01*
X804950D01*
X807490Y263458D01*
X804950Y260918D01*
X807490D01*
X810030Y258378D01*
Y266918D02*
X812570Y269458D01*
X815110D01*
X812570Y271998D01*
X815110Y274538D01*
X812570D01*
X810030Y277078D01*
X807490Y274538D01*
X804950D01*
X807490Y271998D01*
X804950Y269458D01*
X807490D01*
X810030Y266918D01*
Y275458D02*
X812570Y277998D01*
X815110D01*
X812570Y280538D01*
X815110Y283078D01*
X812570D01*
X810030Y285618D01*
X807490Y283078D01*
X804950D01*
X807490Y280538D01*
X804950Y277998D01*
X807490D01*
X810030Y275458D01*
Y283998D02*
X812570Y286538D01*
X815110D01*
X812570Y289078D01*
X815110Y291618D01*
X812570D01*
X810030Y294158D01*
X807490Y291618D01*
X804950D01*
X807490Y289078D01*
X804950Y286538D01*
X807490D01*
X810030Y283998D01*
Y292538D02*
X812570Y295078D01*
X815110D01*
X812570Y297618D01*
X815110Y300158D01*
X812570D01*
X810030Y302698D01*
X807490Y300158D01*
X804950D01*
X807490Y297618D01*
X804950Y295078D01*
X807490D01*
X810030Y292538D01*
Y301078D02*
X812570Y303618D01*
X815110D01*
X812570Y306158D01*
X815110Y308698D01*
X812570D01*
X810030Y311238D01*
X807490Y308698D01*
X804950D01*
X807490Y306158D01*
X804950Y303618D01*
X807490D01*
X810030Y301078D01*
Y309618D02*
X812570Y312158D01*
X815110D01*
X812570Y314698D01*
X815110Y317238D01*
X812570D01*
X810030Y319778D01*
X807490Y317238D01*
X804950D01*
X807490Y314698D01*
X804950Y312158D01*
X807490D01*
X810030Y309618D01*
Y318158D02*
X812570Y320698D01*
X815110D01*
X812570Y323238D01*
X815110Y325778D01*
X812570D01*
X810030Y328318D01*
X807490Y325778D01*
X804950D01*
X807490Y323238D01*
X804950Y320698D01*
X807490D01*
X810030Y318158D01*
X810030Y326698D02*
X812570Y329238D01*
X815110D01*
X812570Y331778D01*
X815110Y334318D01*
X812570D01*
X810030Y336858D01*
X807490Y334318D01*
X804950D01*
X807490Y331778D01*
X804950Y329238D01*
X807490D01*
X810030Y326698D01*
Y335238D02*
X812570Y337778D01*
X815110D01*
X812570Y340318D01*
X815110Y342858D01*
X812570D01*
X810030Y345398D01*
X807490Y342858D01*
X804950D01*
X807490Y340318D01*
X804950Y337778D01*
X807490D01*
X810030Y335238D01*
Y343778D02*
X812570Y346318D01*
X815110D01*
X812570Y348858D01*
X815110Y351398D01*
X812570D01*
X810030Y353938D01*
X807490Y351398D01*
X804950D01*
X807490Y348858D01*
X804950Y346318D01*
X807490D01*
X810030Y343778D01*
Y352318D02*
X812570Y354858D01*
X815110D01*
X812570Y357398D01*
X815110Y359938D01*
X812570D01*
X810030Y362478D01*
X807490Y359938D01*
X804950D01*
X807490Y357398D01*
X804950Y354858D01*
X807490D01*
X810030Y352318D01*
Y360858D02*
X812570Y363398D01*
X815110D01*
X812570Y365938D01*
X815110Y368478D01*
X812570D01*
X810030Y371018D01*
X807490Y368478D01*
X804950D01*
X807490Y365938D01*
X804950Y363398D01*
X807490D01*
X810030Y360858D01*
Y369398D02*
X812570Y371938D01*
X815110D01*
X812570Y374478D01*
X815110Y377018D01*
X812570D01*
X810030Y379558D01*
X807490Y377018D01*
X804950D01*
X807490Y374478D01*
X804950Y371938D01*
X807490D01*
X810030Y369398D01*
Y377938D02*
X812570Y380478D01*
X815110D01*
X812570Y383018D01*
X815110Y385558D01*
X812570D01*
X810030Y388098D01*
X807490Y385558D01*
X804950D01*
X807490Y383018D01*
X804950Y380478D01*
X807490D01*
X810030Y377938D01*
Y386478D02*
X812570Y389018D01*
X815110D01*
X812570Y391558D01*
X815110Y394098D01*
X812570D01*
X810030Y396638D01*
X807490Y394098D01*
X804950D01*
X807490Y391558D01*
X804950Y389018D01*
X807490D01*
X810030Y386478D01*
Y395018D02*
X812570Y397557D01*
X815110D01*
X812570Y400098D01*
X815110Y402637D01*
X812570D01*
X810030Y405177D01*
X807490Y402637D01*
X804950D01*
X807490Y400098D01*
X804950Y397557D01*
X807490D01*
X810030Y395018D01*
Y403558D02*
X812570Y406097D01*
X815110D01*
X812570Y408638D01*
X815110Y411177D01*
X812570D01*
X810030Y413717D01*
X807490Y411177D01*
X804950D01*
X807490Y408638D01*
X804950Y406097D01*
X807490D01*
X810030Y403558D01*
Y412098D02*
X812570Y414637D01*
X815110D01*
X812570Y417178D01*
X815110Y419717D01*
X812570D01*
X810030Y422257D01*
X807490Y419717D01*
X804950D01*
X807490Y417178D01*
X804950Y414637D01*
X807490D01*
X810030Y412098D01*
Y420638D02*
X812570Y423177D01*
X815110D01*
X812570Y425718D01*
X815110Y428257D01*
X812570D01*
X810030Y430798D01*
X807490Y428257D01*
X804950D01*
X807490Y425718D01*
X804950Y423177D01*
X807490D01*
X810030Y420638D01*
Y429178D02*
X812570Y431717D01*
X815110D01*
X812570Y434258D01*
X815110Y436797D01*
X812570D01*
X810030Y439338D01*
X807490Y436797D01*
X804950D01*
X807490Y434258D01*
X804950Y431717D01*
X807490D01*
X810030Y429178D01*
Y437718D02*
X812570Y440257D01*
X815110D01*
X812570Y442798D01*
X815110Y445337D01*
X812570D01*
X810030Y447878D01*
X807490Y445337D01*
X804950D01*
X807490Y442798D01*
X804950Y440257D01*
X807490D01*
X810030Y437718D01*
Y446258D02*
X812570Y448797D01*
X815110D01*
X812570Y451338D01*
X815110Y453877D01*
X812570D01*
X810030Y456418D01*
X807490Y453877D01*
X804950D01*
X807490Y451338D01*
X804950Y448797D01*
X807490D01*
X810030Y446258D01*
Y454798D02*
X812570Y457337D01*
X815110D01*
X812570Y459878D01*
X815110Y462417D01*
X812570D01*
X810030Y464958D01*
X807490Y462417D01*
X804950D01*
X807490Y459878D01*
X804950Y457337D01*
X807490D01*
X810030Y454798D01*
Y463338D02*
X812570Y465877D01*
X815110D01*
X812570Y468418D01*
X815110Y470957D01*
X812570D01*
X810030Y473498D01*
X807490Y470957D01*
X804950D01*
X807490Y468418D01*
X804950Y465877D01*
X807490D01*
X810030Y463338D01*
X810030Y471877D02*
X812570Y474417D01*
X815110D01*
X812570Y476957D01*
X815110Y479497D01*
X812570D01*
X810030Y482037D01*
X807490Y479497D01*
X804950D01*
X807490Y476957D01*
X804950Y474417D01*
X807490D01*
X810030Y471877D01*
Y480417D02*
X812570Y482957D01*
X815110D01*
X812570Y485497D01*
X815110Y488037D01*
X812570D01*
X810030Y490577D01*
X807490Y488037D01*
X804950D01*
X807490Y485497D01*
X804950Y482957D01*
X807490D01*
X810030Y480417D01*
Y488957D02*
X812570Y491497D01*
X815110D01*
X812570Y494037D01*
X815110Y496577D01*
X812570D01*
X810030Y499117D01*
X807490Y496577D01*
X804950D01*
X807490Y494037D01*
X804950Y491497D01*
X807490D01*
X810030Y488957D01*
Y497497D02*
X812570Y500037D01*
X815110D01*
X812570Y502577D01*
X815110Y505117D01*
X812570D01*
X810030Y507657D01*
X807490Y505117D01*
X804950D01*
X807490Y502577D01*
X804950Y500037D01*
X807490D01*
X810030Y497497D01*
Y506037D02*
X812570Y508577D01*
X815110D01*
X812570Y511117D01*
X815110Y513657D01*
X812570D01*
X810030Y516197D01*
X807490Y513657D01*
X804950D01*
X807490Y511117D01*
X804950Y508577D01*
X807490D01*
X810030Y506037D01*
Y514577D02*
X812570Y517117D01*
X815110D01*
X812570Y519657D01*
X815110Y522197D01*
X812570D01*
X810030Y524737D01*
X807490Y522197D01*
X804950D01*
X807490Y519657D01*
X804950Y517117D01*
X807490D01*
X810030Y514577D01*
Y523117D02*
X812570Y525657D01*
X815110D01*
X812570Y528197D01*
X815110Y530737D01*
X812570D01*
X810030Y533277D01*
X807490Y530737D01*
X804950D01*
X807490Y528197D01*
X804950Y525657D01*
X807490D01*
X810030Y523117D01*
Y531657D02*
X812570Y534197D01*
X815110D01*
X812570Y536737D01*
X815110Y539277D01*
X812570D01*
X810030Y541817D01*
X807490Y539277D01*
X804950D01*
X807490Y536737D01*
X804950Y534197D01*
X807490D01*
X810030Y531657D01*
Y540197D02*
X812570Y542737D01*
X815110D01*
X812570Y545277D01*
X815110Y547817D01*
X812570D01*
X810030Y550357D01*
X807490Y547817D01*
X804950D01*
X807490Y545277D01*
X804950Y542737D01*
X807490D01*
X810030Y540197D01*
Y548737D02*
X812570Y551277D01*
X815110D01*
X812570Y553817D01*
X815110Y556357D01*
X812570D01*
X810030Y558897D01*
X807490Y556357D01*
X804950D01*
X807490Y553817D01*
X804950Y551277D01*
X807490D01*
X810030Y548737D01*
Y557277D02*
X812570Y559817D01*
X815110D01*
X812570Y562357D01*
X815110Y564897D01*
X812570D01*
X810030Y567437D01*
X807490Y564897D01*
X804950D01*
X807490Y562357D01*
X804950Y559817D01*
X807490D01*
X810030Y557277D01*
Y565817D02*
X812570Y568357D01*
X815110D01*
X812570Y570897D01*
X815110Y573437D01*
X812570D01*
X810030Y575977D01*
X807490Y573437D01*
X804950D01*
X807490Y570897D01*
X804950Y568357D01*
X807490D01*
X810030Y565817D01*
Y574357D02*
X812570Y576897D01*
X815110D01*
X812570Y579437D01*
X815110Y581977D01*
X812570D01*
X810030Y584517D01*
X807490Y581977D01*
X804950D01*
X807490Y579437D01*
X804950Y576897D01*
X807490D01*
X810030Y574357D01*
Y582897D02*
X812570Y585437D01*
X815110D01*
X812570Y587977D01*
X815110Y590517D01*
X812570D01*
X810030Y593057D01*
X807490Y590517D01*
X804950D01*
X807490Y587977D01*
X804950Y585437D01*
X807490D01*
X810030Y582897D01*
Y591437D02*
X812570Y593977D01*
X815110D01*
X812570Y596517D01*
X815110Y599057D01*
X812570D01*
X810030Y601597D01*
X807490Y599057D01*
X804950D01*
X807490Y596517D01*
X804950Y593977D01*
X807490D01*
X810030Y591437D01*
Y599977D02*
X812570Y602517D01*
X815110D01*
X812570Y605057D01*
X815110Y607597D01*
X812570D01*
X810030Y610137D01*
X807490Y607597D01*
X804950D01*
X807490Y605057D01*
X804950Y602517D01*
X807490D01*
X810030Y599977D01*
Y608517D02*
X812570Y611057D01*
X815110D01*
X812570Y613597D01*
X815110Y616137D01*
X812570D01*
X810030Y618677D01*
X807490Y616137D01*
X804950D01*
X807490Y613597D01*
X804950Y611057D01*
X807490D01*
X810030Y608517D01*
X810030Y617057D02*
X812570Y619597D01*
X815110D01*
X812570Y622137D01*
X815110Y624677D01*
X812570D01*
X810030Y627217D01*
X807490Y624677D01*
X804950D01*
X807490Y622137D01*
X804950Y619597D01*
X807490D01*
X810030Y617057D01*
Y625597D02*
X812570Y628137D01*
X815110D01*
X812570Y630677D01*
X815110Y633217D01*
X812570D01*
X810030Y635757D01*
X807490Y633217D01*
X804950D01*
X807490Y630677D01*
X804950Y628137D01*
X807490D01*
X810030Y625597D01*
Y634137D02*
X812570Y636677D01*
X815110D01*
X812570Y639217D01*
X815110Y641757D01*
X812570D01*
X810030Y644297D01*
X807490Y641757D01*
X804950D01*
X807490Y639217D01*
X804950Y636677D01*
X807490D01*
X810030Y634137D01*
Y642677D02*
X812570Y645217D01*
X815110D01*
X812570Y647757D01*
X815110Y650297D01*
X812570D01*
X810030Y652837D01*
X807490Y650297D01*
X804950D01*
X807490Y647757D01*
X804950Y645217D01*
X807490D01*
X810030Y642677D01*
Y651217D02*
X812570Y653757D01*
X815110D01*
X812570Y656297D01*
X815110Y658837D01*
X812570D01*
X810030Y661377D01*
X807490Y658837D01*
X804950D01*
X807490Y656297D01*
X804950Y653757D01*
X807490D01*
X810030Y651217D01*
Y659757D02*
X812570Y662297D01*
X815110D01*
X812570Y664837D01*
X815110Y667377D01*
X812570D01*
X810030Y669917D01*
X807490Y667377D01*
X804950D01*
X807490Y664837D01*
X804950Y662297D01*
X807490D01*
X810030Y659757D01*
Y668297D02*
X812570Y670837D01*
X815110D01*
X812570Y673377D01*
X815110Y675917D01*
X812570D01*
X810030Y678457D01*
X807490Y675917D01*
X804950D01*
X807490Y673377D01*
X804950Y670837D01*
X807490D01*
X810030Y668297D01*
Y676837D02*
X812570Y679377D01*
X815110D01*
X812570Y681917D01*
X815110Y684457D01*
X812570D01*
X810030Y686997D01*
X807490Y684457D01*
X804950D01*
X807490Y681917D01*
X804950Y679377D01*
X807490D01*
X810030Y676837D01*
Y685377D02*
X812570Y687917D01*
X815110D01*
X812570Y690457D01*
X815110Y692997D01*
X812570D01*
X810030Y695537D01*
X807490Y692997D01*
X804950D01*
X807490Y690457D01*
X804950Y687917D01*
X807490D01*
X810030Y685377D01*
Y693917D02*
X812570Y696457D01*
X815110D01*
X812570Y698997D01*
X815110Y701537D01*
X812570D01*
X810030Y704077D01*
X807490Y701537D01*
X804950D01*
X807490Y698997D01*
X804950Y696457D01*
X807490D01*
X810030Y693917D01*
Y702457D02*
X812570Y704997D01*
X815110D01*
X812570Y707537D01*
X815110Y710077D01*
X812570D01*
X810030Y712617D01*
X807490Y710077D01*
X804950D01*
X807490Y707537D01*
X804950Y704997D01*
X807490D01*
X810030Y702457D01*
Y710997D02*
X812570Y713537D01*
X815110D01*
X812570Y716077D01*
X815110Y718617D01*
X812570D01*
X810030Y721157D01*
X807490Y718617D01*
X804950D01*
X807490Y716077D01*
X804950Y713537D01*
X807490D01*
X810030Y710997D01*
Y719537D02*
X812570Y722077D01*
X815110D01*
X812570Y724617D01*
X815110Y727157D01*
X812570D01*
X810030Y729697D01*
X807490Y727157D01*
X804950D01*
X807490Y724617D01*
X804950Y722077D01*
X807490D01*
X810030Y719537D01*
Y728077D02*
X812570Y730617D01*
X815110D01*
X812570Y733157D01*
X815110Y735697D01*
X812570D01*
X810030Y738237D01*
X807490Y735697D01*
X804950D01*
X807490Y733157D01*
X804950Y730617D01*
X807490D01*
X810030Y728077D01*
Y736617D02*
X812570Y739157D01*
X815110D01*
X812570Y741697D01*
X815110Y744237D01*
X812570D01*
X810030Y746777D01*
X807490Y744237D01*
X804950D01*
X807490Y741697D01*
X804950Y739157D01*
X807490D01*
X810030Y736617D01*
Y745157D02*
X812570Y747697D01*
X815110D01*
X812570Y750237D01*
X815110Y752777D01*
X812570D01*
X810030Y755317D01*
X807490Y752777D01*
X804950D01*
X807490Y750237D01*
X804950Y747697D01*
X807490D01*
X810030Y745157D01*
Y753697D02*
X812570Y756237D01*
X815110D01*
X812570Y758777D01*
X815110Y761317D01*
X812570D01*
X810030Y763857D01*
X807490Y761317D01*
X804950D01*
X807490Y758777D01*
X804950Y756237D01*
X807490D01*
X810030Y753697D01*
Y762237D02*
X812570Y764777D01*
X815110D01*
X812570Y767317D01*
X815110Y769857D01*
X812570D01*
X810030Y772397D01*
X807490Y769857D01*
X804950D01*
X807490Y767317D01*
X804950Y764777D01*
X807490D01*
X810030Y762237D01*
X809174Y770734D02*
X811714Y773274D01*
X814254D01*
X811714Y775814D01*
X814254Y778354D01*
X811714D01*
X809174Y780894D01*
X806634Y778354D01*
X804094D01*
X806634Y775814D01*
X804094Y773274D01*
X806634D01*
X809174Y770734D01*
X804983Y778175D02*
X807523Y780715D01*
X810063D01*
X807523Y783255D01*
X810063Y785795D01*
X807523D01*
X804983Y788335D01*
X802443Y785795D01*
X799903D01*
X802443Y783255D01*
X799903Y780715D01*
X802443D01*
X804983Y778175D01*
X798091Y783218D02*
X800631Y785758D01*
X803171D01*
X800631Y788298D01*
X803171Y790838D01*
X800631D01*
X798091Y793378D01*
X795551Y790838D01*
X793011D01*
X795551Y788298D01*
X793011Y785758D01*
X795551D01*
X798091Y783218D01*
X789729Y784950D02*
X792269Y787490D01*
X794809D01*
X792269Y790030D01*
X794809Y792570D01*
X792269D01*
X789729Y795110D01*
X787189Y792570D01*
X784649D01*
X787189Y790030D01*
X784649Y787490D01*
X787189D01*
X789729Y784950D01*
X781189D02*
X783729Y787490D01*
X786269D01*
X783729Y790030D01*
X786269Y792570D01*
X783729D01*
X781189Y795110D01*
X778649Y792570D01*
X776109D01*
X778649Y790030D01*
X776109Y787490D01*
X778649D01*
X781189Y784950D01*
X772649D02*
X775189Y787490D01*
X777729D01*
X775189Y790030D01*
X777729Y792570D01*
X775189D01*
X772649Y795110D01*
X770109Y792570D01*
X767569D01*
X770109Y790030D01*
X767569Y787490D01*
X770109D01*
X772649Y784950D01*
X764109D02*
X766649Y787490D01*
X769189D01*
X766649Y790030D01*
X769189Y792570D01*
X766649D01*
X764109Y795110D01*
X761569Y792570D01*
X759029D01*
X761569Y790030D01*
X759029Y787490D01*
X761569D01*
X764109Y784950D01*
X755569D02*
X758109Y787490D01*
X760649D01*
X758109Y790030D01*
X760649Y792570D01*
X758109D01*
X755569Y795110D01*
X753029Y792570D01*
X750489D01*
X753029Y790030D01*
X750489Y787490D01*
X753029D01*
X755569Y784950D01*
X747029D02*
X749569Y787490D01*
X752109D01*
X749569Y790030D01*
X752109Y792570D01*
X749569D01*
X747029Y795110D01*
X744489Y792570D01*
X741949D01*
X744489Y790030D01*
X741949Y787490D01*
X744489D01*
X747029Y784950D01*
X738489D02*
X741029Y787490D01*
X743569D01*
X741029Y790030D01*
X743569Y792570D01*
X741029D01*
X738489Y795110D01*
X735949Y792570D01*
X733409D01*
X735949Y790030D01*
X733409Y787490D01*
X735949D01*
X738489Y784950D01*
X729949D02*
X732489Y787490D01*
X735029D01*
X732489Y790030D01*
X735029Y792570D01*
X732489D01*
X729949Y795110D01*
X727409Y792570D01*
X724869D01*
X727409Y790030D01*
X724869Y787490D01*
X727409D01*
X729949Y784950D01*
X721409D02*
X723949Y787490D01*
X726489D01*
X723949Y790030D01*
X726489Y792570D01*
X723949D01*
X721409Y795110D01*
X718869Y792570D01*
X716329D01*
X718869Y790030D01*
X716329Y787490D01*
X718869D01*
X721409Y784950D01*
X712869D02*
X715409Y787490D01*
X717949D01*
X715409Y790030D01*
X717949Y792570D01*
X715409D01*
X712869Y795110D01*
X710329Y792570D01*
X707789D01*
X710329Y790030D01*
X707789Y787490D01*
X710329D01*
X712869Y784950D01*
X704329D02*
X706869Y787490D01*
X709409D01*
X706869Y790030D01*
X709409Y792570D01*
X706869D01*
X704329Y795110D01*
X701789Y792570D01*
X699249D01*
X701789Y790030D01*
X699249Y787490D01*
X701789D01*
X704329Y784950D01*
X695789D02*
X698329Y787490D01*
X700869D01*
X698329Y790030D01*
X700869Y792570D01*
X698329D01*
X695789Y795110D01*
X693249Y792570D01*
X690709D01*
X693249Y790030D01*
X690709Y787490D01*
X693249D01*
X695789Y784950D01*
X687249D02*
X689789Y787490D01*
X692329D01*
X689789Y790030D01*
X692329Y792570D01*
X689789D01*
X687249Y795110D01*
X684709Y792570D01*
X682169D01*
X684709Y790030D01*
X682169Y787490D01*
X684709D01*
X687249Y784950D01*
X678709D02*
X681249Y787490D01*
X683789D01*
X681249Y790030D01*
X683789Y792570D01*
X681249D01*
X678709Y795110D01*
X676169Y792570D01*
X673629D01*
X676169Y790030D01*
X673629Y787490D01*
X676169D01*
X678709Y784950D01*
X670169D02*
X672709Y787490D01*
X675249D01*
X672709Y790030D01*
X675249Y792570D01*
X672709D01*
X670169Y795110D01*
X667629Y792570D01*
X665089D01*
X667629Y790030D01*
X665089Y787490D01*
X667629D01*
X670169Y784950D01*
X661629D02*
X664169Y787490D01*
X666709D01*
X664169Y790030D01*
X666709Y792570D01*
X664169D01*
X661629Y795110D01*
X659089Y792570D01*
X656549D01*
X659089Y790030D01*
X656549Y787490D01*
X659089D01*
X661629Y784950D01*
X653089D02*
X655629Y787490D01*
X658169D01*
X655629Y790030D01*
X658169Y792570D01*
X655629D01*
X653089Y795110D01*
X650549Y792570D01*
X648009D01*
X650549Y790030D01*
X648009Y787490D01*
X650549D01*
X653089Y784950D01*
X644549D02*
X647089Y787490D01*
X649629D01*
X647089Y790030D01*
X649629Y792570D01*
X647089D01*
X644549Y795110D01*
X642009Y792570D01*
X639469D01*
X642009Y790030D01*
X639469Y787490D01*
X642009D01*
X644549Y784950D01*
X636009D02*
X638549Y787490D01*
X641089D01*
X638549Y790030D01*
X641089Y792570D01*
X638549D01*
X636009Y795110D01*
X633469Y792570D01*
X630929D01*
X633469Y790030D01*
X630929Y787490D01*
X633469D01*
X636009Y784950D01*
X627469D02*
X630009Y787490D01*
X632549D01*
X630009Y790030D01*
X632549Y792570D01*
X630009D01*
X627469Y795110D01*
X624929Y792570D01*
X622389D01*
X624929Y790030D01*
X622389Y787490D01*
X624929D01*
X627469Y784950D01*
X618929D02*
X621469Y787490D01*
X624009D01*
X621469Y790030D01*
X624009Y792570D01*
X621469D01*
X618929Y795110D01*
X616389Y792570D01*
X613849D01*
X616389Y790030D01*
X613849Y787490D01*
X616389D01*
X618929Y784950D01*
X610389D02*
X612929Y787490D01*
X615469D01*
X612929Y790030D01*
X615469Y792570D01*
X612929D01*
X610389Y795110D01*
X607849Y792570D01*
X605309D01*
X607849Y790030D01*
X605309Y787490D01*
X607849D01*
X610389Y784950D01*
X601849D02*
X604389Y787490D01*
X606929D01*
X604389Y790030D01*
X606929Y792570D01*
X604389D01*
X601849Y795110D01*
X599309Y792570D01*
X596769D01*
X599309Y790030D01*
X596769Y787490D01*
X599309D01*
X601849Y784950D01*
X593309D02*
X595849Y787490D01*
X598389D01*
X595849Y790030D01*
X598389Y792570D01*
X595849D01*
X593309Y795110D01*
X590769Y792570D01*
X588229D01*
X590769Y790030D01*
X588229Y787490D01*
X590769D01*
X593309Y784950D01*
X584769D02*
X587309Y787490D01*
X589849D01*
X587309Y790030D01*
X589849Y792570D01*
X587309D01*
X584769Y795110D01*
X582229Y792570D01*
X579689D01*
X582229Y790030D01*
X579689Y787490D01*
X582229D01*
X584769Y784950D01*
X576229D02*
X578769Y787490D01*
X581309D01*
X578769Y790030D01*
X581309Y792570D01*
X578769D01*
X576229Y795110D01*
X573689Y792570D01*
X571149D01*
X573689Y790030D01*
X571149Y787490D01*
X573689D01*
X576229Y784950D01*
X567689D02*
X570229Y787490D01*
X572769D01*
X570229Y790030D01*
X572769Y792570D01*
X570229D01*
X567689Y795110D01*
X565149Y792570D01*
X562609D01*
X565149Y790030D01*
X562609Y787490D01*
X565149D01*
X567689Y784950D01*
X559149D02*
X561689Y787490D01*
X564229D01*
X561689Y790030D01*
X564229Y792570D01*
X561689D01*
X559149Y795110D01*
X556609Y792570D01*
X554069D01*
X556609Y790030D01*
X554069Y787490D01*
X556609D01*
X559149Y784950D01*
X550609D02*
X553149Y787490D01*
X555689D01*
X553149Y790030D01*
X555689Y792570D01*
X553149D01*
X550609Y795110D01*
X548069Y792570D01*
X545529D01*
X548069Y790030D01*
X545529Y787490D01*
X548069D01*
X550609Y784950D01*
X542069D02*
X544609Y787490D01*
X547149D01*
X544609Y790030D01*
X547149Y792570D01*
X544609D01*
X542069Y795110D01*
X539529Y792570D01*
X536989D01*
X539529Y790030D01*
X536989Y787490D01*
X539529D01*
X542069Y784950D01*
X533529D02*
X536069Y787490D01*
X538609D01*
X536069Y790030D01*
X538609Y792570D01*
X536069D01*
X533529Y795110D01*
X530989Y792570D01*
X528449D01*
X530989Y790030D01*
X528449Y787490D01*
X530989D01*
X533529Y784950D01*
X524989D02*
X527529Y787490D01*
X530069D01*
X527529Y790030D01*
X530069Y792570D01*
X527529D01*
X524989Y795110D01*
X522449Y792570D01*
X519909D01*
X522449Y790030D01*
X519909Y787490D01*
X522449D01*
X524989Y784950D01*
X516449D02*
X518989Y787490D01*
X521529D01*
X518989Y790030D01*
X521529Y792570D01*
X518989D01*
X516449Y795110D01*
X513909Y792570D01*
X511369D01*
X513909Y790030D01*
X511369Y787490D01*
X513909D01*
X516449Y784950D01*
X507909D02*
X510449Y787490D01*
X512989D01*
X510449Y790030D01*
X512989Y792570D01*
X510449D01*
X507909Y795110D01*
X505369Y792570D01*
X502829D01*
X505369Y790030D01*
X502829Y787490D01*
X505369D01*
X507909Y784950D01*
X499369D02*
X501909Y787490D01*
X504449D01*
X501909Y790030D01*
X504449Y792570D01*
X501909D01*
X499369Y795110D01*
X496829Y792570D01*
X494289D01*
X496829Y790030D01*
X494289Y787490D01*
X496829D01*
X499369Y784950D01*
X490829D02*
X493369Y787490D01*
X495909D01*
X493369Y790030D01*
X495909Y792570D01*
X493369D01*
X490829Y795110D01*
X488289Y792570D01*
X485749D01*
X488289Y790030D01*
X485749Y787490D01*
X488289D01*
X490829Y784950D01*
X482289D02*
X484829Y787490D01*
X487369D01*
X484829Y790030D01*
X487369Y792570D01*
X484829D01*
X482289Y795110D01*
X479749Y792570D01*
X477209D01*
X479749Y790030D01*
X477209Y787490D01*
X479749D01*
X482289Y784950D01*
X473749D02*
X476289Y787490D01*
X478829D01*
X476289Y790030D01*
X478829Y792570D01*
X476289D01*
X473749Y795110D01*
X471209Y792570D01*
X468669D01*
X471209Y790030D01*
X468669Y787490D01*
X471209D01*
X473749Y784950D01*
X465209D02*
X467749Y787490D01*
X470289D01*
X467749Y790030D01*
X470289Y792570D01*
X467749D01*
X465209Y795110D01*
X462669Y792570D01*
X460129D01*
X462669Y790030D01*
X460129Y787490D01*
X462669D01*
X465209Y784950D01*
X456669D02*
X459209Y787490D01*
X461749D01*
X459209Y790030D01*
X461749Y792570D01*
X459209D01*
X456669Y795110D01*
X454129Y792570D01*
X451589D01*
X454129Y790030D01*
X451589Y787490D01*
X454129D01*
X456669Y784950D01*
X448129D02*
X450669Y787490D01*
X453209D01*
X450669Y790030D01*
X453209Y792570D01*
X450669D01*
X448129Y795110D01*
X445589Y792570D01*
X443049D01*
X445589Y790030D01*
X443049Y787490D01*
X445589D01*
X448129Y784950D01*
X439589D02*
X442129Y787490D01*
X444669D01*
X442129Y790030D01*
X444669Y792570D01*
X442129D01*
X439589Y795110D01*
X437049Y792570D01*
X434509D01*
X437049Y790030D01*
X434509Y787490D01*
X437049D01*
X439589Y784950D01*
X431049D02*
X433589Y787490D01*
X436129D01*
X433589Y790030D01*
X436129Y792570D01*
X433589D01*
X431049Y795110D01*
X428509Y792570D01*
X425969D01*
X428509Y790030D01*
X425969Y787490D01*
X428509D01*
X431049Y784950D01*
X422509D02*
X425049Y787490D01*
X427589D01*
X425049Y790030D01*
X427589Y792570D01*
X425049D01*
X422509Y795110D01*
X419969Y792570D01*
X417429D01*
X419969Y790030D01*
X417429Y787490D01*
X419969D01*
X422509Y784950D01*
X413969D02*
X416509Y787490D01*
X419049D01*
X416509Y790030D01*
X419049Y792570D01*
X416509D01*
X413969Y795110D01*
X411429Y792570D01*
X408889D01*
X411429Y790030D01*
X408889Y787490D01*
X411429D01*
X413969Y784950D01*
X405429D02*
X407969Y787490D01*
X410509D01*
X407969Y790030D01*
X410509Y792570D01*
X407969D01*
X405429Y795110D01*
X402889Y792570D01*
X400349D01*
X402889Y790030D01*
X400349Y787490D01*
X402889D01*
X405429Y784950D01*
X396889D02*
X399429Y787490D01*
X401969D01*
X399429Y790030D01*
X401969Y792570D01*
X399429D01*
X396889Y795110D01*
X394349Y792570D01*
X391809D01*
X394349Y790030D01*
X391809Y787490D01*
X394349D01*
X396889Y784950D01*
X388349D02*
X390889Y787490D01*
X393429D01*
X390889Y790030D01*
X393429Y792570D01*
X390889D01*
X388349Y795110D01*
X385809Y792570D01*
X383269D01*
X385809Y790030D01*
X383269Y787490D01*
X385809D01*
X388349Y784950D01*
X379809D02*
X382349Y787490D01*
X384889D01*
X382349Y790030D01*
X384889Y792570D01*
X382349D01*
X379809Y795110D01*
X377269Y792570D01*
X374729D01*
X377269Y790030D01*
X374729Y787490D01*
X377269D01*
X379809Y784950D01*
X371269D02*
X373809Y787490D01*
X376349D01*
X373809Y790030D01*
X376349Y792570D01*
X373809D01*
X371269Y795110D01*
X368729Y792570D01*
X366189D01*
X368729Y790030D01*
X366189Y787490D01*
X368729D01*
X371269Y784950D01*
X362729D02*
X365269Y787490D01*
X367809D01*
X365269Y790030D01*
X367809Y792570D01*
X365269D01*
X362729Y795110D01*
X360189Y792570D01*
X357649D01*
X360189Y790030D01*
X357649Y787490D01*
X360189D01*
X362729Y784950D01*
X354189D02*
X356729Y787490D01*
X359269D01*
X356729Y790030D01*
X359269Y792570D01*
X356729D01*
X354189Y795110D01*
X351649Y792570D01*
X349109D01*
X351649Y790030D01*
X349109Y787490D01*
X351649D01*
X354189Y784950D01*
X345649D02*
X348189Y787490D01*
X350729D01*
X348189Y790030D01*
X350729Y792570D01*
X348189D01*
X345649Y795110D01*
X343109Y792570D01*
X340569D01*
X343109Y790030D01*
X340569Y787490D01*
X343109D01*
X345649Y784950D01*
X337109D02*
X339649Y787490D01*
X342189D01*
X339649Y790030D01*
X342189Y792570D01*
X339649D01*
X337109Y795110D01*
X334569Y792570D01*
X332029D01*
X334569Y790030D01*
X332029Y787490D01*
X334569D01*
X337109Y784950D01*
X328569D02*
X331109Y787490D01*
X333649D01*
X331109Y790030D01*
X333649Y792570D01*
X331109D01*
X328569Y795110D01*
X326029Y792570D01*
X323489D01*
X326029Y790030D01*
X323489Y787490D01*
X326029D01*
X328569Y784950D01*
X320029D02*
X322569Y787490D01*
X325109D01*
X322569Y790030D01*
X325109Y792570D01*
X322569D01*
X320029Y795110D01*
X317489Y792570D01*
X314949D01*
X317489Y790030D01*
X314949Y787490D01*
X317489D01*
X320029Y784950D01*
X311489D02*
X314029Y787490D01*
X316569D01*
X314029Y790030D01*
X316569Y792570D01*
X314029D01*
X311489Y795110D01*
X308949Y792570D01*
X306409D01*
X308949Y790030D01*
X306409Y787490D01*
X308949D01*
X311489Y784950D01*
X302949D02*
X305489Y787490D01*
X308029D01*
X305489Y790030D01*
X308029Y792570D01*
X305489D01*
X302949Y795110D01*
X300409Y792570D01*
X297869D01*
X300409Y790030D01*
X297869Y787490D01*
X300409D01*
X302949Y784950D01*
X294409D02*
X296949Y787490D01*
X299489D01*
X296949Y790030D01*
X299489Y792570D01*
X296949D01*
X294409Y795110D01*
X291869Y792570D01*
X289329D01*
X291869Y790030D01*
X289329Y787490D01*
X291869D01*
X294409Y784950D01*
X285869D02*
X288409Y787490D01*
X290949D01*
X288409Y790030D01*
X290949Y792570D01*
X288409D01*
X285869Y795110D01*
X283329Y792570D01*
X280789D01*
X283329Y790030D01*
X280789Y787490D01*
X283329D01*
X285869Y784950D01*
X277329D02*
X279869Y787490D01*
X282409D01*
X279869Y790030D01*
X282409Y792570D01*
X279869D01*
X277329Y795110D01*
X274789Y792570D01*
X272249D01*
X274789Y790030D01*
X272249Y787490D01*
X274789D01*
X277329Y784950D01*
X268789D02*
X271329Y787490D01*
X273869D01*
X271329Y790030D01*
X273869Y792570D01*
X271329D01*
X268789Y795110D01*
X266249Y792570D01*
X263709D01*
X266249Y790030D01*
X263709Y787490D01*
X266249D01*
X268789Y784950D01*
X260249D02*
X262789Y787490D01*
X265329D01*
X262789Y790030D01*
X265329Y792570D01*
X262789D01*
X260249Y795110D01*
X257709Y792570D01*
X255169D01*
X257709Y790030D01*
X255169Y787490D01*
X257709D01*
X260249Y784950D01*
X251709D02*
X254249Y787490D01*
X256789D01*
X254249Y790030D01*
X256789Y792570D01*
X254249D01*
X251709Y795110D01*
X249169Y792570D01*
X246629D01*
X249169Y790030D01*
X246629Y787490D01*
X249169D01*
X251709Y784950D01*
X243169D02*
X245709Y787490D01*
X248249D01*
X245709Y790030D01*
X248249Y792570D01*
X245709D01*
X243169Y795110D01*
X240629Y792570D01*
X238089D01*
X240629Y790030D01*
X238089Y787490D01*
X240629D01*
X243169Y784950D01*
X234629D02*
X237169Y787490D01*
X239709D01*
X237169Y790030D01*
X239709Y792570D01*
X237169D01*
X234629Y795110D01*
X232089Y792570D01*
X229549D01*
X232089Y790030D01*
X229549Y787490D01*
X232089D01*
X234629Y784950D01*
X226089D02*
X228629Y787490D01*
X231169D01*
X228629Y790030D01*
X231169Y792570D01*
X228629D01*
X226089Y795110D01*
X223549Y792570D01*
X221009D01*
X223549Y790030D01*
X221009Y787490D01*
X223549D01*
X226089Y784950D01*
X217549D02*
X220089Y787490D01*
X222629D01*
X220089Y790030D01*
X222629Y792570D01*
X220089D01*
X217549Y795110D01*
X215009Y792570D01*
X212469D01*
X215009Y790030D01*
X212469Y787490D01*
X215009D01*
X217549Y784950D01*
X209009D02*
X211549Y787490D01*
X214089D01*
X211549Y790030D01*
X214089Y792570D01*
X211549D01*
X209009Y795110D01*
X206469Y792570D01*
X203929D01*
X206469Y790030D01*
X203929Y787490D01*
X206469D01*
X209009Y784950D01*
X200469D02*
X203009Y787490D01*
X205549D01*
X203009Y790030D01*
X205549Y792570D01*
X203009D01*
X200469Y795110D01*
X197929Y792570D01*
X195389D01*
X197929Y790030D01*
X195389Y787490D01*
X197929D01*
X200469Y784950D01*
X191929D02*
X194469Y787490D01*
X197009D01*
X194469Y790030D01*
X197009Y792570D01*
X194469D01*
X191929Y795110D01*
X189389Y792570D01*
X186849D01*
X189389Y790030D01*
X186849Y787490D01*
X189389D01*
X191929Y784950D01*
X183389D02*
X185929Y787490D01*
X188469D01*
X185929Y790030D01*
X188469Y792570D01*
X185929D01*
X183389Y795110D01*
X180849Y792570D01*
X178309D01*
X180849Y790030D01*
X178309Y787490D01*
X180849D01*
X183389Y784950D01*
X174849D02*
X177389Y787490D01*
X179929D01*
X177389Y790030D01*
X179929Y792570D01*
X177389D01*
X174849Y795110D01*
X172309Y792570D01*
X169769D01*
X172309Y790030D01*
X169769Y787490D01*
X172309D01*
X174849Y784950D01*
X166309D02*
X168849Y787490D01*
X171389D01*
X168849Y790030D01*
X171389Y792570D01*
X168849D01*
X166309Y795110D01*
X163769Y792570D01*
X161229D01*
X163769Y790030D01*
X161229Y787490D01*
X163769D01*
X166309Y784950D01*
X157769D02*
X160310Y787490D01*
X162850D01*
X160310Y790030D01*
X162850Y792570D01*
X160310D01*
X157769Y795110D01*
X155230Y792570D01*
X152690D01*
X155230Y790030D01*
X152690Y787490D01*
X155230D01*
X157769Y784950D01*
X149229D02*
X151770Y787490D01*
X154310D01*
X151770Y790030D01*
X154310Y792570D01*
X151770D01*
X149229Y795110D01*
X146690Y792570D01*
X144150D01*
X146690Y790030D01*
X144150Y787490D01*
X146690D01*
X149229Y784950D01*
X140689D02*
X143230Y787490D01*
X145770D01*
X143230Y790030D01*
X145770Y792570D01*
X143230D01*
X140689Y795110D01*
X138149Y792570D01*
X135610D01*
X138149Y790030D01*
X135610Y787490D01*
X138149D01*
X140689Y784950D01*
X132149D02*
X134690Y787490D01*
X137229D01*
X134690Y790030D01*
X137229Y792570D01*
X134690D01*
X132149Y795110D01*
X129609Y792570D01*
X127070D01*
X129609Y790030D01*
X127070Y787490D01*
X129609D01*
X132149Y784950D01*
X123610D02*
X126150Y787490D01*
X128689D01*
X126150Y790030D01*
X128689Y792570D01*
X126150D01*
X123610Y795110D01*
X121069Y792570D01*
X118530D01*
X121069Y790030D01*
X118530Y787490D01*
X121069D01*
X123610Y784950D01*
X115070D02*
X117610Y787490D01*
X120149D01*
X117610Y790030D01*
X120149Y792570D01*
X117610D01*
X115070Y795110D01*
X112529Y792570D01*
X109990D01*
X112529Y790030D01*
X109990Y787490D01*
X112529D01*
X115070Y784950D01*
X106530D02*
X109069Y787490D01*
X111609D01*
X109069Y790030D01*
X111609Y792570D01*
X109069D01*
X106530Y795110D01*
X103989Y792570D01*
X101449D01*
X103989Y790030D01*
X101449Y787490D01*
X103989D01*
X106530Y784950D01*
X97990D02*
X100529Y787490D01*
X103069D01*
X100529Y790030D01*
X103069Y792570D01*
X100529D01*
X97990Y795110D01*
X95449Y792570D01*
X92909D01*
X95449Y790030D01*
X92909Y787490D01*
X95449D01*
X97990Y784950D01*
X89450D02*
X91990Y787490D01*
X94530D01*
X91990Y790030D01*
X94530Y792570D01*
X91990D01*
X89450Y795110D01*
X86910Y792570D01*
X84370D01*
X86910Y790030D01*
X84370Y787490D01*
X86910D01*
X89450Y784950D01*
X80910D02*
X83450Y787490D01*
X85990D01*
X83450Y790030D01*
X85990Y792570D01*
X83450D01*
X80910Y795110D01*
X78370Y792570D01*
X75830D01*
X78370Y790030D01*
X75830Y787490D01*
X78370D01*
X80910Y784950D01*
X72370D02*
X74910Y787490D01*
X77450D01*
X74910Y790030D01*
X77450Y792570D01*
X74910D01*
X72370Y795110D01*
X69830Y792570D01*
X67290D01*
X69830Y790030D01*
X67290Y787490D01*
X69830D01*
X72370Y784950D01*
X63830D02*
X66370Y787490D01*
X68910D01*
X66370Y790030D01*
X68910Y792570D01*
X66370D01*
X63830Y795110D01*
X61290Y792570D01*
X58750D01*
X61290Y790030D01*
X58750Y787490D01*
X61290D01*
X63830Y784950D01*
X55290D02*
X57830Y787490D01*
X60370D01*
X57830Y790030D01*
X60370Y792570D01*
X57830D01*
X55290Y795110D01*
X52750Y792570D01*
X50210D01*
X52750Y790030D01*
X50210Y787490D01*
X52750D01*
X55290Y784950D01*
X46750D02*
X49290Y787490D01*
X51830D01*
X49290Y790030D01*
X51830Y792570D01*
X49290D01*
X46750Y795110D01*
X44210Y792570D01*
X41670D01*
X44210Y790030D01*
X41670Y787490D01*
X44210D01*
X46750Y784950D01*
X38210D02*
X40750Y787490D01*
X43290D01*
X40750Y790030D01*
X43290Y792570D01*
X40750D01*
X38210Y795110D01*
X35670Y792570D01*
X33130D01*
X35670Y790030D01*
X33130Y787490D01*
X35670D01*
X38210Y784950D01*
X778717Y633117D02*
X781256Y635657D01*
X783796D01*
X781256Y638197D01*
X783796Y640737D01*
X781256D01*
X778717Y643277D01*
X776177Y640737D01*
X773636D01*
X776177Y638197D01*
X773636Y635657D01*
X776177D01*
X778717Y633117D01*
X691000Y506920D02*
X693540Y509460D01*
X696080D01*
X693540Y512000D01*
X696080Y514540D01*
X693540D01*
X691000Y517080D01*
X688460Y514540D01*
X685920D01*
X688460Y512000D01*
X685920Y509460D01*
X688460D01*
X691000Y506920D01*
X696000Y518920D02*
X698540Y521460D01*
X701080D01*
X698540Y524000D01*
X701080Y526540D01*
X698540D01*
X696000Y529080D01*
X693460Y526540D01*
X690920D01*
X693460Y524000D01*
X690920Y521460D01*
X693460D01*
X696000Y518920D01*
X689322Y639378D02*
X691862Y641918D01*
X694402D01*
X691862Y644458D01*
X694402Y646998D01*
X691862D01*
X689322Y649538D01*
X686782Y646998D01*
X684242D01*
X686782Y644458D01*
X684242Y641918D01*
X686782D01*
X689322Y639378D01*
X684213Y180205D02*
X686753Y182745D01*
X689293D01*
X686753Y185285D01*
X689293Y187824D01*
X686753D01*
X684213Y190364D01*
X681673Y187824D01*
X679133D01*
X681673Y185285D01*
X679133Y182745D01*
X681673D01*
X684213Y180205D01*
X691843Y283574D02*
X694383Y286114D01*
X696923D01*
X694383Y288654D01*
X696923Y291194D01*
X694383D01*
X691843Y293734D01*
X689303Y291194D01*
X686763D01*
X689303Y288654D01*
X686763Y286114D01*
X689303D01*
X691843Y283574D01*
X612493Y116300D02*
X615033Y118841D01*
X617573D01*
X615033Y121381D01*
X617573Y123920D01*
X615033D01*
X612493Y126461D01*
X609953Y123920D01*
X607413D01*
X609953Y121381D01*
X607413Y118841D01*
X609953D01*
X612493Y116300D01*
X577130Y94710D02*
X579670Y97250D01*
X582210D01*
X579670Y99790D01*
X582210Y102330D01*
X579670D01*
X577130Y104870D01*
X574590Y102330D01*
X572050D01*
X574590Y99790D01*
X572050Y97250D01*
X574590D01*
X577130Y94710D01*
X698771Y15145D02*
X701311Y17686D01*
X703851D01*
X701311Y20226D01*
X703851Y22766D01*
X701311D01*
X698771Y25306D01*
X696231Y22766D01*
X693691D01*
X696231Y20226D01*
X693691Y17686D01*
X696231D01*
X698771Y15145D01*
X769841Y282845D02*
X772381Y285385D01*
X774921D01*
X772381Y287925D01*
X774921Y290465D01*
X772381D01*
X769841Y293005D01*
X767301Y290465D01*
X764761D01*
X767301Y287925D01*
X764761Y285385D01*
X767301D01*
X769841Y282845D01*
X503000Y26920D02*
X505540Y29460D01*
X508080D01*
X505540Y32000D01*
X508080Y34540D01*
X505540D01*
X503000Y37080D01*
X500460Y34540D01*
X497920D01*
X500460Y32000D01*
X497920Y29460D01*
X500460D01*
X503000Y26920D01*
X751698Y320376D02*
X754238Y322916D01*
X756778D01*
X754238Y325456D01*
X756778Y327996D01*
X754238D01*
X751698Y330536D01*
X749158Y327996D01*
X746618D01*
X749158Y325456D01*
X746618Y322916D01*
X749158D01*
X751698Y320376D01*
X759000Y142920D02*
X761540Y145460D01*
X764080D01*
X761540Y148000D01*
X764080Y150540D01*
X761540D01*
X759000Y153080D01*
X756460Y150540D01*
X753920D01*
X756460Y148000D01*
X753920Y145460D01*
X756460D01*
X759000Y142920D01*
X99000Y28920D02*
X101540Y31460D01*
X104080D01*
X101540Y34000D01*
X104080Y36540D01*
X101540D01*
X99000Y39080D01*
X96460Y36540D01*
X93920D01*
X96460Y34000D01*
X93920Y31460D01*
X96460D01*
X99000Y28920D01*
X461506Y580240D02*
X464046Y582780D01*
X466586D01*
X464046Y585320D01*
X466586Y587860D01*
X464046D01*
X461506Y590400D01*
X458966Y587860D01*
X456426D01*
X458966Y585320D01*
X456426Y582780D01*
X458966D01*
X461506Y580240D01*
X466000Y718920D02*
X468540Y721460D01*
X471080D01*
X468540Y724000D01*
X471080Y726540D01*
X468540D01*
X466000Y729080D01*
X463460Y726540D01*
X460920D01*
X463460Y724000D01*
X460920Y721460D01*
X463460D01*
X466000Y718920D01*
X481578Y358196D02*
X484118Y360736D01*
X486658D01*
X484118Y363276D01*
X486658Y365816D01*
X484118D01*
X481578Y368356D01*
X479038Y365816D01*
X476498D01*
X479038Y363276D01*
X476498Y360736D01*
X479038D01*
X481578Y358196D01*
X642000Y116920D02*
X644540Y119460D01*
X647080D01*
X644540Y122000D01*
X647080Y124540D01*
X644540D01*
X642000Y127080D01*
X639460Y124540D01*
X636920D01*
X639460Y122000D01*
X636920Y119460D01*
X639460D01*
X642000Y116920D01*
X540475Y117176D02*
X543015Y119716D01*
X545555D01*
X543015Y122256D01*
X545555Y124796D01*
X543015D01*
X540475Y127336D01*
X537935Y124796D01*
X535395D01*
X537935Y122256D01*
X535395Y119716D01*
X537935D01*
X540475Y117176D01*
X694251Y145602D02*
X696791Y148142D01*
X699331D01*
X696791Y150682D01*
X699331Y153222D01*
X696791D01*
X694251Y155762D01*
X691711Y153222D01*
X689171D01*
X691711Y150682D01*
X689171Y148142D01*
X691711D01*
X694251Y145602D01*
X699395Y236743D02*
X701935Y239283D01*
X704475D01*
X701935Y241823D01*
X704475Y244363D01*
X701935D01*
X699395Y246903D01*
X696855Y244363D01*
X694315D01*
X696855Y241823D01*
X694315Y239283D01*
X696855D01*
X699395Y236743D01*
X714475Y221620D02*
X717015Y224160D01*
X719555D01*
X717015Y226700D01*
X719555Y229240D01*
X717015D01*
X714475Y231780D01*
X711935Y229240D01*
X709395D01*
X711935Y226700D01*
X709395Y224160D01*
X711935D01*
X714475Y221620D01*
X683000Y224920D02*
X685540Y227460D01*
X688080D01*
X685540Y230000D01*
X688080Y232540D01*
X685540D01*
X683000Y235080D01*
X680460Y232540D01*
X677920D01*
X680460Y230000D01*
X677920Y227460D01*
X680460D01*
X683000Y224920D01*
X693000Y248920D02*
X695540Y251460D01*
X698080D01*
X695540Y254000D01*
X698080Y256540D01*
X695540D01*
X693000Y259080D01*
X690460Y256540D01*
X687920D01*
X690460Y254000D01*
X687920Y251460D01*
X690460D01*
X693000Y248920D01*
X660586Y109352D02*
X663126Y111892D01*
X665666D01*
X663126Y114432D01*
X665666Y116972D01*
X663126D01*
X660586Y119512D01*
X658046Y116972D01*
X655506D01*
X658046Y114432D01*
X655506Y111892D01*
X658046D01*
X660586Y109352D01*
X623000Y103920D02*
X625540Y106460D01*
X628080D01*
X625540Y109000D01*
X628080Y111540D01*
X625540D01*
X623000Y114080D01*
X620460Y111540D01*
X617920D01*
X620460Y109000D01*
X617920Y106460D01*
X620460D01*
X623000Y103920D01*
X602960Y97832D02*
X605500Y100372D01*
X608040D01*
X605500Y102912D01*
X608040Y105452D01*
X605500D01*
X602960Y107992D01*
X600420Y105452D01*
X597880D01*
X600420Y102912D01*
X597880Y100372D01*
X600420D01*
X602960Y97832D01*
X660000Y48920D02*
X662540Y51460D01*
X665080D01*
X662540Y54000D01*
X665080Y56540D01*
X662540D01*
X660000Y59080D01*
X657460Y56540D01*
X654920D01*
X657460Y54000D01*
X654920Y51460D01*
X657460D01*
X660000Y48920D01*
X249906Y38170D02*
X252446Y40710D01*
X254986D01*
X252446Y43250D01*
X254986Y45790D01*
X252446D01*
X249906Y48330D01*
X247366Y45790D01*
X244826D01*
X247366Y43250D01*
X244826Y40710D01*
X247366D01*
X249906Y38170D01*
X218000Y71920D02*
X220540Y74460D01*
X223080D01*
X220540Y77000D01*
X223080Y79540D01*
X220540D01*
X218000Y82080D01*
X215460Y79540D01*
X212920D01*
X215460Y77000D01*
X212920Y74460D01*
X215460D01*
X218000Y71920D01*
X234000Y56920D02*
X236540Y59460D01*
X239080D01*
X236540Y62000D01*
X239080Y64540D01*
X236540D01*
X234000Y67080D01*
X231460Y64540D01*
X228920D01*
X231460Y62000D01*
X228920Y59460D01*
X231460D01*
X234000Y56920D01*
X195000Y84920D02*
X197540Y87460D01*
X200080D01*
X197540Y90000D01*
X200080Y92540D01*
X197540D01*
X195000Y95080D01*
X192460Y92540D01*
X189920D01*
X192460Y90000D01*
X189920Y87460D01*
X192460D01*
X195000Y84920D01*
X207000Y123920D02*
X209540Y126460D01*
X212080D01*
X209540Y129000D01*
X212080Y131540D01*
X209540D01*
X207000Y134080D01*
X204460Y131540D01*
X201920D01*
X204460Y129000D01*
X201920Y126460D01*
X204460D01*
X207000Y123920D01*
Y142920D02*
X209540Y145460D01*
X212080D01*
X209540Y148000D01*
X212080Y150540D01*
X209540D01*
X207000Y153080D01*
X204460Y150540D01*
X201920D01*
X204460Y148000D01*
X201920Y145460D01*
X204460D01*
X207000Y142920D01*
X228000Y215920D02*
X230540Y218460D01*
X233080D01*
X230540Y221000D01*
X233080Y223540D01*
X230540D01*
X228000Y226080D01*
X225460Y223540D01*
X222920D01*
X225460Y221000D01*
X222920Y218460D01*
X225460D01*
X228000Y215920D01*
Y197920D02*
X230540Y200460D01*
X233080D01*
X230540Y203000D01*
X233080Y205540D01*
X230540D01*
X228000Y208080D01*
X225460Y205540D01*
X222920D01*
X225460Y203000D01*
X222920Y200460D01*
X225460D01*
X228000Y197920D01*
X189018Y175362D02*
X191558Y177902D01*
X194098D01*
X191558Y180442D01*
X194098Y182982D01*
X191558D01*
X189018Y185522D01*
X186478Y182982D01*
X183938D01*
X186478Y180442D01*
X183938Y177902D01*
X186478D01*
X189018Y175362D01*
X228000Y206920D02*
X230540Y209460D01*
X233080D01*
X230540Y212000D01*
X233080Y214540D01*
X230540D01*
X228000Y217080D01*
X225460Y214540D01*
X222920D01*
X225460Y212000D01*
X222920Y209460D01*
X225460D01*
X228000Y206920D01*
X128975Y221619D02*
X131515Y224159D01*
X134055D01*
X131515Y226699D01*
X134055Y229239D01*
X131515D01*
X128975Y231779D01*
X126435Y229239D01*
X123895D01*
X126435Y226699D01*
X123895Y224159D01*
X126435D01*
X128975Y221619D01*
X110647Y207341D02*
X113187Y209881D01*
X115727D01*
X113187Y212421D01*
X115727Y214961D01*
X113187D01*
X110647Y217501D01*
X108107Y214961D01*
X105567D01*
X108107Y212421D01*
X105567Y209881D01*
X108107D01*
X110647Y207341D01*
X59000Y58920D02*
X61540Y61460D01*
X64080D01*
X61540Y64000D01*
X64080Y66540D01*
X61540D01*
X59000Y69080D01*
X56460Y66540D01*
X53920D01*
X56460Y64000D01*
X53920Y61460D01*
X56460D01*
X59000Y58920D01*
Y77920D02*
X61540Y80460D01*
X64080D01*
X61540Y83000D01*
X64080Y85540D01*
X61540D01*
X59000Y88080D01*
X56460Y85540D01*
X53920D01*
X56460Y83000D01*
X53920Y80460D01*
X56460D01*
X59000Y77920D01*
Y99920D02*
X61540Y102460D01*
X64080D01*
X61540Y105000D01*
X64080Y107540D01*
X61540D01*
X59000Y110080D01*
X56460Y107540D01*
X53920D01*
X56460Y105000D01*
X53920Y102460D01*
X56460D01*
X59000Y99920D01*
X108323Y279863D02*
X110863Y282403D01*
X113403D01*
X110863Y284943D01*
X113403Y287483D01*
X110863D01*
X108323Y290023D01*
X105783Y287483D01*
X103243D01*
X105783Y284943D01*
X103243Y282403D01*
X105783D01*
X108323Y279863D01*
X121000Y291920D02*
X123540Y294460D01*
X126080D01*
X123540Y297000D01*
X126080Y299540D01*
X123540D01*
X121000Y302080D01*
X118460Y299540D01*
X115920D01*
X118460Y297000D01*
X115920Y294460D01*
X118460D01*
X121000Y291920D01*
X148000Y305920D02*
X150540Y308460D01*
X153080D01*
X150540Y311000D01*
X153080Y313540D01*
X150540D01*
X148000Y316080D01*
X145460Y313540D01*
X142920D01*
X145460Y311000D01*
X142920Y308460D01*
X145460D01*
X148000Y305920D01*
X174000D02*
X176540Y308460D01*
X179080D01*
X176540Y311000D01*
X179080Y313540D01*
X176540D01*
X174000Y316080D01*
X171460Y313540D01*
X168920D01*
X171460Y311000D01*
X168920Y308460D01*
X171460D01*
X174000Y305920D01*
X199000D02*
X201540Y308460D01*
X204080D01*
X201540Y311000D01*
X204080Y313540D01*
X201540D01*
X199000Y316080D01*
X196460Y313540D01*
X193920D01*
X196460Y311000D01*
X193920Y308460D01*
X196460D01*
X199000Y305920D01*
X576000Y677920D02*
X578540Y680460D01*
X581080D01*
X578540Y683000D01*
X581080Y685540D01*
X578540D01*
X576000Y688080D01*
X573460Y685540D01*
X570920D01*
X573460Y683000D01*
X570920Y680460D01*
X573460D01*
X576000Y677920D01*
X575000Y566920D02*
X577540Y569460D01*
X580080D01*
X577540Y572000D01*
X580080Y574540D01*
X577540D01*
X575000Y577080D01*
X572460Y574540D01*
X569920D01*
X572460Y572000D01*
X569920Y569460D01*
X572460D01*
X575000Y566920D01*
X571000Y376920D02*
X573540Y379460D01*
X576080D01*
X573540Y382000D01*
X576080Y384540D01*
X573540D01*
X571000Y387080D01*
X568460Y384540D01*
X565920D01*
X568460Y382000D01*
X565920Y379460D01*
X568460D01*
X571000Y376920D01*
X660818Y404612D02*
X663358Y407152D01*
X665898D01*
X663358Y409692D01*
X665898Y412232D01*
X663358D01*
X660818Y414772D01*
X658278Y412232D01*
X655738D01*
X658278Y409692D01*
X655738Y407152D01*
X658278D01*
X660818Y404612D01*
X635605Y220966D02*
X638145Y223506D01*
X640685D01*
X638145Y226046D01*
X640685Y228586D01*
X638145D01*
X635605Y231126D01*
X633065Y228586D01*
X630525D01*
X633065Y226046D01*
X630525Y223506D01*
X633065D01*
X635605Y220966D01*
X726777Y379920D02*
X729317Y382460D01*
X731857D01*
X729317Y385000D01*
X731857Y387540D01*
X729317D01*
X726777Y390080D01*
X724237Y387540D01*
X721697D01*
X724237Y385000D01*
X721697Y382460D01*
X724237D01*
X726777Y379920D01*
X714000Y386920D02*
X716540Y389460D01*
X719080D01*
X716540Y392000D01*
X719080Y394540D01*
X716540D01*
X714000Y397080D01*
X711460Y394540D01*
X708920D01*
X711460Y392000D01*
X708920Y389460D01*
X711460D01*
X714000Y386920D01*
X541388Y632004D02*
X543928Y634544D01*
X546468D01*
X543928Y637084D01*
X546468Y639624D01*
X543928D01*
X541388Y642164D01*
X538848Y639624D01*
X536308D01*
X538848Y637084D01*
X536308Y634544D01*
X538848D01*
X541388Y632004D01*
X543069Y409818D02*
X545609Y412358D01*
X548149D01*
X545609Y414898D01*
X548149Y417438D01*
X545609D01*
X543069Y419978D01*
X540529Y417438D01*
X537989D01*
X540529Y414898D01*
X537989Y412358D01*
X540529D01*
X543069Y409818D01*
X545000Y400920D02*
X547540Y403460D01*
X550080D01*
X547540Y406000D01*
X550080Y408540D01*
X547540D01*
X545000Y411080D01*
X542460Y408540D01*
X539920D01*
X542460Y406000D01*
X539920Y403460D01*
X542460D01*
X545000Y400920D01*
X527050Y398780D02*
X529590Y401320D01*
X532130D01*
X529590Y403860D01*
X532130Y406400D01*
X529590D01*
X527050Y408940D01*
X524510Y406400D01*
X521970D01*
X524510Y403860D01*
X521970Y401320D01*
X524510D01*
X527050Y398780D01*
X481471Y459375D02*
X484011Y461915D01*
X486551D01*
X484011Y464455D01*
X486551Y466995D01*
X484011D01*
X481471Y469535D01*
X478931Y466995D01*
X476391D01*
X478931Y464455D01*
X476391Y461915D01*
X478931D01*
X481471Y459375D01*
X487680Y486260D02*
X490220Y488800D01*
X492760D01*
X490220Y491340D01*
X492760Y493880D01*
X490220D01*
X487680Y496420D01*
X485140Y493880D01*
X482600D01*
X485140Y491340D01*
X482600Y488800D01*
X485140D01*
X487680Y486260D01*
X481566Y615953D02*
X484106Y618493D01*
X486646D01*
X484106Y621033D01*
X486646Y623573D01*
X484106D01*
X481566Y626113D01*
X479026Y623573D01*
X476486D01*
X479026Y621033D01*
X476486Y618493D01*
X479026D01*
X481566Y615953D01*
X468565Y407332D02*
X471105Y409871D01*
X473645D01*
X471105Y412411D01*
X473645Y414952D01*
X471105D01*
X468565Y417491D01*
X466025Y414952D01*
X463485D01*
X466025Y412411D01*
X463485Y409871D01*
X466025D01*
X468565Y407332D01*
X487654Y541687D02*
X490194Y544227D01*
X492734D01*
X490194Y546767D01*
X492734Y549307D01*
X490194D01*
X487654Y551847D01*
X485114Y549307D01*
X482574D01*
X485114Y546767D01*
X482574Y544227D01*
X485114D01*
X487654Y541687D01*
X527000Y563920D02*
X529540Y566460D01*
X532080D01*
X529540Y569000D01*
X532080Y571540D01*
X529540D01*
X527000Y574080D01*
X524460Y571540D01*
X521920D01*
X524460Y569000D01*
X521920Y566460D01*
X524460D01*
X527000Y563920D01*
X265000Y570920D02*
X267540Y573460D01*
X270080D01*
X267540Y576000D01*
X270080Y578540D01*
X267540D01*
X265000Y581080D01*
X262460Y578540D01*
X259920D01*
X262460Y576000D01*
X259920Y573460D01*
X262460D01*
X265000Y570920D01*
X530000Y290920D02*
X532540Y293460D01*
X535080D01*
X532540Y296000D01*
X535080Y298540D01*
X532540D01*
X530000Y301080D01*
X527460Y298540D01*
X524920D01*
X527460Y296000D01*
X524920Y293460D01*
X527460D01*
X530000Y290920D01*
X493012Y112693D02*
X495552Y115233D01*
X498092D01*
X495552Y117773D01*
X498092Y120313D01*
X495552D01*
X493012Y122853D01*
X490472Y120313D01*
X487932D01*
X490472Y117773D01*
X487932Y115233D01*
X490472D01*
X493012Y112693D01*
X567765Y95437D02*
X570305Y97977D01*
X572845D01*
X570305Y100517D01*
X572845Y103057D01*
X570305D01*
X567765Y105597D01*
X565225Y103057D01*
X562685D01*
X565225Y100517D01*
X562685Y97977D01*
X565225D01*
X567765Y95437D01*
X702451Y345026D02*
X704991Y347566D01*
X707531D01*
X704991Y350106D01*
X707531Y352646D01*
X704991D01*
X702451Y355186D01*
X699911Y352646D01*
X697371D01*
X699911Y350106D01*
X697371Y347566D01*
X699911D01*
X702451Y345026D01*
X623070Y215420D02*
X625610Y217960D01*
X628150D01*
X625610Y220500D01*
X628150Y223040D01*
X625610D01*
X623070Y225580D01*
X620530Y223040D01*
X617990D01*
X620530Y220500D01*
X617990Y217960D01*
X620530D01*
X623070Y215420D01*
X690052Y209755D02*
X692592Y212295D01*
X695132D01*
X692592Y214834D01*
X695132Y217374D01*
X692592D01*
X690052Y219914D01*
X687512Y217374D01*
X684972D01*
X687512Y214834D01*
X684972Y212295D01*
X687512D01*
X690052Y209755D01*
X501213Y390442D02*
X503753Y392982D01*
X506293D01*
X503753Y395522D01*
X506293Y398062D01*
X503753D01*
X501213Y400602D01*
X498673Y398062D01*
X496133D01*
X498673Y395522D01*
X496133Y392982D01*
X498673D01*
X501213Y390442D01*
X514029Y392474D02*
X516569Y395014D01*
X519109D01*
X516569Y397554D01*
X519109Y400094D01*
X516569D01*
X514029Y402634D01*
X511489Y400094D01*
X508949D01*
X511489Y397554D01*
X508949Y395014D01*
X511489D01*
X514029Y392474D01*
X488006Y640420D02*
X490546Y642960D01*
X493086D01*
X490546Y645500D01*
X493086Y648040D01*
X490546D01*
X488006Y650580D01*
X485466Y648040D01*
X482926D01*
X485466Y645500D01*
X482926Y642960D01*
X485466D01*
X488006Y640420D01*
X514117Y556524D02*
X516657Y559064D01*
X519197D01*
X516657Y561604D01*
X519197Y564144D01*
X516657D01*
X514117Y566684D01*
X511577Y564144D01*
X509037D01*
X511577Y561604D01*
X509037Y559064D01*
X511577D01*
X514117Y556524D01*
X500829Y698044D02*
X503369Y700583D01*
X505909D01*
X503369Y703123D01*
X505909Y705664D01*
X503369D01*
X500829Y708204D01*
X498289Y705664D01*
X495749D01*
X498289Y703123D01*
X495749Y700583D01*
X498289D01*
X500829Y698044D01*
X488178Y691420D02*
X490718Y693960D01*
X493258D01*
X490718Y696500D01*
X493258Y699040D01*
X490718D01*
X488178Y701580D01*
X485638Y699040D01*
X483098D01*
X485638Y696500D01*
X483098Y693960D01*
X485638D01*
X488178Y691420D01*
X514004Y704051D02*
X516544Y706590D01*
X519084D01*
X516544Y709130D01*
X519084Y711671D01*
X516544D01*
X514004Y714211D01*
X511464Y711671D01*
X508924D01*
X511464Y709130D01*
X508924Y706590D01*
X511464D01*
X514004Y704051D01*
X526876Y711017D02*
X529417Y713557D01*
X531956D01*
X529417Y716097D01*
X531956Y718637D01*
X529417D01*
X526876Y721177D01*
X524337Y718637D01*
X521796D01*
X524337Y716097D01*
X521796Y713557D01*
X524337D01*
X526876Y711017D01*
X513993Y498119D02*
X516533Y500659D01*
X519073D01*
X516533Y503199D01*
X519073Y505739D01*
X516533D01*
X513993Y508279D01*
X511453Y505739D01*
X508913D01*
X511453Y503199D01*
X508913Y500659D01*
X511453D01*
X513993Y498119D01*
X526986Y505206D02*
X529526Y507746D01*
X532066D01*
X529526Y510286D01*
X532066Y512826D01*
X529526D01*
X526986Y515366D01*
X524446Y512826D01*
X521906D01*
X524446Y510286D01*
X521906Y507746D01*
X524446D01*
X526986Y505206D01*
X750000Y679920D02*
X752540Y682460D01*
X755080D01*
X752540Y685000D01*
X755080Y687540D01*
X752540D01*
X750000Y690080D01*
X747460Y687540D01*
X744920D01*
X747460Y685000D01*
X744920Y682460D01*
X747460D01*
X750000Y679920D01*
Y687920D02*
X752540Y690460D01*
X755080D01*
X752540Y693000D01*
X755080Y695540D01*
X752540D01*
X750000Y698080D01*
X747460Y695540D01*
X744920D01*
X747460Y693000D01*
X744920Y690460D01*
X747460D01*
X750000Y687920D01*
X740529Y386693D02*
X743069Y389233D01*
X745609D01*
X743069Y391773D01*
X745609Y394313D01*
X743069D01*
X740529Y396853D01*
X737989Y394313D01*
X735449D01*
X737989Y391773D01*
X735449Y389233D01*
X737989D01*
X740529Y386693D01*
X337000Y72920D02*
X339540Y75460D01*
X342080D01*
X339540Y78000D01*
X342080Y80540D01*
X339540D01*
X337000Y83080D01*
X334460Y80540D01*
X331920D01*
X334460Y78000D01*
X331920Y75460D01*
X334460D01*
X337000Y72920D01*
X300000Y47920D02*
X302540Y50460D01*
X305080D01*
X302540Y53000D01*
X305080Y55540D01*
X302540D01*
X300000Y58080D01*
X297460Y55540D01*
X294920D01*
X297460Y53000D01*
X294920Y50460D01*
X297460D01*
X300000Y47920D01*
X673000Y680920D02*
X675540Y683460D01*
X678080D01*
X675540Y686000D01*
X678080Y688540D01*
X675540D01*
X673000Y691080D01*
X670460Y688540D01*
X667920D01*
X670460Y686000D01*
X667920Y683460D01*
X670460D01*
X673000Y680920D01*
X378000Y157920D02*
X380540Y160460D01*
X383080D01*
X380540Y163000D01*
X383080Y165540D01*
X380540D01*
X378000Y168080D01*
X375460Y165540D01*
X372920D01*
X375460Y163000D01*
X372920Y160460D01*
X375460D01*
X378000Y157920D01*
X502289Y113117D02*
X504829Y115656D01*
X507369D01*
X504829Y118196D01*
X507369Y120737D01*
X504829D01*
X502289Y123277D01*
X499749Y120737D01*
X497209D01*
X499749Y118196D01*
X497209Y115656D01*
X499749D01*
X502289Y113117D01*
X514000Y340920D02*
X516540Y343460D01*
X519080D01*
X516540Y346000D01*
X519080Y348540D01*
X516540D01*
X514000Y351080D01*
X511460Y348540D01*
X508920D01*
X511460Y346000D01*
X508920Y343460D01*
X511460D01*
X514000Y340920D01*
X527000Y350920D02*
X529540Y353460D01*
X532080D01*
X529540Y356000D01*
X532080Y358540D01*
X529540D01*
X527000Y361080D01*
X524460Y358540D01*
X521920D01*
X524460Y356000D01*
X521920Y353460D01*
X524460D01*
X527000Y350920D01*
X412194Y608720D02*
X414734Y611260D01*
X417274D01*
X414734Y613800D01*
X417274Y616340D01*
X414734D01*
X412194Y618880D01*
X409654Y616340D01*
X407114D01*
X409654Y613800D01*
X407114Y611260D01*
X409654D01*
X412194Y608720D01*
X144000Y684920D02*
X146540Y687460D01*
X149080D01*
X146540Y690000D01*
X149080Y692540D01*
X146540D01*
X144000Y695080D01*
X141460Y692540D01*
X138920D01*
X141460Y690000D01*
X138920Y687460D01*
X141460D01*
X144000Y684920D01*
X143000Y620920D02*
X145540Y623460D01*
X148080D01*
X145540Y626000D01*
X148080Y628540D01*
X145540D01*
X143000Y631080D01*
X140460Y628540D01*
X137920D01*
X140460Y626000D01*
X137920Y623460D01*
X140460D01*
X143000Y620920D01*
Y556920D02*
X145540Y559460D01*
X148080D01*
X145540Y562000D01*
X148080Y564540D01*
X145540D01*
X143000Y567080D01*
X140460Y564540D01*
X137920D01*
X140460Y562000D01*
X137920Y559460D01*
X140460D01*
X143000Y556920D01*
Y490920D02*
X145540Y493460D01*
X148080D01*
X145540Y496000D01*
X148080Y498540D01*
X145540D01*
X143000Y501080D01*
X140460Y498540D01*
X137920D01*
X140460Y496000D01*
X137920Y493460D01*
X140460D01*
X143000Y490920D01*
Y425920D02*
X145540Y428460D01*
X148080D01*
X145540Y431000D01*
X148080Y433540D01*
X145540D01*
X143000Y436080D01*
X140460Y433540D01*
X137920D01*
X140460Y431000D01*
X137920Y428460D01*
X140460D01*
X143000Y425920D01*
Y359920D02*
X145540Y362460D01*
X148080D01*
X145540Y365000D01*
X148080Y367540D01*
X145540D01*
X143000Y370080D01*
X140460Y367540D01*
X137920D01*
X140460Y365000D01*
X137920Y362460D01*
X140460D01*
X143000Y359920D01*
X236200Y359146D02*
X238740Y361686D01*
X241280D01*
X238740Y364226D01*
X241280Y366766D01*
X238740D01*
X236200Y369306D01*
X233660Y366766D01*
X231120D01*
X233660Y364226D01*
X231120Y361686D01*
X233660D01*
X236200Y359146D01*
X236000Y423920D02*
X238540Y426460D01*
X241080D01*
X238540Y429000D01*
X241080Y431540D01*
X238540D01*
X236000Y434080D01*
X233460Y431540D01*
X230920D01*
X233460Y429000D01*
X230920Y426460D01*
X233460D01*
X236000Y423920D01*
Y489920D02*
X238540Y492460D01*
X241080D01*
X238540Y495000D01*
X241080Y497540D01*
X238540D01*
X236000Y500080D01*
X233460Y497540D01*
X230920D01*
X233460Y495000D01*
X230920Y492460D01*
X233460D01*
X236000Y489920D01*
X235702Y554686D02*
X238242Y557226D01*
X240782D01*
X238242Y559766D01*
X240782Y562306D01*
X238242D01*
X235702Y564846D01*
X233162Y562306D01*
X230622D01*
X233162Y559766D01*
X230622Y557226D01*
X233162D01*
X235702Y554686D01*
X237000Y619920D02*
X239540Y622460D01*
X242080D01*
X239540Y625000D01*
X242080Y627540D01*
X239540D01*
X237000Y630080D01*
X234460Y627540D01*
X231920D01*
X234460Y625000D01*
X231920Y622460D01*
X234460D01*
X237000Y619920D01*
Y684920D02*
X239540Y687460D01*
X242080D01*
X239540Y690000D01*
X242080Y692540D01*
X239540D01*
X237000Y695080D01*
X234460Y692540D01*
X231920D01*
X234460Y690000D01*
X231920Y687460D01*
X234460D01*
X237000Y684920D01*
X329592Y684033D02*
X332132Y686573D01*
X334672D01*
X332132Y689113D01*
X334672Y691653D01*
X332132D01*
X329592Y694193D01*
X327052Y691653D01*
X324512D01*
X327052Y689113D01*
X324512Y686573D01*
X327052D01*
X329592Y684033D01*
X320000Y610920D02*
X322540Y613460D01*
X325080D01*
X322540Y616000D01*
X325080Y618540D01*
X322540D01*
X320000Y621080D01*
X317460Y618540D01*
X314920D01*
X317460Y616000D01*
X314920Y613460D01*
X317460D01*
X320000Y610920D01*
X320424Y546376D02*
X322963Y548916D01*
X325504D01*
X322963Y551456D01*
X325504Y553996D01*
X322963D01*
X320424Y556536D01*
X317883Y553996D01*
X315343D01*
X317883Y551456D01*
X315343Y548916D01*
X317883D01*
X320424Y546376D01*
X320510Y481016D02*
X323050Y483556D01*
X325590D01*
X323050Y486096D01*
X325590Y488636D01*
X323050D01*
X320510Y491176D01*
X317970Y488636D01*
X315430D01*
X317970Y486096D01*
X315430Y483556D01*
X317970D01*
X320510Y481016D01*
X319000Y415920D02*
X321540Y418460D01*
X324080D01*
X321540Y421000D01*
X324080Y423540D01*
X321540D01*
X319000Y426080D01*
X316460Y423540D01*
X313920D01*
X316460Y421000D01*
X313920Y418460D01*
X316460D01*
X319000Y415920D01*
X320000Y350920D02*
X322540Y353460D01*
X325080D01*
X322540Y356000D01*
X325080Y358540D01*
X322540D01*
X320000Y361080D01*
X317460Y358540D01*
X314920D01*
X317460Y356000D01*
X314920Y353460D01*
X317460D01*
X320000Y350920D01*
X412690Y408510D02*
X415230Y411050D01*
X417770D01*
X415230Y413590D01*
X417770Y416130D01*
X415230D01*
X412690Y418670D01*
X410150Y416130D01*
X407610D01*
X410150Y413590D01*
X407610Y411050D01*
X410150D01*
X412690Y408510D01*
X414000Y480920D02*
X416540Y483460D01*
X419080D01*
X416540Y486000D01*
X419080Y488540D01*
X416540D01*
X414000Y491080D01*
X411460Y488540D01*
X408920D01*
X411460Y486000D01*
X408920Y483460D01*
X411460D01*
X414000Y480920D01*
X412000Y543920D02*
X414540Y546460D01*
X417080D01*
X414540Y549000D01*
X417080Y551540D01*
X414540D01*
X412000Y554080D01*
X409460Y551540D01*
X406920D01*
X409460Y549000D01*
X406920Y546460D01*
X409460D01*
X412000Y543920D01*
X411074Y676477D02*
X413614Y679017D01*
X416154D01*
X413614Y681557D01*
X416154Y684097D01*
X413614D01*
X411074Y686637D01*
X408534Y684097D01*
X405994D01*
X408534Y681557D01*
X405994Y679017D01*
X408534D01*
X411074Y676477D01*
X660681Y629314D02*
X663221Y631854D01*
X665761D01*
X663221Y634394D01*
X665761Y636934D01*
X663221D01*
X660681Y639474D01*
X658141Y636934D01*
X655601D01*
X658141Y634394D01*
X655601Y631854D01*
X658141D01*
X660681Y629314D01*
X660775Y539285D02*
X663315Y541825D01*
X665855D01*
X663315Y544365D01*
X665855Y546905D01*
X663315D01*
X660775Y549445D01*
X658235Y546905D01*
X655695D01*
X658235Y544365D01*
X655695Y541825D01*
X658235D01*
X660775Y539285D01*
X389000Y233920D02*
X391540Y236460D01*
X394080D01*
X391540Y239000D01*
X394080Y241540D01*
X391540D01*
X389000Y244080D01*
X386460Y241540D01*
X383920D01*
X386460Y239000D01*
X383920Y236460D01*
X386460D01*
X389000Y233920D01*
X147000Y199587D02*
X149540Y202127D01*
X152080D01*
X149540Y204667D01*
X152080Y207207D01*
X149540D01*
X147000Y209747D01*
X144460Y207207D01*
X141920D01*
X144460Y204667D01*
X141920Y202127D01*
X144460D01*
X147000Y199587D01*
Y189920D02*
X149540Y192460D01*
X152080D01*
X149540Y195000D01*
X152080Y197540D01*
X149540D01*
X147000Y200080D01*
X144460Y197540D01*
X141920D01*
X144460Y195000D01*
X141920Y192460D01*
X144460D01*
X147000Y189920D01*
Y209253D02*
X149540Y211793D01*
X152080D01*
X149540Y214333D01*
X152080Y216873D01*
X149540D01*
X147000Y219413D01*
X144460Y216873D01*
X141920D01*
X144460Y214333D01*
X141920Y211793D01*
X144460D01*
X147000Y209253D01*
Y218920D02*
X149540Y221460D01*
X152080D01*
X149540Y224000D01*
X152080Y226540D01*
X149540D01*
X147000Y229080D01*
X144460Y226540D01*
X141920D01*
X144460Y224000D01*
X141920Y221460D01*
X144460D01*
X147000Y218920D01*
X689000Y600920D02*
X691540Y603460D01*
X694080D01*
X691540Y606000D01*
X694080Y608540D01*
X691540D01*
X689000Y611080D01*
X686460Y608540D01*
X683920D01*
X686460Y606000D01*
X683920Y603460D01*
X686460D01*
X689000Y600920D01*
Y609920D02*
X691540Y612460D01*
X694080D01*
X691540Y615000D01*
X694080Y617540D01*
X691540D01*
X689000Y620080D01*
X686460Y617540D01*
X683920D01*
X686460Y615000D01*
X683920Y612460D01*
X686460D01*
X689000Y609920D01*
Y537920D02*
X691540Y540460D01*
X694080D01*
X691540Y543000D01*
X694080Y545540D01*
X691540D01*
X689000Y548080D01*
X686460Y545540D01*
X683920D01*
X686460Y543000D01*
X683920Y540460D01*
X686460D01*
X689000Y537920D01*
Y555920D02*
X691540Y558460D01*
X694080D01*
X691540Y561000D01*
X694080Y563540D01*
X691540D01*
X689000Y566080D01*
X686460Y563540D01*
X683920D01*
X686460Y561000D01*
X683920Y558460D01*
X686460D01*
X689000Y555920D01*
X481476Y515664D02*
X484016Y518204D01*
X486556D01*
X484016Y520744D01*
X486556Y523284D01*
X484016D01*
X481476Y525824D01*
X478936Y523284D01*
X476396D01*
X478936Y520744D01*
X476396Y518204D01*
X478936D01*
X481476Y515664D01*
X481634Y672727D02*
X484174Y675267D01*
X486714D01*
X484174Y677807D01*
X486714Y680347D01*
X484174D01*
X481634Y682887D01*
X479094Y680347D01*
X476554D01*
X479094Y677807D01*
X476554Y675267D01*
X479094D01*
X481634Y672727D01*
X462000Y459920D02*
X464540Y462460D01*
X467080D01*
X464540Y465000D01*
X467080Y467540D01*
X464540D01*
X462000Y470080D01*
X459460Y467540D01*
X456920D01*
X459460Y465000D01*
X456920Y462460D01*
X459460D01*
X462000Y459920D01*
Y303920D02*
X464540Y306460D01*
X467080D01*
X464540Y309000D01*
X467080Y311540D01*
X464540D01*
X462000Y314080D01*
X459460Y311540D01*
X456920D01*
X459460Y309000D01*
X456920Y306460D01*
X459460D01*
X462000Y303920D01*
X692625Y476073D02*
X695165Y478613D01*
X697705D01*
X695165Y481153D01*
X697705Y483693D01*
X695165D01*
X692625Y486233D01*
X690085Y483693D01*
X687545D01*
X690085Y481153D01*
X687545Y478613D01*
X690085D01*
X692625Y476073D01*
X705000Y580920D02*
X707540Y583460D01*
X710080D01*
X707540Y586000D01*
X710080Y588540D01*
X707540D01*
X705000Y591080D01*
X702460Y588540D01*
X699920D01*
X702460Y586000D01*
X699920Y583460D01*
X702460D01*
X705000Y580920D01*
X585000Y194920D02*
X587540Y197460D01*
X590080D01*
X587540Y200000D01*
X590080Y202540D01*
X587540D01*
X585000Y205080D01*
X582460Y202540D01*
X579920D01*
X582460Y200000D01*
X579920Y197460D01*
X582460D01*
X585000Y194920D01*
X572000Y187920D02*
X574540Y190460D01*
X577080D01*
X574540Y193000D01*
X577080Y195540D01*
X574540D01*
X572000Y198080D01*
X569460Y195540D01*
X566920D01*
X569460Y193000D01*
X566920Y190460D01*
X569460D01*
X572000Y187920D01*
X696120Y697827D02*
X698660Y700367D01*
X701200D01*
X698660Y702907D01*
X701200Y705447D01*
X698660D01*
X696120Y707987D01*
X693580Y705447D01*
X691040D01*
X693580Y702907D01*
X691040Y700367D01*
X693580D01*
X696120Y697827D01*
X720000Y565920D02*
X722540Y568460D01*
X725080D01*
X722540Y571000D01*
X725080Y573540D01*
X722540D01*
X720000Y576080D01*
X717460Y573540D01*
X714920D01*
X717460Y571000D01*
X714920Y568460D01*
X717460D01*
X720000Y565920D01*
X688000Y716920D02*
X690540Y719460D01*
X693080D01*
X690540Y722000D01*
X693080Y724540D01*
X690540D01*
X688000Y727080D01*
X685460Y724540D01*
X682920D01*
X685460Y722000D01*
X682920Y719460D01*
X685460D01*
X688000Y716920D01*
X689000Y670920D02*
X691540Y673460D01*
X694080D01*
X691540Y676000D01*
X694080Y678540D01*
X691540D01*
X689000Y681080D01*
X686460Y678540D01*
X683920D01*
X686460Y676000D01*
X683920Y673460D01*
X686460D01*
X689000Y670920D01*
X553000Y705920D02*
X555540Y708460D01*
X558080D01*
X555540Y711000D01*
X558080Y713540D01*
X555540D01*
X553000Y716080D01*
X550460Y713540D01*
X547920D01*
X550460Y711000D01*
X547920Y708460D01*
X550460D01*
X553000Y705920D01*
X739047Y736303D02*
X741587Y738843D01*
X744127D01*
X741587Y741383D01*
X744127Y743923D01*
X741587D01*
X739047Y746463D01*
X736507Y743923D01*
X733967D01*
X736507Y741383D01*
X733967Y738843D01*
X736507D01*
X739047Y736303D01*
X753410Y582451D02*
X755950Y584991D01*
X758490D01*
X755950Y587531D01*
X758490Y590071D01*
X755950D01*
X753410Y592611D01*
X750870Y590071D01*
X748330D01*
X750870Y587531D01*
X748330Y584991D01*
X750870D01*
X753410Y582451D01*
X780000Y503920D02*
X782540Y506460D01*
X785080D01*
X782540Y509000D01*
X785080Y511540D01*
X782540D01*
X780000Y514080D01*
X777460Y511540D01*
X774920D01*
X777460Y509000D01*
X774920Y506460D01*
X777460D01*
X780000Y503920D01*
X487680Y381040D02*
X490220Y383579D01*
X492760D01*
X490220Y386119D01*
X492760Y388660D01*
X490220D01*
X487680Y391199D01*
X485140Y388660D01*
X482600D01*
X485140Y386119D01*
X482600Y383579D01*
X485140D01*
X487680Y381040D01*
X307000Y250920D02*
X309540Y253460D01*
X312080D01*
X309540Y256000D01*
X312080Y258540D01*
X309540D01*
X307000Y261080D01*
X304460Y258540D01*
X301920D01*
X304460Y256000D01*
X301920Y253460D01*
X304460D01*
X307000Y250920D01*
X753000Y635920D02*
X755540Y638460D01*
X758080D01*
X755540Y641000D01*
X758080Y643540D01*
X755540D01*
X753000Y646080D01*
X750460Y643540D01*
X747920D01*
X750460Y641000D01*
X747920Y638460D01*
X750460D01*
X753000Y635920D01*
X740000Y330920D02*
X742540Y333460D01*
X745080D01*
X742540Y336000D01*
X745080Y338540D01*
X742540D01*
X740000Y341080D01*
X737460Y338540D01*
X734920D01*
X737460Y336000D01*
X734920Y333460D01*
X737460D01*
X740000Y330920D01*
X336000Y175920D02*
X338540Y178460D01*
X341080D01*
X338540Y181000D01*
X341080Y183540D01*
X338540D01*
X336000Y186080D01*
X333460Y183540D01*
X330920D01*
X333460Y181000D01*
X330920Y178460D01*
X333460D01*
X336000Y175920D01*
X313000Y231920D02*
X315540Y234460D01*
X318080D01*
X315540Y237000D01*
X318080Y239540D01*
X315540D01*
X313000Y242080D01*
X310460Y239540D01*
X307920D01*
X310460Y237000D01*
X307920Y234460D01*
X310460D01*
X313000Y231920D01*
X307502Y149599D02*
X310042Y152139D01*
X312582D01*
X310042Y154679D01*
X312582Y157219D01*
X310042D01*
X307502Y159759D01*
X304961Y157219D01*
X302421D01*
X304961Y154679D01*
X302421Y152139D01*
X304961D01*
X307502Y149599D01*
X314000Y130920D02*
X316540Y133460D01*
X319080D01*
X316540Y136000D01*
X319080Y138540D01*
X316540D01*
X314000Y141080D01*
X311460Y138540D01*
X308920D01*
X311460Y136000D01*
X308920Y133460D01*
X311460D01*
X314000Y130920D01*
X281000Y144920D02*
X283540Y147460D01*
X286080D01*
X283540Y150000D01*
X286080Y152540D01*
X283540D01*
X281000Y155080D01*
X278460Y152540D01*
X275920D01*
X278460Y150000D01*
X275920Y147460D01*
X278460D01*
X281000Y144920D01*
X280000Y246920D02*
X282540Y249460D01*
X285080D01*
X282540Y252000D01*
X285080Y254540D01*
X282540D01*
X280000Y257080D01*
X277460Y254540D01*
X274920D01*
X277460Y252000D01*
X274920Y249460D01*
X277460D01*
X280000Y246920D01*
X254000Y439920D02*
X256540Y442460D01*
X259080D01*
X256540Y445000D01*
X259080Y447540D01*
X256540D01*
X254000Y450080D01*
X251460Y447540D01*
X248920D01*
X251460Y445000D01*
X248920Y442460D01*
X251460D01*
X254000Y439920D01*
X546000Y172920D02*
X548540Y175460D01*
X551080D01*
X548540Y178000D01*
X551080Y180540D01*
X548540D01*
X546000Y183080D01*
X543460Y180540D01*
X540920D01*
X543460Y178000D01*
X540920Y175460D01*
X543460D01*
X546000Y172920D01*
X450850Y582930D02*
X453390Y585470D01*
X455930D01*
X453390Y588010D01*
X455930Y590550D01*
X453390D01*
X450850Y593090D01*
X448310Y590550D01*
X445770D01*
X448310Y588010D01*
X445770Y585470D01*
X448310D01*
X450850Y582930D01*
Y278170D02*
X453390Y280710D01*
X455930D01*
X453390Y283250D01*
X455930Y285790D01*
X453390D01*
X450850Y288330D01*
X448310Y285790D01*
X445770D01*
X448310Y283250D01*
X445770Y280710D01*
X448310D01*
X450850Y278170D01*
X588000Y91832D02*
X590540Y94372D01*
X593080D01*
X590540Y96912D01*
X593080Y99452D01*
X590540D01*
X588000Y101992D01*
X585460Y99452D01*
X582920D01*
X585460Y96912D01*
X582920Y94372D01*
X585460D01*
X588000Y91832D01*
X412000Y90920D02*
X414540Y93460D01*
X417080D01*
X414540Y96000D01*
X417080Y98540D01*
X414540D01*
X412000Y101080D01*
X409460Y98540D01*
X406920D01*
X409460Y96000D01*
X406920Y93460D01*
X409460D01*
X412000Y90920D01*
Y154920D02*
X414540Y157460D01*
X417080D01*
X414540Y160000D01*
X417080Y162540D01*
X414540D01*
X412000Y165080D01*
X409460Y162540D01*
X406920D01*
X409460Y160000D01*
X406920Y157460D01*
X409460D01*
X412000Y154920D01*
X389000Y200920D02*
X391540Y203460D01*
X394080D01*
X391540Y206000D01*
X394080Y208540D01*
X391540D01*
X389000Y211080D01*
X386460Y208540D01*
X383920D01*
X386460Y206000D01*
X383920Y203460D01*
X386460D01*
X389000Y200920D01*
D97*
X590280Y328300D02*
G03*
X590280Y328300I-5080J0D01*
G01*
X610280D02*
G03*
X610280Y328300I-5080J0D01*
G01*
X656280Y706300D02*
G03*
X656280Y706300I-5080J0D01*
G01*
X636280D02*
G03*
X636280Y706300I-5080J0D01*
G01*
X656280Y596300D02*
G03*
X656280Y596300I-5080J0D01*
G01*
X636280D02*
G03*
X636280Y596300I-5080J0D01*
G01*
Y376300D02*
G03*
X636280Y376300I-5080J0D01*
G01*
X656280D02*
G03*
X656280Y376300I-5080J0D01*
G01*
X610280Y658300D02*
G03*
X610280Y658300I-5080J0D01*
G01*
X590280D02*
G03*
X590280Y658300I-5080J0D01*
G01*
X656280Y486300D02*
G03*
X656280Y486300I-5080J0D01*
G01*
X636280D02*
G03*
X636280Y486300I-5080J0D01*
G01*
X610280Y548300D02*
G03*
X610280Y548300I-5080J0D01*
G01*
X590280D02*
G03*
X590280Y548300I-5080J0D01*
G01*
X610280Y438300D02*
G03*
X610280Y438300I-5080J0D01*
G01*
X590280D02*
G03*
X590280Y438300I-5080J0D01*
G01*
M02*
