G04*
G04 #@! TF.GenerationSoftware,Altium Limited,Altium Designer,25.8.1 (18)*
G04*
G04 Layer_Physical_Order=1*
G04 Layer_Color=255*
%FSLAX44Y44*%
%MOMM*%
G71*
G04*
G04 #@! TF.SameCoordinates,5DE29F06-CBE8-4A30-823B-2EEFCEBFC4E8*
G04*
G04*
G04 #@! TF.FilePolarity,Positive*
G04*
G01*
G75*
%ADD12C,1.0000*%
%ADD13C,1.1000*%
%ADD18C,0.4000*%
%ADD19C,0.3500*%
%ADD20C,0.3000*%
%ADD21C,0.2500*%
%ADD22C,0.5000*%
%ADD23C,1.0000*%
%ADD24C,0.3000*%
%ADD25C,5.0000*%
%ADD26O,2.7000X0.8000*%
%ADD27C,0.9000*%
%ADD28C,0.6000*%
G36*
X790000Y773650D02*
X790000Y773286D01*
X786753Y770000D01*
X787704Y767704D01*
X790000Y766753D01*
X793286Y770000D01*
X793639Y770000D01*
X811753D01*
X814179Y767574D01*
X814950Y768417D01*
X814956Y766797D01*
X816753Y765000D01*
X816753Y30000D01*
X795000D01*
X790000Y30000D01*
X790000Y33247D01*
X787704Y32296D01*
X786753Y30000D01*
X790000Y30000D01*
X790000Y25000D01*
Y3247D01*
X30000D01*
Y26350D01*
X30000Y26714D01*
X33247Y30000D01*
X32296Y32296D01*
X30000Y33247D01*
X26714Y30000D01*
X26361Y30000D01*
X8247D01*
X6026Y32221D01*
X5018Y30944D01*
X5015Y33232D01*
X3247Y35000D01*
X3247Y770000D01*
X25000D01*
X30000Y770000D01*
X30000Y766753D01*
X32296Y767704D01*
X33247Y770000D01*
X30000Y770000D01*
X30000Y775000D01*
Y796753D01*
X790000D01*
Y773650D01*
D02*
G37*
%LPC*%
G36*
X741118Y746383D02*
X736976D01*
X735816Y745222D01*
X735743Y745197D01*
X735725Y745193D01*
X735621Y745184D01*
X735597Y745171D01*
X583383D01*
X583383Y745171D01*
X580704Y744062D01*
X552761Y716119D01*
X552735Y716111D01*
X552655Y716044D01*
X552639Y716033D01*
X552570Y716000D01*
X550929D01*
X548000Y713071D01*
Y708929D01*
X550929Y706000D01*
X555071D01*
X558000Y708929D01*
Y710570D01*
X558033Y710639D01*
X558044Y710655D01*
X558111Y710735D01*
X558119Y710761D01*
X584952Y737594D01*
X735597D01*
X735621Y737581D01*
X735725Y737572D01*
X735743Y737568D01*
X735816Y737543D01*
X736976Y736383D01*
X741118D01*
X744047Y739312D01*
Y743454D01*
X741118Y746383D01*
D02*
G37*
G36*
X690071Y727000D02*
X685929D01*
X683000Y724071D01*
Y719929D01*
X685929Y717000D01*
X690071D01*
X693000Y719929D01*
Y724071D01*
X690071Y727000D01*
D02*
G37*
G36*
X528948Y721097D02*
X524805D01*
X524135Y720426D01*
X195097D01*
X192035Y719158D01*
X132197Y659320D01*
X128092Y656892D01*
X127046Y657325D01*
X126997Y657362D01*
X126903Y657385D01*
X123500Y658794D01*
X104500D01*
X99908Y656892D01*
X98006Y652300D01*
X99908Y647708D01*
X104500Y645806D01*
X123500D01*
X126903Y647215D01*
X126997Y647238D01*
X127046Y647275D01*
X128092Y647708D01*
X128133Y647808D01*
X128354Y647871D01*
X128764Y647961D01*
X128824Y647970D01*
X131300D01*
X134361Y649239D01*
X196890Y711767D01*
X295898D01*
X297811Y707148D01*
X247293Y656629D01*
X222124D01*
X222064Y656639D01*
X221654Y656729D01*
X221434Y656792D01*
X221392Y656892D01*
X220346Y657325D01*
X220297Y657362D01*
X220203Y657385D01*
X216800Y658794D01*
X197800D01*
X193208Y656892D01*
X191306Y652300D01*
X192536Y649330D01*
X190730Y645061D01*
X190161Y644222D01*
X187358Y643062D01*
X135927Y591630D01*
X128824D01*
X128764Y591639D01*
X128354Y591729D01*
X128133Y591792D01*
X128092Y591892D01*
X127046Y592325D01*
X126997Y592362D01*
X126903Y592385D01*
X123500Y593794D01*
X104500D01*
X99908Y591892D01*
X98006Y587300D01*
X99908Y582708D01*
X104500Y580806D01*
X123500D01*
X126903Y582215D01*
X126997Y582238D01*
X127046Y582275D01*
X128092Y582708D01*
X128133Y582808D01*
X128354Y582871D01*
X128764Y582961D01*
X128824Y582970D01*
X137720D01*
X140781Y584239D01*
X192213Y635670D01*
X266785D01*
X268856Y630670D01*
X229816Y591630D01*
X222124D01*
X222064Y591639D01*
X221654Y591729D01*
X221434Y591792D01*
X221392Y591892D01*
X220346Y592325D01*
X220297Y592362D01*
X220203Y592385D01*
X216800Y593794D01*
X197800D01*
X193208Y591892D01*
X191306Y587300D01*
X193208Y582708D01*
X197800Y580806D01*
X216800D01*
X220203Y582215D01*
X220297Y582238D01*
X220346Y582275D01*
X221392Y582708D01*
X221434Y582808D01*
X221654Y582871D01*
X222064Y582961D01*
X222124Y582970D01*
X231609D01*
X234670Y584239D01*
X277102Y626670D01*
X351856D01*
X353927Y621670D01*
X323887Y591630D01*
X315424D01*
X315364Y591639D01*
X314954Y591729D01*
X314734Y591792D01*
X314692Y591892D01*
X313646Y592325D01*
X313597Y592362D01*
X313503Y592385D01*
X310100Y593794D01*
X291100D01*
X286508Y591892D01*
X284606Y587300D01*
X285422Y585330D01*
X282353Y580330D01*
X267742D01*
X267071Y581000D01*
X262929D01*
X260000Y578071D01*
Y573929D01*
X259752Y573330D01*
X180380D01*
X177318Y572062D01*
X132753Y527496D01*
X128092Y526892D01*
X127046Y527325D01*
X126997Y527362D01*
X126903Y527385D01*
X123500Y528794D01*
X104500D01*
X99908Y526892D01*
X98006Y522300D01*
X99908Y517708D01*
X104500Y515806D01*
X123500D01*
X126903Y517215D01*
X126997Y517238D01*
X127046Y517275D01*
X128092Y517708D01*
X128133Y517808D01*
X128354Y517871D01*
X128764Y517961D01*
X128824Y517970D01*
X133680D01*
X136742Y519239D01*
X182173Y564670D01*
X268805D01*
X270718Y560051D01*
X237297Y526630D01*
X222124D01*
X222064Y526639D01*
X221654Y526729D01*
X221434Y526792D01*
X221392Y526892D01*
X220346Y527325D01*
X220297Y527362D01*
X220203Y527385D01*
X216800Y528794D01*
X197800D01*
X193208Y526892D01*
X191317Y522327D01*
X191306Y522300D01*
X193208Y517708D01*
X193234Y517697D01*
X196012Y516546D01*
X197533Y511783D01*
X197477Y510940D01*
X148167Y461630D01*
X128824D01*
X128764Y461639D01*
X128354Y461729D01*
X128133Y461792D01*
X128092Y461892D01*
X127046Y462325D01*
X126997Y462362D01*
X126903Y462385D01*
X123500Y463794D01*
X104500D01*
X99908Y461892D01*
X98006Y457300D01*
X99908Y452708D01*
X104500Y450806D01*
X123500D01*
X126903Y452215D01*
X126997Y452238D01*
X127046Y452275D01*
X128092Y452708D01*
X128133Y452808D01*
X128354Y452871D01*
X128764Y452961D01*
X128824Y452970D01*
X149960D01*
X153021Y454239D01*
X204740Y505957D01*
X278671D01*
X280584Y501337D01*
X240877Y461630D01*
X222124D01*
X222064Y461639D01*
X221654Y461729D01*
X221434Y461792D01*
X221392Y461892D01*
X220346Y462325D01*
X220297Y462362D01*
X220203Y462385D01*
X216800Y463794D01*
X197800D01*
X193208Y461892D01*
X191306Y457300D01*
X193208Y452708D01*
X197800Y450806D01*
X216800D01*
X220203Y452215D01*
X220297Y452238D01*
X220346Y452275D01*
X221392Y452708D01*
X221434Y452808D01*
X221654Y452871D01*
X222064Y452961D01*
X222124Y452970D01*
X242670D01*
X245732Y454239D01*
X291392Y499899D01*
X365323D01*
X367237Y495280D01*
X333587Y461630D01*
X315424D01*
X315364Y461639D01*
X314954Y461729D01*
X314734Y461792D01*
X314692Y461892D01*
X313646Y462325D01*
X313597Y462362D01*
X313503Y462385D01*
X310100Y463794D01*
X291100D01*
X286508Y461892D01*
X284606Y457300D01*
X285836Y454330D01*
X283353Y449330D01*
X256742D01*
X256071Y450000D01*
X251929D01*
X249000Y447071D01*
Y442929D01*
X248627Y442029D01*
X201186D01*
X198125Y440761D01*
X153993Y396630D01*
X128824D01*
X128764Y396639D01*
X128354Y396729D01*
X128133Y396792D01*
X128092Y396892D01*
X127046Y397325D01*
X126997Y397362D01*
X126903Y397385D01*
X123500Y398794D01*
X104500D01*
X99908Y396892D01*
X98006Y392300D01*
X99908Y387708D01*
X104500Y385806D01*
X123500D01*
X126903Y387215D01*
X126997Y387238D01*
X127046Y387275D01*
X128092Y387708D01*
X128133Y387808D01*
X128354Y387871D01*
X128764Y387961D01*
X128824Y387970D01*
X155786D01*
X158848Y389239D01*
X186686Y417077D01*
X192206Y415526D01*
X193208Y413108D01*
X197800Y411206D01*
X216800D01*
X221392Y413108D01*
X223294Y417700D01*
X221392Y422292D01*
X216800Y424194D01*
X200875D01*
X198804Y429194D01*
X202980Y433370D01*
X267045D01*
X268958Y428751D01*
X236837Y396630D01*
X222124D01*
X222064Y396639D01*
X221654Y396729D01*
X221434Y396792D01*
X221392Y396892D01*
X220346Y397325D01*
X220297Y397362D01*
X220203Y397385D01*
X216800Y398794D01*
X197800D01*
X193235Y396903D01*
X193208Y396892D01*
X191306Y392300D01*
X191317Y392274D01*
X192207Y390124D01*
X191751Y385237D01*
X190785Y383598D01*
X138817Y331630D01*
X128824D01*
X128764Y331639D01*
X128354Y331729D01*
X128133Y331792D01*
X128092Y331892D01*
X127046Y332325D01*
X126997Y332362D01*
X126903Y332385D01*
X123500Y333794D01*
X104500D01*
X99908Y331892D01*
X98006Y327300D01*
X99908Y322708D01*
X104500Y320806D01*
X123500D01*
X126903Y322215D01*
X126997Y322238D01*
X127046Y322275D01*
X128092Y322708D01*
X128133Y322808D01*
X128354Y322871D01*
X128764Y322961D01*
X128824Y322970D01*
X140610D01*
X143672Y324239D01*
X196537Y377104D01*
X280755D01*
X282826Y372104D01*
X242352Y331630D01*
X222124D01*
X222064Y331639D01*
X221654Y331729D01*
X221434Y331792D01*
X221392Y331892D01*
X220346Y332325D01*
X220297Y332362D01*
X220203Y332385D01*
X216800Y333794D01*
X197800D01*
X193208Y331892D01*
X191306Y327300D01*
X193208Y322708D01*
X197800Y320806D01*
X216800D01*
X220203Y322215D01*
X220297Y322238D01*
X220346Y322275D01*
X221392Y322708D01*
X221434Y322808D01*
X221654Y322871D01*
X222064Y322961D01*
X222124Y322970D01*
X244145D01*
X247206Y324239D01*
X281687Y358719D01*
X285926Y355886D01*
X284606Y352700D01*
X286508Y348108D01*
X291100Y346206D01*
X310100D01*
X314692Y348108D01*
X316594Y352700D01*
X314692Y357292D01*
X310100Y359194D01*
X291100D01*
X287913Y357874D01*
X285081Y362113D01*
X291638Y368670D01*
X338276D01*
X340348Y363670D01*
X310886Y334209D01*
X310698Y334080D01*
X310334Y333865D01*
X310150Y333774D01*
X310100Y333794D01*
X291100D01*
X286508Y331892D01*
X284606Y327300D01*
X286508Y322708D01*
X291100Y320806D01*
X310100D01*
X314665Y322696D01*
X314692Y322708D01*
X316102Y326111D01*
X316152Y326193D01*
X316161Y326254D01*
X316594Y327300D01*
X316553Y327400D01*
X316664Y327601D01*
X316891Y327955D01*
X316926Y328003D01*
X349593Y360670D01*
X376653D01*
X379136Y355670D01*
X377906Y352700D01*
X379808Y348108D01*
X384400Y346206D01*
X403400D01*
X407965Y348097D01*
X407992Y348108D01*
X409894Y352700D01*
X409883Y352726D01*
X409745Y353061D01*
X413983Y355894D01*
X433247Y336630D01*
X431176Y331630D01*
X408724D01*
X408664Y331639D01*
X408254Y331729D01*
X408033Y331792D01*
X407992Y331892D01*
X406946Y332325D01*
X406897Y332362D01*
X406803Y332385D01*
X403400Y333794D01*
X384400D01*
X379808Y331892D01*
X377906Y327300D01*
X379808Y322708D01*
X384400Y320806D01*
X403400D01*
X406803Y322215D01*
X406897Y322238D01*
X406946Y322275D01*
X407992Y322708D01*
X408033Y322808D01*
X408254Y322871D01*
X408665Y322961D01*
X408724Y322970D01*
X464463D01*
X465157Y321714D01*
X465996Y317971D01*
X462233Y314208D01*
X462209Y314198D01*
X462160Y314182D01*
X462121Y314173D01*
X462086Y314168D01*
X461950Y314163D01*
X461594Y314000D01*
X459929D01*
X457000Y311071D01*
Y306929D01*
X459929Y304000D01*
X464071D01*
X467000Y306929D01*
Y308594D01*
X467163Y308951D01*
X467168Y309086D01*
X467173Y309121D01*
X467182Y309160D01*
X467197Y309209D01*
X467208Y309233D01*
X470732Y312757D01*
X547152D01*
X547154Y312757D01*
X547185Y312740D01*
X547206Y312725D01*
X547222Y312712D01*
X547313Y312620D01*
X547705Y312453D01*
X549029Y311129D01*
X553171D01*
X556100Y314058D01*
Y318200D01*
X553171Y321129D01*
X549029D01*
X547986Y320086D01*
X547664Y319983D01*
X547556Y319892D01*
X547518Y319865D01*
X547471Y319838D01*
X547412Y319810D01*
X547367Y319793D01*
X492675D01*
X489259Y324793D01*
X489751Y326054D01*
X492680Y328983D01*
Y333125D01*
X492721Y333224D01*
X498173D01*
X498843Y332554D01*
X502985D01*
X505914Y335483D01*
Y339625D01*
X506510Y341063D01*
X511381Y341548D01*
X511929Y341000D01*
X516071D01*
X519000Y343929D01*
Y348071D01*
X520224Y349340D01*
X524929Y351000D01*
X529071D01*
X532000Y353929D01*
Y358071D01*
X529071Y361000D01*
X524929D01*
X524258Y360330D01*
X445793D01*
X425248Y380874D01*
X427030Y386164D01*
X429843Y386548D01*
X433333Y383058D01*
X436395Y381790D01*
X484939D01*
X485609Y381119D01*
X489751D01*
X492680Y384048D01*
X492680Y388191D01*
X496437Y391192D01*
X498472D01*
X499142Y390522D01*
X503284D01*
X505264Y392501D01*
X506456Y393446D01*
X511169Y393343D01*
X511958Y392554D01*
X516100D01*
X519029Y395482D01*
Y397739D01*
X523898Y399941D01*
X524979Y398860D01*
X529121D01*
X532050Y401789D01*
Y405931D01*
X529121Y408860D01*
X528173D01*
X500982Y436051D01*
X502895Y440670D01*
X505000D01*
X508061Y441939D01*
X529192Y463069D01*
X534192Y460998D01*
Y451317D01*
X535460Y448256D01*
X539953Y443762D01*
X543015Y442494D01*
X594461D01*
X595859Y440800D01*
X593502Y435800D01*
X592093D01*
X587700Y431407D01*
Y425193D01*
X589207Y423686D01*
X587136Y418686D01*
X546520D01*
X546495Y418699D01*
X546391Y418708D01*
X546373Y418712D01*
X546301Y418737D01*
X545140Y419898D01*
X540998D01*
X538069Y416969D01*
X538069Y416111D01*
Y412827D01*
X540998Y409898D01*
X541241Y409312D01*
X540000Y408071D01*
Y403929D01*
X542322Y401607D01*
X542929Y401000D01*
X547071D01*
X548232Y402161D01*
X548304Y402186D01*
X548322Y402189D01*
X548426Y402199D01*
X548451Y402212D01*
X563069D01*
X565141Y397212D01*
X564000Y396071D01*
Y391929D01*
X566929Y389000D01*
X567787Y389000D01*
X571071D01*
X572012Y389941D01*
X646594D01*
X648278Y387705D01*
X648508Y382800D01*
X644700Y378992D01*
Y378637D01*
X644307Y373800D01*
X638093Y373800D01*
X633700Y369407D01*
Y363193D01*
X638093Y358800D01*
X644307D01*
X646246Y360739D01*
X646626Y360887D01*
X646990Y361236D01*
X647302Y361498D01*
X647608Y361719D01*
X647909Y361904D01*
X648205Y362055D01*
X648499Y362174D01*
X648713Y362241D01*
X663968D01*
X665881Y357622D01*
X630619Y322359D01*
X613046D01*
X611700Y325608D01*
Y330992D01*
X607892Y334800D01*
X602508D01*
X598700Y330992D01*
Y330637D01*
X598307Y325800D01*
X592093Y325800D01*
X587700Y321407D01*
Y315193D01*
X592093Y310800D01*
X598307D01*
X600246Y312739D01*
X600626Y312887D01*
X600990Y313236D01*
X601302Y313498D01*
X601608Y313719D01*
X601909Y313904D01*
X602205Y314055D01*
X602499Y314174D01*
X602713Y314241D01*
X632300D01*
X635170Y315430D01*
X678257Y358517D01*
X696720D01*
X698791Y353517D01*
X698057Y352784D01*
X697451Y352177D01*
Y348035D01*
X698612Y346874D01*
X698637Y346802D01*
X698640Y346784D01*
X698650Y346680D01*
X698663Y346655D01*
Y334114D01*
X694740Y331511D01*
X694740Y331511D01*
X694740Y331511D01*
Y331511D01*
X693663Y331409D01*
X693651Y331420D01*
D01*
X693535Y331536D01*
X691071Y334000D01*
X686929D01*
X684000Y331071D01*
Y326929D01*
X686322Y324607D01*
X686929Y324000D01*
X691071D01*
X696452Y322317D01*
X696494Y322215D01*
X696835Y321266D01*
X675357Y299788D01*
X533451D01*
X533426Y299801D01*
X533322Y299811D01*
X533304Y299814D01*
X533232Y299839D01*
X532071Y301000D01*
X527929D01*
X525000Y298071D01*
X525000Y297213D01*
Y293929D01*
X527322Y291607D01*
X527929Y291000D01*
X532071D01*
X533232Y292161D01*
X533304Y292186D01*
X533322Y292189D01*
X533426Y292199D01*
X533451Y292212D01*
X676926D01*
X676926Y292212D01*
X679605Y293321D01*
X705130Y318846D01*
X705130Y318846D01*
X706239Y321525D01*
X706239Y321525D01*
Y346655D01*
X706252Y346680D01*
X706262Y346784D01*
X706265Y346802D01*
X706290Y346874D01*
X707451Y348035D01*
Y352177D01*
X706111Y353517D01*
X708182Y358517D01*
X763431D01*
X764372Y357576D01*
X768514D01*
X771443Y360504D01*
Y364211D01*
X776443Y364536D01*
X777450Y363530D01*
X781592D01*
X781726Y363474D01*
Y110416D01*
X777767Y107304D01*
X776726Y107304D01*
X773625D01*
X772143Y105822D01*
X772087Y105796D01*
X772067Y105793D01*
X772005Y105790D01*
X772001Y105788D01*
X665932D01*
X664013Y110788D01*
X664979Y111754D01*
X665586Y112361D01*
Y116503D01*
X663263Y118825D01*
X662657Y119432D01*
X658515D01*
X657882Y118799D01*
X657864Y118799D01*
X657853Y118794D01*
X518375D01*
X517017Y120153D01*
X517013Y120163D01*
X517000Y120177D01*
Y121071D01*
X514071Y124000D01*
X509929D01*
X509542Y123614D01*
X504360Y123196D01*
X500218D01*
Y123196D01*
X495083Y122773D01*
X490941Y122773D01*
X488012Y119844D01*
X488012Y118986D01*
Y115702D01*
X490283Y113431D01*
X490333Y113310D01*
X505804Y97839D01*
X505804Y97838D01*
X508483Y96729D01*
X564314D01*
X564339Y96716D01*
X564443Y96707D01*
X564461Y96703D01*
X564533Y96678D01*
X565694Y95517D01*
X569836D01*
X572765Y98446D01*
Y102588D01*
X573815Y105123D01*
X582070D01*
X584141Y100123D01*
X583000Y98983D01*
Y94841D01*
X585322Y92518D01*
X585929Y91912D01*
X590071D01*
X590812Y92652D01*
X590858Y92651D01*
X590874Y92657D01*
X590896Y92659D01*
X590914Y92668D01*
X765261D01*
X766929Y91000D01*
X770806D01*
X774154Y87277D01*
X738707Y51830D01*
X522293D01*
X510061Y64061D01*
X507000Y65330D01*
X426732D01*
X425701Y70330D01*
X427900Y72529D01*
Y76671D01*
X424971Y79600D01*
X420829D01*
X417900Y76671D01*
Y72529D01*
X420099Y70330D01*
X419068Y65330D01*
X411793D01*
X382330Y94793D01*
Y160259D01*
X383000Y160929D01*
Y165071D01*
X380071Y168000D01*
X375929D01*
X373000Y165071D01*
Y160929D01*
X373670Y160259D01*
Y93000D01*
X374939Y89939D01*
X406939Y57938D01*
X410000Y56670D01*
X505207D01*
X517439Y44439D01*
X520500Y43170D01*
X740500D01*
X743561Y44439D01*
X789117Y89994D01*
X790386Y93056D01*
Y379487D01*
X791056Y380157D01*
Y384299D01*
X788127Y387228D01*
X784420Y388081D01*
X784420Y392223D01*
X781491Y395152D01*
X780543D01*
X761252Y414443D01*
X763323Y419443D01*
X765384D01*
X768313Y422372D01*
Y426514D01*
X765384Y429443D01*
X761242D01*
X760572Y428772D01*
X749623D01*
X747552Y433772D01*
X748243Y434463D01*
Y438605D01*
X745314Y441534D01*
X744366D01*
X722338Y463562D01*
X719277Y464830D01*
X646792D01*
X645336Y469829D01*
X648700Y473193D01*
X648700Y479407D01*
X653537Y479800D01*
X653892D01*
X657700Y483608D01*
Y488992D01*
X653892Y492800D01*
X648508D01*
X644700Y488992D01*
Y488637D01*
X644307Y483800D01*
X638093Y483800D01*
X636159Y481866D01*
X635784Y481722D01*
X635474Y481428D01*
X635219Y481222D01*
X634959Y481045D01*
X634693Y480893D01*
X634417Y480766D01*
X634128Y480661D01*
X634012Y480630D01*
X553824D01*
X551752Y485630D01*
X573793Y507670D01*
X688259D01*
X688929Y507000D01*
X693071D01*
X696000Y509929D01*
Y514071D01*
X693071Y517000D01*
X688929D01*
X688259Y516329D01*
X572000D01*
X568938Y515061D01*
X549840Y495963D01*
X544840Y496675D01*
X544161Y497355D01*
X541911Y499604D01*
X537769D01*
X534840Y496675D01*
Y495252D01*
X534827Y495228D01*
X534798Y495188D01*
X534744Y495128D01*
X534733Y495100D01*
X534719Y495080D01*
X534718Y495076D01*
X523122Y483480D01*
X493962D01*
X491891Y488480D01*
X492680Y489269D01*
Y493411D01*
X492721Y493510D01*
X498487D01*
X499269Y492729D01*
X503411D01*
X506340Y495657D01*
Y498114D01*
X511340Y498781D01*
X511922Y498199D01*
X516064D01*
X518993Y501128D01*
Y505270D01*
X519277Y505957D01*
X524244D01*
X524915Y505286D01*
X529057D01*
X531986Y508215D01*
Y512357D01*
X529057Y515286D01*
X524915D01*
X524244Y514616D01*
X468154D01*
X466812Y517872D01*
X466626Y519616D01*
X488777Y541767D01*
X489725D01*
X492654Y544696D01*
Y548838D01*
X493253Y550285D01*
X498098D01*
X498769Y549614D01*
X502911D01*
X505840Y552543D01*
Y556591D01*
X510045Y558604D01*
X512046Y556604D01*
X516188D01*
X519117Y559533D01*
Y563675D01*
X519529Y564670D01*
X524258D01*
X524929Y564000D01*
X529071D01*
X532000Y566929D01*
Y571071D01*
X532248Y571670D01*
X540000D01*
X543061Y572938D01*
X576022Y605900D01*
X644536D01*
X646607Y600900D01*
X644700Y598992D01*
Y598637D01*
X644307Y593800D01*
X638093Y593800D01*
X633700Y589407D01*
Y583193D01*
X638093Y578800D01*
X644307D01*
X648700Y583193D01*
X648700Y589407D01*
X653537Y589800D01*
X653892D01*
X657700Y593608D01*
Y598992D01*
X655588Y601105D01*
X655525Y601715D01*
X656786Y606601D01*
X658154Y607168D01*
X690444Y639458D01*
X691393D01*
X694322Y642387D01*
Y646529D01*
X694554Y647091D01*
X764465D01*
X773598Y637958D01*
X773606Y637932D01*
X773672Y637852D01*
X773683Y637836D01*
X773717Y637767D01*
Y636126D01*
X776645Y633197D01*
X780788D01*
X783717Y636126D01*
Y640268D01*
X780788Y643197D01*
X779146D01*
X779077Y643231D01*
X779062Y643240D01*
X778982Y643308D01*
X778955Y643316D01*
X768713Y653558D01*
X766035Y654667D01*
X766035Y654667D01*
X657141D01*
X654463Y653558D01*
X654463Y653558D01*
X628398Y627493D01*
X549291D01*
X549266Y627505D01*
X549162Y627515D01*
X549144Y627519D01*
X549072Y627544D01*
X547911Y628704D01*
X547150D01*
X545079Y633704D01*
X546388Y635013D01*
Y639155D01*
X543459Y642084D01*
X539317D01*
X538156Y640924D01*
X538084Y640899D01*
X538066Y640895D01*
X537962Y640885D01*
X537937Y640873D01*
X496947D01*
X494302Y643934D01*
X495957Y649121D01*
X498405Y649362D01*
X498985Y648782D01*
X503127D01*
X506056Y651711D01*
Y655853D01*
X506628Y657234D01*
X511441Y657695D01*
X512104Y657032D01*
X516246D01*
X519175Y659961D01*
Y664103D01*
X519542Y664987D01*
X524444Y665485D01*
X524929Y665000D01*
X529071D01*
X532000Y667929D01*
Y672071D01*
X529071Y675000D01*
X524929D01*
X524258Y674330D01*
X453746D01*
X451675Y679330D01*
X464516Y692170D01*
X485437D01*
X486107Y691500D01*
X490249D01*
X493178Y694429D01*
Y698571D01*
X493270Y698794D01*
X498088D01*
X498758Y698123D01*
X502900D01*
X505829Y701052D01*
Y705151D01*
X510801Y705263D01*
X511933Y704130D01*
X516075D01*
X519004Y707059D01*
Y711201D01*
X519239Y711767D01*
X524135D01*
X524805Y711097D01*
X528948D01*
X531876Y714026D01*
Y718168D01*
X528948Y721097D01*
D02*
G37*
G36*
X752071Y698000D02*
X747929D01*
X746217Y696288D01*
X667848D01*
X667832Y696296D01*
X667811Y696297D01*
X667796Y696303D01*
X667769Y696302D01*
X667071Y697000D01*
X662929D01*
X660000Y694071D01*
Y689929D01*
X662929Y687000D01*
X667071D01*
X668000Y686615D01*
Y683929D01*
X670929Y681000D01*
X675071D01*
X676308Y682237D01*
X676392Y682268D01*
X676396Y682270D01*
X676480Y682279D01*
X676482Y682279D01*
X676482Y682279D01*
X676512Y682282D01*
X676526Y682290D01*
X681148D01*
X684000Y678071D01*
X684000Y677290D01*
Y673929D01*
X686929Y671000D01*
X691071D01*
X694000Y673929D01*
Y677290D01*
X694000Y678071D01*
X696852Y682290D01*
X745639D01*
X747929Y680000D01*
X752071D01*
X755000Y682929D01*
Y687071D01*
X753071Y689000D01*
X755000Y690929D01*
Y695071D01*
X752071Y698000D01*
D02*
G37*
G36*
X653892Y712800D02*
X648508D01*
X644700Y708992D01*
Y708637D01*
X644307Y703800D01*
X638093Y703800D01*
X633700Y699407D01*
Y693193D01*
X638093Y688800D01*
X644307D01*
X648700Y693193D01*
X648700Y699407D01*
X653537Y699800D01*
X653892D01*
X657700Y703608D01*
Y708992D01*
X653892Y712800D01*
D02*
G37*
G36*
X216800Y684194D02*
X197800D01*
X193208Y682292D01*
X191306Y677700D01*
X193208Y673108D01*
X197800Y671206D01*
X216800D01*
X221392Y673108D01*
X223294Y677700D01*
X221392Y682292D01*
X216800Y684194D01*
D02*
G37*
G36*
X123500D02*
X104500D01*
X99908Y682292D01*
X98006Y677700D01*
X99908Y673108D01*
X104500Y671206D01*
X123500D01*
X128092Y673108D01*
X129994Y677700D01*
X128092Y682292D01*
X123500Y684194D01*
D02*
G37*
G36*
X607892Y664800D02*
X602508D01*
X598700Y660992D01*
Y660637D01*
X598307Y655800D01*
X592093Y655800D01*
X587700Y651407D01*
Y645193D01*
X592093Y640800D01*
X598307D01*
X602700Y645193D01*
X602700Y651407D01*
X607537Y651800D01*
X607892D01*
X611700Y655608D01*
Y660992D01*
X607892Y664800D01*
D02*
G37*
G36*
X310100Y619194D02*
X291100D01*
X286508Y617292D01*
X284606Y612700D01*
X286508Y608108D01*
X291100Y606206D01*
X310100D01*
X314692Y608108D01*
X316594Y612700D01*
X314692Y617292D01*
X310100Y619194D01*
D02*
G37*
G36*
X216800D02*
X197800D01*
X193208Y617292D01*
X191306Y612700D01*
X193208Y608108D01*
X197800Y606206D01*
X216800D01*
X221392Y608108D01*
X223294Y612700D01*
X221392Y617292D01*
X216800Y619194D01*
D02*
G37*
G36*
X123500D02*
X104500D01*
X99908Y617292D01*
X98006Y612700D01*
X99908Y608108D01*
X104500Y606206D01*
X123500D01*
X128092Y608108D01*
X129994Y612700D01*
X128092Y617292D01*
X123500Y619194D01*
D02*
G37*
G36*
X691071Y620000D02*
X686929D01*
X684000Y617071D01*
Y612929D01*
X686429Y610500D01*
X684000Y608071D01*
Y603929D01*
X686929Y601000D01*
X691071D01*
X694000Y603929D01*
Y608071D01*
X691571Y610500D01*
X694000Y612929D01*
Y617071D01*
X691071Y620000D01*
D02*
G37*
G36*
X755481Y592531D02*
X751339D01*
X748410Y589602D01*
Y585460D01*
X751339Y582531D01*
X755481D01*
X758410Y585460D01*
Y589602D01*
X755481Y592531D01*
D02*
G37*
G36*
X691071Y566000D02*
X686929D01*
X684000Y563071D01*
Y558929D01*
X686929Y556000D01*
X691071D01*
X694000Y558929D01*
Y563071D01*
X691071Y566000D01*
D02*
G37*
G36*
X216800Y554194D02*
X197800D01*
X193208Y552292D01*
X191306Y547700D01*
X193208Y543108D01*
X197800Y541206D01*
X216800D01*
X221392Y543108D01*
X223294Y547700D01*
X221392Y552292D01*
X216800Y554194D01*
D02*
G37*
G36*
X123500D02*
X104500D01*
X99908Y552292D01*
X98006Y547700D01*
X99908Y543108D01*
X104500Y541206D01*
X123500D01*
X128092Y543108D01*
X129994Y547700D01*
X128092Y552292D01*
X123500Y554194D01*
D02*
G37*
G36*
X691071Y548000D02*
X686929D01*
X684000Y545071D01*
Y540929D01*
X686929Y538000D01*
X691071D01*
X694000Y540929D01*
Y545071D01*
X691071Y548000D01*
D02*
G37*
G36*
X607892Y554800D02*
X602508D01*
X598700Y550992D01*
Y550637D01*
X598307Y545800D01*
X592093Y545800D01*
X587700Y541407D01*
Y535193D01*
X592093Y530800D01*
X598307D01*
X602700Y535193D01*
X602700Y541407D01*
X607537Y541800D01*
X607892D01*
X611700Y545608D01*
Y550992D01*
X607892Y554800D01*
D02*
G37*
G36*
X782071Y514000D02*
X777929D01*
X775000Y511071D01*
Y506929D01*
X777929Y504000D01*
X782071D01*
X785000Y506929D01*
Y511071D01*
X782071Y514000D01*
D02*
G37*
G36*
X310100Y489194D02*
X291100D01*
X286508Y487292D01*
X284606Y482700D01*
X286508Y478108D01*
X291100Y476206D01*
X310100D01*
X314692Y478108D01*
X316594Y482700D01*
X314692Y487292D01*
X310100Y489194D01*
D02*
G37*
G36*
X216800D02*
X197800D01*
X193208Y487292D01*
X191306Y482700D01*
X193208Y478108D01*
X197800Y476206D01*
X216800D01*
X221392Y478108D01*
X223294Y482700D01*
X221392Y487292D01*
X216800Y489194D01*
D02*
G37*
G36*
X123500D02*
X104500D01*
X99908Y487292D01*
X98006Y482700D01*
X99908Y478108D01*
X104500Y476206D01*
X123500D01*
X128092Y478108D01*
X129994Y482700D01*
X128092Y487292D01*
X123500Y489194D01*
D02*
G37*
G36*
X694696Y486153D02*
X690554D01*
X687625Y483224D01*
Y479082D01*
X690554Y476153D01*
X694696D01*
X697625Y479082D01*
Y483224D01*
X694696Y486153D01*
D02*
G37*
G36*
X123500Y424194D02*
X104500D01*
X99908Y422292D01*
X98006Y417700D01*
X99908Y413108D01*
X104500Y411206D01*
X123500D01*
X128092Y413108D01*
X129994Y417700D01*
X128092Y422292D01*
X123500Y424194D01*
D02*
G37*
G36*
X216800Y359194D02*
X197800D01*
X193208Y357292D01*
X191306Y352700D01*
X193208Y348108D01*
X197800Y346206D01*
X216800D01*
X221392Y348108D01*
X223294Y352700D01*
X221392Y357292D01*
X216800Y359194D01*
D02*
G37*
G36*
X123500D02*
X104500D01*
X99908Y357292D01*
X98006Y352700D01*
X99908Y348108D01*
X104500Y346206D01*
X123500D01*
X128092Y348108D01*
X129994Y352700D01*
X128092Y357292D01*
X123500Y359194D01*
D02*
G37*
G36*
X770241Y312081D02*
X766099D01*
X763170Y309152D01*
Y305010D01*
X764555Y303626D01*
X763000Y302071D01*
Y297929D01*
X765929Y295000D01*
X770071D01*
X773000Y297929D01*
Y302071D01*
X771616Y303455D01*
X773170Y305010D01*
Y309152D01*
X770241Y312081D01*
D02*
G37*
G36*
X452921Y288250D02*
X448779D01*
X445850Y285321D01*
Y281179D01*
X448779Y278250D01*
X452921D01*
X455850Y281179D01*
Y285321D01*
X452921Y288250D01*
D02*
G37*
G36*
X364071Y270000D02*
X359929D01*
X357000Y267071D01*
Y262929D01*
X359929Y260000D01*
X364071D01*
X367000Y262929D01*
Y267071D01*
X364071Y270000D01*
D02*
G37*
G36*
X226071Y274000D02*
X221929D01*
X219000Y271071D01*
Y266929D01*
X219100Y266828D01*
X221560Y263500D01*
X219100Y260172D01*
X219000Y260071D01*
Y255929D01*
X221322Y253607D01*
X221929Y253000D01*
X219000Y250071D01*
Y245929D01*
X221929Y243000D01*
X226071D01*
X229000Y245929D01*
Y250071D01*
X226678Y252393D01*
X226071Y253000D01*
X229000Y255929D01*
Y260071D01*
X228899Y260172D01*
X226441Y263500D01*
X228899Y266828D01*
X229000Y266929D01*
Y271071D01*
X226071Y274000D01*
D02*
G37*
G36*
X697324Y246823D02*
X694395Y243894D01*
X694395Y243036D01*
Y239751D01*
X693277Y234535D01*
X689989Y231247D01*
X688000Y232071D01*
X685071Y235000D01*
X680929D01*
X678000Y232071D01*
Y231177D01*
X677987Y231163D01*
X677983Y231153D01*
X676619Y229788D01*
X639101D01*
X639083Y229798D01*
X638971Y229810D01*
X638962Y229812D01*
X638882Y229841D01*
X637676Y231046D01*
X633534D01*
X630605Y228117D01*
Y226801D01*
X625605Y225036D01*
X625141Y225500D01*
X620999D01*
X618070Y222571D01*
Y218429D01*
X618012Y218288D01*
X612826D01*
X612811Y218297D01*
X612788Y218300D01*
X612767Y218309D01*
X612703Y218310D01*
X612656Y218315D01*
X611771Y219200D01*
X607629D01*
X604700Y216271D01*
Y212129D01*
X602834Y211594D01*
X599525Y211246D01*
X598971Y211800D01*
X594829D01*
X591900Y208871D01*
X591900Y207195D01*
X591629Y206939D01*
X587071Y205000D01*
X582929D01*
X581768Y203839D01*
X581696Y203814D01*
X581678Y203811D01*
X581574Y203801D01*
X581549Y203788D01*
X554451D01*
X554426Y203801D01*
X554322Y203811D01*
X554304Y203814D01*
X554232Y203839D01*
X553071Y205000D01*
X548929D01*
X546000Y202071D01*
X546000Y197929D01*
X542528Y194330D01*
X485742D01*
X485071Y195000D01*
X480929D01*
X478000Y192071D01*
Y187929D01*
X480929Y185000D01*
X485071D01*
X485742Y185670D01*
X539528D01*
X541599Y180671D01*
X541000Y180071D01*
Y175929D01*
X543929Y173000D01*
X544877Y173000D01*
X549617Y168260D01*
X547456Y163350D01*
X543601D01*
X539500Y159249D01*
Y153450D01*
X542951Y150000D01*
X539500Y146550D01*
Y140751D01*
X543601Y136650D01*
X549399D01*
X552850Y140100D01*
X556301Y136650D01*
X562099D01*
X565550Y140100D01*
X569001Y136650D01*
X574799D01*
X578250Y140100D01*
X581701Y136650D01*
X587500D01*
X590950Y140100D01*
X594400Y136650D01*
X600200D01*
X603650Y140100D01*
X607100Y136650D01*
X612900D01*
X616350Y140100D01*
X619800Y136650D01*
X625600D01*
X629050Y140100D01*
X632500Y136650D01*
X638299D01*
X641750Y140100D01*
X645201Y136650D01*
X651000D01*
X655100Y140751D01*
Y146550D01*
X651649Y150000D01*
X655100Y153450D01*
Y159249D01*
X655999Y161420D01*
X665601D01*
X666500Y159249D01*
Y153450D01*
X669950Y150000D01*
X666500Y146550D01*
Y140751D01*
X670601Y136650D01*
X676400D01*
X680500Y140751D01*
Y146550D01*
X677049Y150000D01*
X680500Y153450D01*
Y159249D01*
X681399Y161420D01*
X687385D01*
X688056Y160750D01*
X692198D01*
X695127Y163679D01*
Y165891D01*
X696671Y170300D01*
X699600Y173229D01*
X699600Y173977D01*
Y177371D01*
X696671Y180300D01*
X692529D01*
X691588Y179359D01*
X569381D01*
X563800Y184940D01*
Y186571D01*
X560871Y189500D01*
X560193Y191212D01*
X563565Y196212D01*
X566527D01*
X567000Y195071D01*
Y190929D01*
X569929Y188000D01*
X574071D01*
X575733Y189662D01*
X665578D01*
X665596Y189653D01*
X665617Y189651D01*
X665633Y189645D01*
X665683Y189646D01*
X666429Y188900D01*
X670571D01*
X673500Y191829D01*
X674339Y195937D01*
X678481D01*
X681410Y198866D01*
Y202381D01*
X681669Y202488D01*
X685811D01*
X688740Y205417D01*
Y209559D01*
X688854Y209834D01*
X692123D01*
X695052Y212763D01*
Y216905D01*
X692123Y219834D01*
X691294Y221837D01*
X702073Y232616D01*
X702074Y232616D01*
X703183Y235295D01*
Y238372D01*
X703196Y238396D01*
X703205Y238501D01*
X703209Y238518D01*
X703234Y238591D01*
X704395Y239751D01*
Y243894D01*
X701466Y246823D01*
X698181D01*
X697324Y246823D01*
D02*
G37*
G36*
X486808Y229188D02*
X482665D01*
X479737Y226260D01*
Y222117D01*
X482665Y219188D01*
X486808D01*
X489736Y222117D01*
Y226260D01*
X486808Y229188D01*
D02*
G37*
G36*
X391071Y244000D02*
X386929D01*
X384000Y241071D01*
Y236929D01*
X384670Y236259D01*
Y208741D01*
X384000Y208071D01*
Y203929D01*
X386929Y201000D01*
X391071D01*
X394000Y203929D01*
Y208071D01*
X393330Y208741D01*
Y236259D01*
X394000Y236929D01*
Y241071D01*
X391071Y244000D01*
D02*
G37*
G36*
X371071Y187000D02*
X366929D01*
X364000Y184071D01*
Y179929D01*
X366929Y177000D01*
X371071D01*
X374000Y179929D01*
Y184071D01*
X371071Y187000D01*
D02*
G37*
G36*
X424771Y183100D02*
X420629D01*
X417700Y180171D01*
Y176029D01*
X420629Y173100D01*
X424771D01*
X427700Y176029D01*
Y180171D01*
X424771Y183100D01*
D02*
G37*
G36*
X364851Y169827D02*
X360708D01*
X357779Y166898D01*
Y162756D01*
X360708Y159827D01*
X364851D01*
X367779Y162756D01*
Y166898D01*
X364851Y169827D01*
D02*
G37*
G36*
X477071Y161000D02*
X472929D01*
X470000Y158071D01*
Y153929D01*
X472929Y151000D01*
X477071D01*
X480000Y153929D01*
Y158071D01*
X477071Y161000D01*
D02*
G37*
G36*
X414071Y165000D02*
X409929D01*
X407000Y162071D01*
Y157929D01*
X407670Y157259D01*
Y98742D01*
X407000Y98071D01*
Y93929D01*
X409929Y91000D01*
X410787Y91000D01*
X414071D01*
X416393Y93322D01*
X417000Y93929D01*
Y98071D01*
X416329Y98742D01*
Y157259D01*
X417000Y157929D01*
Y162071D01*
X414071Y165000D01*
D02*
G37*
G36*
X674843Y84000D02*
X670701D01*
X667772Y81071D01*
Y76929D01*
X670701Y74000D01*
X672438D01*
X675397Y70189D01*
X675529Y69284D01*
Y65877D01*
X678457Y62948D01*
X682600D01*
X685529Y65877D01*
Y70019D01*
X682600Y72948D01*
X680862D01*
X677904Y76760D01*
X677772Y77664D01*
Y81071D01*
X674843Y84000D01*
D02*
G37*
G36*
X364566Y72128D02*
X360423D01*
X357494Y69199D01*
Y65057D01*
X358551Y64000D01*
X357947Y59143D01*
X357336Y58407D01*
X355607Y56678D01*
X355000Y56071D01*
Y51929D01*
X357929Y49000D01*
X358787Y49000D01*
X362071D01*
X365000Y51929D01*
Y56071D01*
X363943Y57128D01*
X364548Y61985D01*
X365159Y62721D01*
X367494Y65057D01*
Y69199D01*
X364566Y72128D01*
D02*
G37*
G36*
X149071Y229000D02*
X144929D01*
X142000Y226071D01*
Y221929D01*
X144391Y219538D01*
X144762Y219167D01*
X142000Y216404D01*
Y212262D01*
X144391Y209871D01*
X144762Y209500D01*
X142000Y206738D01*
Y202596D01*
X144391Y200204D01*
X144762Y199833D01*
X142000Y197071D01*
Y192929D01*
X142129Y192800D01*
Y123000D01*
X143556Y119556D01*
X213556Y49556D01*
X217000Y48129D01*
X297800D01*
X297929Y48000D01*
X302071D01*
X305000Y50929D01*
Y55071D01*
X302071Y58000D01*
X297929D01*
X297800Y57871D01*
X219018D01*
X151871Y125017D01*
Y192800D01*
X152000Y192929D01*
Y197071D01*
X149609Y199462D01*
X149238Y199833D01*
X152000Y202596D01*
Y206738D01*
X149609Y209129D01*
X149238Y209500D01*
X152000Y212262D01*
Y216404D01*
X149609Y218796D01*
X149238Y219167D01*
X152000Y221929D01*
Y226071D01*
X149071Y229000D01*
D02*
G37*
%LPD*%
G36*
X736905Y739283D02*
X736777Y739397D01*
X736627Y739499D01*
X736455Y739589D01*
X736262Y739667D01*
X736047Y739733D01*
X735811Y739787D01*
X735553Y739829D01*
X735273Y739859D01*
X734649Y739883D01*
Y742883D01*
X734972Y742889D01*
X735553Y742937D01*
X735811Y742979D01*
X736047Y743033D01*
X736262Y743099D01*
X736455Y743177D01*
X736627Y743267D01*
X736777Y743369D01*
X736905Y743483D01*
Y739283D01*
D02*
G37*
G36*
X557171Y713049D02*
X556947Y712817D01*
X556570Y712372D01*
X556417Y712160D01*
X556288Y711955D01*
X556183Y711756D01*
X556102Y711565D01*
X556044Y711380D01*
X556010Y711201D01*
X556000Y711030D01*
X553030Y714000D01*
X553201Y714010D01*
X553380Y714044D01*
X553565Y714102D01*
X553756Y714183D01*
X553955Y714288D01*
X554160Y714417D01*
X554372Y714570D01*
X554591Y714746D01*
X555049Y715171D01*
X557171Y713049D01*
D02*
G37*
G36*
X524734Y713997D02*
X524697Y714016D01*
X524627Y714033D01*
X524523Y714048D01*
X524212Y714072D01*
X523183Y714096D01*
X522840Y714097D01*
Y718097D01*
X524734Y718197D01*
Y713997D01*
D02*
G37*
G36*
X512236Y711554D02*
X511546Y707411D01*
X511500Y707451D01*
X511421Y707487D01*
X511309Y707519D01*
X511165Y707547D01*
X510988Y707570D01*
X510535Y707604D01*
X509610Y707624D01*
X510535Y711623D01*
X512236Y711554D01*
D02*
G37*
G36*
X498687Y701023D02*
X498650Y701042D01*
X498579Y701059D01*
X498475Y701075D01*
X498164Y701098D01*
X497135Y701123D01*
X496793Y701124D01*
Y705124D01*
X498687Y705223D01*
Y701023D01*
D02*
G37*
G36*
X486036Y694400D02*
X485999Y694419D01*
X485929Y694436D01*
X485824Y694451D01*
X485513Y694475D01*
X484484Y694499D01*
X484142Y694500D01*
Y698500D01*
X486036Y698600D01*
Y694400D01*
D02*
G37*
G36*
X369432Y700675D02*
X325387Y656629D01*
X315424D01*
X315364Y656639D01*
X314954Y656729D01*
X314734Y656792D01*
X314692Y656892D01*
X313646Y657325D01*
X313597Y657362D01*
X313503Y657385D01*
X310100Y658794D01*
X291100D01*
X286508Y656892D01*
X284606Y652300D01*
X285836Y649330D01*
X283353Y644330D01*
X253362D01*
X252252Y648817D01*
X252239Y649330D01*
X279986Y677077D01*
X285506Y675526D01*
X286508Y673108D01*
X291100Y671206D01*
X310100D01*
X314692Y673108D01*
X316594Y677700D01*
X314692Y682292D01*
X310100Y684194D01*
X294175D01*
X292104Y689194D01*
X308203Y705294D01*
X367518D01*
X369432Y700675D01*
D02*
G37*
G36*
X524858Y667900D02*
X524821Y667919D01*
X524751Y667936D01*
X524646Y667951D01*
X524335Y667975D01*
X523306Y667999D01*
X522964Y668000D01*
Y672000D01*
X524858Y672100D01*
Y667900D01*
D02*
G37*
G36*
X512033Y659932D02*
X511996Y659951D01*
X511926Y659968D01*
X511821Y659983D01*
X511510Y660007D01*
X510481Y660031D01*
X510139Y660032D01*
Y664032D01*
X512033Y664132D01*
Y659932D01*
D02*
G37*
G36*
X435223Y693794D02*
X434500Y693071D01*
Y688929D01*
X437429Y686000D01*
X439028D01*
X441099Y681000D01*
X416729Y656629D01*
X408724D01*
X408664Y656639D01*
X408254Y656729D01*
X408033Y656792D01*
X407992Y656892D01*
X406946Y657325D01*
X406897Y657362D01*
X406803Y657385D01*
X403400Y658794D01*
X384400D01*
X379808Y656892D01*
X377906Y652300D01*
X379136Y649330D01*
X376653Y644330D01*
X331456D01*
X330346Y648817D01*
X330332Y649330D01*
X379797Y698794D01*
X433152D01*
X435223Y693794D01*
D02*
G37*
G36*
X498913Y651682D02*
X498877Y651701D01*
X498806Y651718D01*
X498702Y651733D01*
X498391Y651757D01*
X497362Y651781D01*
X497020Y651782D01*
Y655782D01*
X498913Y655882D01*
Y651682D01*
D02*
G37*
G36*
X405957Y655366D02*
X406338Y655143D01*
X406759Y654945D01*
X407220Y654774D01*
X407722Y654629D01*
X408264Y654511D01*
X408845Y654418D01*
X410130Y654313D01*
X410832Y654300D01*
Y650300D01*
X410130Y650287D01*
X408845Y650182D01*
X408264Y650089D01*
X407722Y649971D01*
X407220Y649826D01*
X406759Y649655D01*
X406338Y649457D01*
X405957Y649234D01*
X405616Y648984D01*
Y655617D01*
X405957Y655366D01*
D02*
G37*
G36*
X312657D02*
X313038Y655143D01*
X313459Y654945D01*
X313921Y654774D01*
X314422Y654629D01*
X314964Y654511D01*
X315546Y654418D01*
X316830Y654313D01*
X317532Y654300D01*
Y650300D01*
X316830Y650287D01*
X315546Y650182D01*
X314964Y650089D01*
X314422Y649971D01*
X313921Y649826D01*
X313459Y649655D01*
X313038Y649457D01*
X312657Y649234D01*
X312316Y648984D01*
Y655617D01*
X312657Y655366D01*
D02*
G37*
G36*
X219357D02*
X219738Y655143D01*
X220159Y654945D01*
X220620Y654774D01*
X221122Y654629D01*
X221664Y654511D01*
X222246Y654418D01*
X223530Y654313D01*
X224232Y654300D01*
Y650300D01*
X223530Y650287D01*
X222246Y650182D01*
X221664Y650089D01*
X221122Y649971D01*
X220620Y649826D01*
X220159Y649655D01*
X219738Y649457D01*
X219357Y649234D01*
X219016Y648984D01*
Y655617D01*
X219357Y655366D01*
D02*
G37*
G36*
X126057D02*
X126438Y655143D01*
X126859Y654945D01*
X127320Y654774D01*
X127822Y654629D01*
X128364Y654511D01*
X128946Y654418D01*
X130230Y654313D01*
X130932Y654300D01*
Y650300D01*
X130230Y650287D01*
X128946Y650182D01*
X128364Y650089D01*
X127822Y649971D01*
X127320Y649826D01*
X126859Y649655D01*
X126438Y649457D01*
X126057Y649234D01*
X125716Y648984D01*
Y655617D01*
X126057Y655366D01*
D02*
G37*
G36*
X485864Y643400D02*
X485827Y643419D01*
X485756Y643436D01*
X485652Y643451D01*
X485341Y643475D01*
X484312Y643499D01*
X483970Y643500D01*
Y647500D01*
X485864Y647600D01*
Y643400D01*
D02*
G37*
G36*
X689292Y641458D02*
X689252Y641446D01*
X689190Y641408D01*
X689106Y641345D01*
X688869Y641142D01*
X688124Y640431D01*
X687882Y640190D01*
X685053Y643018D01*
X686322Y644428D01*
X689292Y641458D01*
D02*
G37*
G36*
X776900Y642144D02*
X777344Y641767D01*
X777556Y641614D01*
X777762Y641485D01*
X777960Y641380D01*
X778152Y641299D01*
X778337Y641241D01*
X778515Y641207D01*
X778687Y641197D01*
X775717Y638227D01*
X775706Y638399D01*
X775673Y638577D01*
X775615Y638762D01*
X775533Y638953D01*
X775428Y639152D01*
X775299Y639357D01*
X775147Y639569D01*
X774970Y639788D01*
X774546Y640246D01*
X776667Y642368D01*
X776900Y642144D01*
D02*
G37*
G36*
X539245Y634984D02*
X539117Y635098D01*
X538967Y635200D01*
X538796Y635290D01*
X538602Y635368D01*
X538387Y635434D01*
X538151Y635488D01*
X537893Y635530D01*
X537614Y635560D01*
X536990Y635584D01*
Y638584D01*
X537313Y638590D01*
X537893Y638638D01*
X538151Y638680D01*
X538387Y638734D01*
X538602Y638800D01*
X538796Y638878D01*
X538967Y638968D01*
X539117Y639070D01*
X539245Y639184D01*
Y634984D01*
D02*
G37*
G36*
X548111Y625690D02*
X548261Y625588D01*
X548432Y625498D01*
X548626Y625420D01*
X548840Y625354D01*
X549077Y625300D01*
X549335Y625258D01*
X549614Y625228D01*
X550238Y625204D01*
Y622204D01*
X549915Y622198D01*
X549335Y622150D01*
X549077Y622108D01*
X548840Y622054D01*
X548626Y621988D01*
X548432Y621910D01*
X548261Y621820D01*
X548111Y621718D01*
X547982Y621604D01*
Y625804D01*
X548111Y625690D01*
D02*
G37*
G36*
X463171Y623049D02*
X462947Y622817D01*
X462570Y622372D01*
X462417Y622160D01*
X462288Y621955D01*
X462183Y621756D01*
X462102Y621565D01*
X462044Y621380D01*
X462010Y621201D01*
X462000Y621030D01*
X459030Y624000D01*
X459201Y624010D01*
X459380Y624044D01*
X459565Y624102D01*
X459756Y624183D01*
X459955Y624288D01*
X460160Y624417D01*
X460372Y624570D01*
X460591Y624746D01*
X461049Y625171D01*
X463171Y623049D01*
D02*
G37*
G36*
X680831Y642091D02*
X653299Y614559D01*
X574229D01*
X571168Y613290D01*
X538207Y580330D01*
X457312D01*
X455241Y585330D01*
X455850Y585939D01*
Y590081D01*
X452921Y593010D01*
X448779D01*
X445850Y590081D01*
Y585939D01*
X446459Y585330D01*
X444388Y580330D01*
X417995D01*
X416452Y585330D01*
X451208Y620085D01*
X454000Y618929D01*
X456929Y616000D01*
X461071D01*
X464000Y618929D01*
Y620570D01*
X464033Y620639D01*
X464044Y620655D01*
X464111Y620735D01*
X464119Y620761D01*
X476653Y633296D01*
X537937D01*
X537962Y633283D01*
X538066Y633274D01*
X538084Y633270D01*
X538156Y633245D01*
X539317Y632084D01*
X540078D01*
X542149Y627084D01*
X540840Y625775D01*
Y621633D01*
X543769Y618704D01*
X547911D01*
X549072Y619865D01*
X549144Y619890D01*
X549162Y619894D01*
X549266Y619903D01*
X549291Y619916D01*
X629967D01*
X629967Y619916D01*
X632646Y621026D01*
X658711Y647091D01*
X678760D01*
X680831Y642091D01*
D02*
G37*
G36*
X432646Y613769D02*
X412632Y593755D01*
X407992Y591892D01*
X406946Y592325D01*
X406897Y592362D01*
X406803Y592385D01*
X403400Y593794D01*
X384400D01*
X379808Y591892D01*
X377906Y587300D01*
X378722Y585330D01*
X375653Y580330D01*
X331375D01*
X329832Y585330D01*
X362173Y617670D01*
X374552D01*
X377906Y612700D01*
X377917Y612673D01*
X379808Y608108D01*
X384400Y606206D01*
X403400D01*
X407992Y608108D01*
X409883Y612673D01*
X409894Y612700D01*
X413247Y617670D01*
X429000D01*
X429813Y618007D01*
X432646Y613769D01*
D02*
G37*
G36*
X405957Y590366D02*
X406338Y590143D01*
X406759Y589945D01*
X407220Y589774D01*
X407722Y589629D01*
X408264Y589511D01*
X408845Y589418D01*
X410130Y589313D01*
X410832Y589300D01*
Y585300D01*
X410130Y585287D01*
X408845Y585182D01*
X408264Y585089D01*
X407722Y584971D01*
X407220Y584826D01*
X406759Y584655D01*
X406338Y584457D01*
X405957Y584234D01*
X405616Y583983D01*
Y590616D01*
X405957Y590366D01*
D02*
G37*
G36*
X312657D02*
X313038Y590143D01*
X313459Y589945D01*
X313921Y589774D01*
X314422Y589629D01*
X314964Y589511D01*
X315546Y589418D01*
X316830Y589313D01*
X317532Y589300D01*
Y585300D01*
X316830Y585287D01*
X315546Y585182D01*
X314964Y585089D01*
X314422Y584971D01*
X313921Y584826D01*
X313459Y584655D01*
X313038Y584457D01*
X312657Y584234D01*
X312316Y583983D01*
Y590616D01*
X312657Y590366D01*
D02*
G37*
G36*
X219357D02*
X219738Y590143D01*
X220159Y589945D01*
X220620Y589774D01*
X221122Y589629D01*
X221664Y589511D01*
X222246Y589418D01*
X223530Y589313D01*
X224232Y589300D01*
Y585300D01*
X223530Y585287D01*
X222246Y585182D01*
X221664Y585089D01*
X221122Y584971D01*
X220620Y584826D01*
X220159Y584655D01*
X219738Y584457D01*
X219357Y584234D01*
X219016Y583983D01*
Y590616D01*
X219357Y590366D01*
D02*
G37*
G36*
X126057D02*
X126438Y590143D01*
X126859Y589945D01*
X127320Y589774D01*
X127822Y589629D01*
X128364Y589511D01*
X128946Y589418D01*
X130230Y589313D01*
X130932Y589300D01*
Y585300D01*
X130230Y585287D01*
X128946Y585182D01*
X128364Y585089D01*
X127822Y584971D01*
X127320Y584826D01*
X126859Y584655D01*
X126438Y584457D01*
X126057Y584234D01*
X125716Y583983D01*
Y590616D01*
X126057Y590366D01*
D02*
G37*
G36*
X267179Y578081D02*
X267250Y578064D01*
X267354Y578049D01*
X267665Y578025D01*
X268694Y578001D01*
X269036Y578000D01*
Y574000D01*
X267142Y573900D01*
Y578100D01*
X267179Y578081D01*
D02*
G37*
G36*
X524858Y566900D02*
X524821Y566919D01*
X524751Y566936D01*
X524646Y566951D01*
X524335Y566975D01*
X523306Y566999D01*
X522964Y567000D01*
Y571000D01*
X524858Y571100D01*
Y566900D01*
D02*
G37*
G36*
X513112Y564430D02*
X511243Y560742D01*
X511210Y560791D01*
X511144Y560835D01*
X511043Y560874D01*
X510907Y560907D01*
X510738Y560936D01*
X510534Y560959D01*
X510025Y560990D01*
X509378Y561000D01*
X509661Y565000D01*
X513112Y564430D01*
D02*
G37*
G36*
X498698Y552514D02*
X498661Y552533D01*
X498591Y552550D01*
X498486Y552565D01*
X498175Y552589D01*
X497146Y552613D01*
X496804Y552614D01*
Y556614D01*
X498698Y556714D01*
Y552514D01*
D02*
G37*
G36*
X481134Y546371D02*
X461394Y526630D01*
X408724D01*
X408664Y526639D01*
X408254Y526729D01*
X408033Y526792D01*
X407992Y526892D01*
X406946Y527325D01*
X406897Y527362D01*
X406803Y527385D01*
X403400Y528794D01*
X384400D01*
X379835Y526903D01*
X379808Y526892D01*
X377906Y522300D01*
X377916Y522274D01*
X379017Y519616D01*
X376367Y514616D01*
X347353D01*
X346011Y517872D01*
X345825Y519616D01*
X373286Y547077D01*
X378806Y545526D01*
X379808Y543108D01*
X384400Y541206D01*
X403400D01*
X407992Y543108D01*
X409894Y547700D01*
X412347Y551370D01*
X432602D01*
X433140Y550071D01*
Y545929D01*
X436069Y543000D01*
X440211D01*
X443140Y545929D01*
Y550071D01*
X443678Y551370D01*
X479063D01*
X481134Y546371D01*
D02*
G37*
G36*
X487624Y543767D02*
X487584Y543755D01*
X487522Y543717D01*
X487438Y543653D01*
X487201Y543451D01*
X486457Y542740D01*
X486214Y542499D01*
X483386Y545327D01*
X484654Y546737D01*
X487624Y543767D01*
D02*
G37*
G36*
X368014Y554051D02*
X340593Y526630D01*
X315424D01*
X315364Y526639D01*
X314954Y526729D01*
X314734Y526792D01*
X314692Y526892D01*
X313646Y527325D01*
X313597Y527362D01*
X313503Y527385D01*
X310100Y528794D01*
X291100D01*
X286535Y526903D01*
X286508Y526892D01*
X284606Y522300D01*
X284617Y522274D01*
X285718Y519616D01*
X283067Y514616D01*
X244057D01*
X242715Y517872D01*
X242529Y519616D01*
X281583Y558671D01*
X288841D01*
X289835Y553671D01*
X286535Y552304D01*
X286508Y552292D01*
X284606Y547700D01*
X284617Y547674D01*
X286508Y543108D01*
X291100Y541206D01*
X310100D01*
X314692Y543108D01*
X316583Y547673D01*
X316594Y547700D01*
X314692Y552292D01*
X314667Y552303D01*
X311365Y553671D01*
X312359Y558671D01*
X366101D01*
X368014Y554051D01*
D02*
G37*
G36*
X405957Y525366D02*
X406338Y525143D01*
X406759Y524945D01*
X407220Y524774D01*
X407722Y524629D01*
X408264Y524511D01*
X408845Y524418D01*
X410130Y524313D01*
X410832Y524300D01*
Y520300D01*
X410130Y520287D01*
X408845Y520182D01*
X408264Y520089D01*
X407722Y519971D01*
X407220Y519826D01*
X406759Y519655D01*
X406338Y519457D01*
X405957Y519234D01*
X405616Y518983D01*
Y525616D01*
X405957Y525366D01*
D02*
G37*
G36*
X312657D02*
X313038Y525143D01*
X313459Y524945D01*
X313921Y524774D01*
X314422Y524629D01*
X314964Y524511D01*
X315546Y524418D01*
X316830Y524313D01*
X317532Y524300D01*
Y520300D01*
X316830Y520287D01*
X315546Y520182D01*
X314964Y520089D01*
X314422Y519971D01*
X313921Y519826D01*
X313459Y519655D01*
X313038Y519457D01*
X312657Y519234D01*
X312316Y518983D01*
Y525616D01*
X312657Y525366D01*
D02*
G37*
G36*
X219357D02*
X219738Y525143D01*
X220159Y524945D01*
X220620Y524774D01*
X221122Y524629D01*
X221664Y524511D01*
X222246Y524418D01*
X223530Y524313D01*
X224232Y524300D01*
Y520300D01*
X223530Y520287D01*
X222246Y520182D01*
X221664Y520089D01*
X221122Y519971D01*
X220620Y519826D01*
X220159Y519655D01*
X219738Y519457D01*
X219357Y519234D01*
X219016Y518983D01*
Y525616D01*
X219357Y525366D01*
D02*
G37*
G36*
X126057D02*
X126438Y525143D01*
X126859Y524945D01*
X127320Y524774D01*
X127822Y524629D01*
X128364Y524511D01*
X128946Y524418D01*
X130230Y524313D01*
X130932Y524300D01*
Y520300D01*
X130230Y520287D01*
X128946Y520182D01*
X128364Y520089D01*
X127822Y519971D01*
X127320Y519826D01*
X126859Y519655D01*
X126438Y519457D01*
X126057Y519234D01*
X125716Y518983D01*
Y525616D01*
X126057Y525366D01*
D02*
G37*
G36*
X688858Y509900D02*
X688821Y509919D01*
X688751Y509936D01*
X688646Y509951D01*
X688335Y509975D01*
X687306Y509999D01*
X686964Y510000D01*
Y514000D01*
X688858Y514100D01*
Y509900D01*
D02*
G37*
G36*
X524843Y508186D02*
X524807Y508205D01*
X524736Y508222D01*
X524632Y508237D01*
X524321Y508261D01*
X523292Y508285D01*
X522950Y508286D01*
Y512286D01*
X524843Y512386D01*
Y508186D01*
D02*
G37*
G36*
X512136Y505555D02*
X511600Y501390D01*
X511554Y501426D01*
X511476Y501459D01*
X511365Y501488D01*
X511221Y501512D01*
X511044Y501534D01*
X510316Y501574D01*
X509666Y501582D01*
X510370Y505582D01*
X512136Y505555D01*
D02*
G37*
G36*
X499121Y495710D02*
X499081Y495734D01*
X499007Y495756D01*
X498899Y495776D01*
X498758Y495793D01*
X498134Y495828D01*
X497209Y495840D01*
X497409Y499840D01*
X499277Y499907D01*
X499121Y495710D01*
D02*
G37*
G36*
X539643Y491610D02*
X539469Y491609D01*
X539288Y491584D01*
X539101Y491533D01*
X538907Y491458D01*
X538707Y491358D01*
X538501Y491233D01*
X538288Y491084D01*
X538068Y490910D01*
X537610Y490488D01*
X535625Y492746D01*
X535850Y492979D01*
X536231Y493422D01*
X536387Y493632D01*
X536520Y493835D01*
X536630Y494031D01*
X536718Y494220D01*
X536782Y494401D01*
X536824Y494575D01*
X536843Y494741D01*
X539643Y491610D01*
D02*
G37*
G36*
X485435Y489350D02*
X485394Y489376D01*
X485319Y489400D01*
X485210Y489421D01*
X485069Y489440D01*
X484686Y489468D01*
X483518Y489490D01*
X483788Y493490D01*
X485645Y493545D01*
X485435Y489350D01*
D02*
G37*
G36*
X434508Y488891D02*
X407651Y462034D01*
X403400Y463794D01*
X384400D01*
X379808Y461892D01*
X377906Y457300D01*
X379136Y454330D01*
X376653Y449330D01*
X339656D01*
X338546Y453817D01*
X338532Y454329D01*
X376878Y492675D01*
X379014Y492375D01*
X379835Y487304D01*
X379808Y487292D01*
X377906Y482700D01*
X377916Y482674D01*
X379808Y478108D01*
X384400Y476206D01*
X403400D01*
X407992Y478108D01*
X409883Y482673D01*
X409894Y482700D01*
X407992Y487292D01*
X407966Y487303D01*
X405051Y488511D01*
X406046Y493510D01*
X432595D01*
X434508Y488891D01*
D02*
G37*
G36*
X637272Y472450D02*
X636901Y472802D01*
X636512Y473116D01*
X636106Y473394D01*
X635682Y473634D01*
X635242Y473838D01*
X634783Y474004D01*
X634308Y474133D01*
X633815Y474226D01*
X633304Y474282D01*
X632776Y474300D01*
Y478300D01*
X633304Y478318D01*
X633815Y478374D01*
X634308Y478466D01*
X634783Y478596D01*
X635242Y478763D01*
X635682Y478966D01*
X636106Y479207D01*
X636512Y479484D01*
X636901Y479799D01*
X637272Y480150D01*
Y472450D01*
D02*
G37*
G36*
X466171Y467049D02*
X465947Y466817D01*
X465570Y466372D01*
X465417Y466160D01*
X465288Y465955D01*
X465183Y465756D01*
X465102Y465565D01*
X465044Y465380D01*
X465010Y465201D01*
X465000Y465030D01*
X462030Y468000D01*
X462201Y468010D01*
X462380Y468044D01*
X462565Y468102D01*
X462756Y468183D01*
X462955Y468288D01*
X463160Y468417D01*
X463372Y468570D01*
X463591Y468746D01*
X464049Y469171D01*
X466171Y467049D01*
D02*
G37*
G36*
X559030Y462584D02*
X559101Y462567D01*
X559206Y462551D01*
X559517Y462526D01*
X560547Y462501D01*
X560889Y462500D01*
X560863Y458500D01*
X558972Y458404D01*
X558993Y462604D01*
X559030Y462584D01*
D02*
G37*
G36*
X312657Y460366D02*
X313038Y460143D01*
X313459Y459945D01*
X313921Y459774D01*
X314422Y459629D01*
X314964Y459511D01*
X315546Y459418D01*
X316830Y459313D01*
X317532Y459300D01*
Y455300D01*
X316830Y455287D01*
X315546Y455182D01*
X314964Y455089D01*
X314422Y454971D01*
X313921Y454826D01*
X313459Y454655D01*
X313038Y454457D01*
X312657Y454234D01*
X312316Y453983D01*
Y460616D01*
X312657Y460366D01*
D02*
G37*
G36*
X219357D02*
X219738Y460143D01*
X220159Y459945D01*
X220620Y459774D01*
X221122Y459629D01*
X221664Y459511D01*
X222246Y459418D01*
X223530Y459313D01*
X224232Y459300D01*
Y455300D01*
X223530Y455287D01*
X222246Y455182D01*
X221664Y455089D01*
X221122Y454971D01*
X220620Y454826D01*
X220159Y454655D01*
X219738Y454457D01*
X219357Y454234D01*
X219016Y453983D01*
Y460616D01*
X219357Y460366D01*
D02*
G37*
G36*
X126057D02*
X126438Y460143D01*
X126859Y459945D01*
X127320Y459774D01*
X127822Y459629D01*
X128364Y459511D01*
X128946Y459418D01*
X130230Y459313D01*
X130932Y459300D01*
Y455300D01*
X130230Y455287D01*
X128946Y455182D01*
X128364Y455089D01*
X127822Y454971D01*
X127320Y454826D01*
X126859Y454655D01*
X126438Y454457D01*
X126057Y454234D01*
X125716Y453983D01*
Y460616D01*
X126057Y460366D01*
D02*
G37*
G36*
X671225Y456034D02*
X671336Y455974D01*
X671475Y455922D01*
X671642Y455876D01*
X671837Y455838D01*
X672061Y455806D01*
X672592Y455764D01*
X673237Y455750D01*
Y452250D01*
X672900Y452247D01*
X671837Y452163D01*
X671642Y452124D01*
X671475Y452079D01*
X671336Y452026D01*
X671225Y451967D01*
X671142Y451900D01*
Y456100D01*
X671225Y456034D01*
D02*
G37*
G36*
X567026Y455405D02*
X567097Y455387D01*
X567201Y455373D01*
X567512Y455349D01*
X568541Y455325D01*
X568884Y455323D01*
Y451324D01*
X566990Y451223D01*
Y455424D01*
X567026Y455405D01*
D02*
G37*
G36*
X473739Y483245D02*
X473803Y482160D01*
X461761Y470119D01*
X461735Y470111D01*
X461656Y470044D01*
X461639Y470033D01*
X461570Y470000D01*
X459929D01*
X457000Y467071D01*
Y462929D01*
X459929Y460000D01*
X464071D01*
X467000Y462929D01*
Y464570D01*
X467033Y464639D01*
X467044Y464655D01*
X467111Y464735D01*
X467119Y464761D01*
X478260Y475903D01*
X522709D01*
X524843Y470966D01*
X503207Y449330D01*
X412961D01*
X411966Y454329D01*
X412352Y454490D01*
X445023Y487160D01*
X472512D01*
X473739Y483245D01*
D02*
G37*
G36*
X256179Y447081D02*
X256250Y447064D01*
X256354Y447049D01*
X256665Y447025D01*
X257694Y447001D01*
X258036Y447000D01*
Y443000D01*
X256142Y442900D01*
Y447100D01*
X256179Y447081D01*
D02*
G37*
G36*
X743213Y439534D02*
X740243Y436564D01*
X740230Y436604D01*
X740193Y436665D01*
X740129Y436750D01*
X739927Y436987D01*
X739216Y437731D01*
X738975Y437974D01*
X741803Y440802D01*
X743213Y439534D01*
D02*
G37*
G36*
X734585Y437150D02*
X735396Y436458D01*
X735562Y436347D01*
X735712Y436261D01*
X735847Y436200D01*
X735968Y436164D01*
X736073Y436152D01*
X733104Y433182D01*
X733092Y433288D01*
X733056Y433408D01*
X732995Y433544D01*
X732909Y433694D01*
X732798Y433860D01*
X732662Y434040D01*
X732316Y434445D01*
X731870Y434911D01*
X734345Y437386D01*
X734585Y437150D01*
D02*
G37*
G36*
X599544Y431751D02*
X599970Y431394D01*
X600405Y431079D01*
X600850Y430806D01*
X601304Y430575D01*
X601767Y430386D01*
X602240Y430239D01*
X602722Y430134D01*
X603213Y430071D01*
X603714Y430050D01*
Y426550D01*
X603213Y426529D01*
X602722Y426466D01*
X602240Y426361D01*
X601767Y426214D01*
X601304Y426025D01*
X600850Y425794D01*
X600405Y425521D01*
X599970Y425206D01*
X599544Y424849D01*
X599128Y424450D01*
Y432150D01*
X599544Y431751D01*
D02*
G37*
G36*
X761171Y422343D02*
X761134Y422362D01*
X761064Y422379D01*
X760959Y422394D01*
X760648Y422418D01*
X759619Y422442D01*
X759277Y422443D01*
Y426443D01*
X761171Y426543D01*
Y422343D01*
D02*
G37*
G36*
X545340Y416884D02*
X545490Y416782D01*
X545662Y416692D01*
X545855Y416614D01*
X546070Y416548D01*
X546306Y416494D01*
X546564Y416452D01*
X546843Y416422D01*
X547467Y416398D01*
Y413398D01*
X547145Y413392D01*
X546564Y413344D01*
X546306Y413302D01*
X546070Y413248D01*
X545855Y413182D01*
X545662Y413104D01*
X545490Y413014D01*
X545340Y412912D01*
X545212Y412798D01*
Y416998D01*
X545340Y416884D01*
D02*
G37*
G36*
X438085Y405792D02*
X436929Y403000D01*
X434000Y400071D01*
X430214Y396630D01*
X429000Y396630D01*
X408724D01*
X408664Y396639D01*
X408254Y396729D01*
X408033Y396792D01*
X407992Y396892D01*
X406946Y397325D01*
X406897Y397362D01*
X406803Y397385D01*
X403400Y398794D01*
X384400D01*
X379835Y396903D01*
X379808Y396892D01*
X377906Y392300D01*
X377916Y392274D01*
X378542Y390763D01*
X375219Y385763D01*
X324027D01*
X321956Y390763D01*
X352563Y421371D01*
X375453D01*
X377906Y417700D01*
X379808Y413108D01*
X384400Y411206D01*
X403400D01*
X407992Y413108D01*
X409894Y417700D01*
X412347Y421371D01*
X422507D01*
X438085Y405792D01*
D02*
G37*
G36*
X341698Y422751D02*
X318532Y399585D01*
X314692Y396892D01*
X310100Y398794D01*
X291100D01*
X286535Y396903D01*
X286508Y396892D01*
X284606Y392300D01*
X284617Y392274D01*
X285242Y390763D01*
X281919Y385763D01*
X245287D01*
X243216Y390763D01*
X279823Y427370D01*
X285702D01*
X286697Y422370D01*
X286534Y422303D01*
X286508Y422292D01*
X284606Y417700D01*
X284617Y417673D01*
X286508Y413108D01*
X291100Y411206D01*
X310100D01*
X314692Y413108D01*
X316583Y417673D01*
X316594Y417700D01*
X314692Y422292D01*
X314503Y422370D01*
X315498Y427370D01*
X339785D01*
X341698Y422751D01*
D02*
G37*
G36*
X512090Y412697D02*
X509010Y408973D01*
X505948Y410241D01*
X464882D01*
X454667Y420456D01*
X455129Y426412D01*
X456753Y428036D01*
Y432178D01*
X457247Y433370D01*
X491417D01*
X512090Y412697D01*
D02*
G37*
G36*
X547271Y407986D02*
X547421Y407884D01*
X547593Y407794D01*
X547786Y407716D01*
X548000Y407650D01*
X548237Y407596D01*
X548495Y407554D01*
X548774Y407524D01*
X549398Y407500D01*
Y404500D01*
X549075Y404494D01*
X548495Y404446D01*
X548237Y404404D01*
X548000Y404350D01*
X547786Y404284D01*
X547593Y404206D01*
X547421Y404116D01*
X547271Y404014D01*
X547142Y403900D01*
Y408100D01*
X547271Y407986D01*
D02*
G37*
G36*
X527020Y406860D02*
X524050Y403890D01*
X524038Y403929D01*
X524000Y403991D01*
X523937Y404076D01*
X523734Y404313D01*
X523023Y405057D01*
X522782Y405300D01*
X525610Y408128D01*
X527020Y406860D01*
D02*
G37*
G36*
X514195Y400549D02*
X511038Y397780D01*
X511028Y397830D01*
X510992Y397902D01*
X510931Y397995D01*
X510845Y398110D01*
X510594Y398403D01*
X509786Y399246D01*
X512864Y401824D01*
X514195Y400549D01*
D02*
G37*
G36*
X499071Y393422D02*
X499034Y393441D01*
X498964Y393458D01*
X498859Y393473D01*
X498549Y393497D01*
X497519Y393521D01*
X497177Y393522D01*
Y397522D01*
X499071Y397622D01*
Y393422D01*
D02*
G37*
G36*
X571225Y396034D02*
X571336Y395974D01*
X571475Y395922D01*
X571642Y395876D01*
X571838Y395838D01*
X572061Y395806D01*
X572593Y395764D01*
X573237Y395750D01*
Y392250D01*
X572901Y392247D01*
X571838Y392163D01*
X571642Y392124D01*
X571475Y392079D01*
X571336Y392026D01*
X571225Y391967D01*
X571142Y391900D01*
Y396100D01*
X571225Y396034D01*
D02*
G37*
G36*
X779390Y393152D02*
X776420Y390182D01*
X776407Y390221D01*
X776370Y390283D01*
X776306Y390368D01*
X776104Y390605D01*
X775393Y391349D01*
X775152Y391592D01*
X777980Y394420D01*
X779390Y393152D01*
D02*
G37*
G36*
X711858Y389900D02*
X711729Y390014D01*
X711579Y390116D01*
X711407Y390206D01*
X711214Y390284D01*
X711000Y390350D01*
X710763Y390404D01*
X710505Y390446D01*
X710226Y390476D01*
X709602Y390500D01*
Y393500D01*
X709925Y393506D01*
X710505Y393554D01*
X710763Y393596D01*
X711000Y393650D01*
X711214Y393716D01*
X711407Y393794D01*
X711579Y393884D01*
X711729Y393986D01*
X711858Y394100D01*
Y389900D01*
D02*
G37*
G36*
X313014Y395072D02*
X313315Y394910D01*
X313662Y394767D01*
X314054Y394643D01*
X314492Y394538D01*
X314976Y394453D01*
X316082Y394338D01*
X316703Y394310D01*
X317370Y394300D01*
Y390300D01*
X316703Y390290D01*
X314976Y390148D01*
X314492Y390062D01*
X314054Y389957D01*
X313662Y389833D01*
X313315Y389690D01*
X313014Y389528D01*
X312759Y389347D01*
Y395253D01*
X313014Y395072D01*
D02*
G37*
G36*
X405957Y395366D02*
X406338Y395143D01*
X406759Y394945D01*
X407220Y394774D01*
X407722Y394629D01*
X408264Y394511D01*
X408845Y394418D01*
X410130Y394313D01*
X410832Y394300D01*
Y390300D01*
X410130Y390287D01*
X408845Y390182D01*
X408264Y390089D01*
X407722Y389971D01*
X407220Y389826D01*
X406759Y389655D01*
X406338Y389457D01*
X405957Y389234D01*
X405616Y388983D01*
Y395616D01*
X405957Y395366D01*
D02*
G37*
G36*
X219357D02*
X219738Y395143D01*
X220159Y394945D01*
X220620Y394774D01*
X221122Y394629D01*
X221664Y394511D01*
X222246Y394418D01*
X223530Y394313D01*
X224232Y394300D01*
Y390300D01*
X223530Y390287D01*
X222246Y390182D01*
X221664Y390089D01*
X221122Y389971D01*
X220620Y389826D01*
X220159Y389655D01*
X219738Y389457D01*
X219357Y389234D01*
X219016Y388983D01*
Y395616D01*
X219357Y395366D01*
D02*
G37*
G36*
X126057D02*
X126438Y395143D01*
X126859Y394945D01*
X127320Y394774D01*
X127822Y394629D01*
X128364Y394511D01*
X128946Y394418D01*
X130230Y394313D01*
X130932Y394300D01*
Y390300D01*
X130230Y390287D01*
X128946Y390182D01*
X128364Y390089D01*
X127822Y389971D01*
X127320Y389826D01*
X126859Y389655D01*
X126438Y389457D01*
X126057Y389234D01*
X125716Y388983D01*
Y395616D01*
X126057Y395366D01*
D02*
G37*
G36*
X485538Y384020D02*
X485501Y384039D01*
X485430Y384055D01*
X485326Y384071D01*
X485015Y384095D01*
X483986Y384118D01*
X483644Y384119D01*
Y388120D01*
X485538Y388219D01*
Y384020D01*
D02*
G37*
G36*
X724635Y382900D02*
X724506Y383014D01*
X724356Y383116D01*
X724184Y383206D01*
X723991Y383284D01*
X723777Y383350D01*
X723540Y383404D01*
X723282Y383446D01*
X723003Y383476D01*
X722379Y383500D01*
Y386500D01*
X722702Y386506D01*
X723282Y386554D01*
X723540Y386596D01*
X723777Y386650D01*
X723991Y386716D01*
X724184Y386794D01*
X724356Y386884D01*
X724506Y386986D01*
X724635Y387100D01*
Y382900D01*
D02*
G37*
G36*
X675371Y403501D02*
X678241Y402312D01*
X741462D01*
X749410Y394364D01*
Y382441D01*
X744410Y380467D01*
X742877Y382000D01*
X738735D01*
X737794Y381059D01*
X732551D01*
X731777Y382929D01*
Y387071D01*
X729455Y389393D01*
X728848Y390000D01*
X724706D01*
X723551Y388845D01*
X723516Y388854D01*
X719000Y391021D01*
Y394071D01*
X716678Y396393D01*
X716071Y397000D01*
X711929D01*
X710768Y395839D01*
X710696Y395814D01*
X710678Y395811D01*
X710574Y395801D01*
X710549Y395788D01*
X669569D01*
X647781Y417576D01*
X645102Y418686D01*
X645102Y418686D01*
X607852D01*
X605604Y421113D01*
X605263Y422385D01*
X605516Y423365D01*
X606048Y424241D01*
X654630D01*
X675371Y403501D01*
D02*
G37*
G36*
X788137Y380049D02*
X788120Y379979D01*
X788105Y379874D01*
X788081Y379563D01*
X788057Y378534D01*
X788056Y378192D01*
X784056D01*
X783956Y380086D01*
X788156D01*
X788137Y380049D01*
D02*
G37*
G36*
X755223Y378998D02*
X755276Y378159D01*
X755309Y377935D01*
X755348Y377740D01*
X755395Y377573D01*
X755449Y377434D01*
X755510Y377322D01*
X755578Y377239D01*
X751378Y377196D01*
X751443Y377279D01*
X751501Y377389D01*
X751552Y377528D01*
X751596Y377695D01*
X751634Y377890D01*
X751665Y378114D01*
X751705Y378645D01*
X751719Y379290D01*
X755219Y379334D01*
X755223Y378998D01*
D02*
G37*
G36*
X738663Y374900D02*
X738581Y374967D01*
X738470Y375026D01*
X738331Y375079D01*
X738164Y375124D01*
X737968Y375163D01*
X737745Y375194D01*
X737213Y375236D01*
X736569Y375250D01*
Y378750D01*
X736905Y378754D01*
X737968Y378838D01*
X738164Y378876D01*
X738331Y378922D01*
X738470Y378974D01*
X738581Y379034D01*
X738663Y379100D01*
Y374900D01*
D02*
G37*
G36*
X777181Y366651D02*
X777099Y366732D01*
X776989Y366804D01*
X776851Y366868D01*
X776684Y366923D01*
X776490Y366969D01*
X776267Y367008D01*
X775738Y367059D01*
X775431Y367071D01*
X775097Y367076D01*
X775527Y370576D01*
X775865Y370578D01*
X777119Y370667D01*
X777282Y370701D01*
X777416Y370739D01*
X777520Y370782D01*
X777596Y370831D01*
X777181Y366651D01*
D02*
G37*
G36*
X645544Y369751D02*
X645970Y369394D01*
X646405Y369079D01*
X646850Y368806D01*
X647304Y368575D01*
X647767Y368386D01*
X648240Y368239D01*
X648722Y368134D01*
X649213Y368071D01*
X649714Y368050D01*
Y364550D01*
X649213Y364529D01*
X648722Y364466D01*
X648240Y364361D01*
X647767Y364214D01*
X647304Y364025D01*
X646850Y363794D01*
X646405Y363521D01*
X645970Y363206D01*
X645544Y362849D01*
X645128Y362450D01*
Y370150D01*
X645544Y369751D01*
D02*
G37*
G36*
X764300Y360476D02*
X764218Y360542D01*
X764107Y360602D01*
X763968Y360654D01*
X763801Y360700D01*
X763605Y360738D01*
X763382Y360770D01*
X762850Y360812D01*
X762206Y360826D01*
Y364326D01*
X762542Y364329D01*
X763605Y364413D01*
X763801Y364452D01*
X763968Y364497D01*
X764107Y364550D01*
X764218Y364609D01*
X764300Y364676D01*
Y360476D01*
D02*
G37*
G36*
X524858Y353900D02*
X524821Y353919D01*
X524751Y353936D01*
X524646Y353951D01*
X524335Y353975D01*
X523306Y353999D01*
X522964Y354000D01*
Y358000D01*
X524858Y358100D01*
Y353900D01*
D02*
G37*
G36*
X704437Y347835D02*
X704335Y347685D01*
X704245Y347514D01*
X704167Y347320D01*
X704101Y347106D01*
X704047Y346869D01*
X704005Y346611D01*
X703975Y346332D01*
X703951Y345708D01*
X700951D01*
X700945Y346031D01*
X700897Y346611D01*
X700855Y346869D01*
X700801Y347106D01*
X700735Y347320D01*
X700657Y347514D01*
X700567Y347685D01*
X700465Y347835D01*
X700351Y347963D01*
X704551D01*
X704437Y347835D01*
D02*
G37*
G36*
X511858Y343900D02*
X511821Y343919D01*
X511750Y343936D01*
X511646Y343951D01*
X511335Y343975D01*
X510306Y343999D01*
X509964Y344000D01*
Y348000D01*
X511858Y348100D01*
Y343900D01*
D02*
G37*
G36*
X498772Y335454D02*
X498735Y335473D01*
X498665Y335490D01*
X498560Y335505D01*
X498249Y335529D01*
X497220Y335553D01*
X496878Y335554D01*
Y339554D01*
X498772Y339654D01*
Y335454D01*
D02*
G37*
G36*
X487268Y328083D02*
X487210Y328076D01*
X487131Y328044D01*
X487032Y327986D01*
X486912Y327901D01*
X486772Y327791D01*
X486229Y327305D01*
X485764Y326851D01*
X483433Y330177D01*
X484701Y331407D01*
X487268Y328083D01*
D02*
G37*
G36*
X316769Y331141D02*
X316282Y330635D01*
X315449Y329653D01*
X315102Y329176D01*
X314803Y328709D01*
X314551Y328252D01*
X314346Y327805D01*
X314188Y327368D01*
X314076Y326940D01*
X314012Y326522D01*
X308998Y331289D01*
X309454Y331315D01*
X309919Y331396D01*
X310393Y331530D01*
X310875Y331718D01*
X311365Y331959D01*
X311863Y332254D01*
X312370Y332602D01*
X312885Y333004D01*
X313409Y333460D01*
X313941Y333969D01*
X316769Y331141D01*
D02*
G37*
G36*
X405957Y330366D02*
X406338Y330143D01*
X406759Y329945D01*
X407220Y329774D01*
X407722Y329629D01*
X408264Y329511D01*
X408845Y329418D01*
X410130Y329313D01*
X410832Y329300D01*
Y325300D01*
X410130Y325287D01*
X408845Y325182D01*
X408264Y325089D01*
X407722Y324971D01*
X407220Y324826D01*
X406759Y324655D01*
X406338Y324457D01*
X405957Y324234D01*
X405616Y323983D01*
Y330616D01*
X405957Y330366D01*
D02*
G37*
G36*
X219357D02*
X219738Y330143D01*
X220159Y329945D01*
X220620Y329774D01*
X221122Y329629D01*
X221664Y329511D01*
X222246Y329418D01*
X223530Y329313D01*
X224232Y329300D01*
Y325300D01*
X223530Y325287D01*
X222246Y325182D01*
X221664Y325089D01*
X221122Y324971D01*
X220620Y324826D01*
X220159Y324655D01*
X219738Y324457D01*
X219357Y324234D01*
X219016Y323983D01*
Y330616D01*
X219357Y330366D01*
D02*
G37*
G36*
X126057D02*
X126438Y330143D01*
X126859Y329945D01*
X127320Y329774D01*
X127822Y329629D01*
X128364Y329511D01*
X128946Y329418D01*
X130230Y329313D01*
X130932Y329300D01*
Y325300D01*
X130230Y325287D01*
X128946Y325182D01*
X128364Y325089D01*
X127822Y324971D01*
X127320Y324826D01*
X126859Y324655D01*
X126438Y324457D01*
X126057Y324234D01*
X125716Y323983D01*
Y330616D01*
X126057Y330366D01*
D02*
G37*
G36*
X599544Y321751D02*
X599970Y321394D01*
X600405Y321079D01*
X600850Y320806D01*
X601304Y320575D01*
X601767Y320386D01*
X602240Y320239D01*
X602722Y320134D01*
X603213Y320071D01*
X603714Y320050D01*
Y316550D01*
X603213Y316529D01*
X602722Y316466D01*
X602240Y316361D01*
X601767Y316214D01*
X601304Y316025D01*
X600850Y315794D01*
X600405Y315521D01*
X599970Y315206D01*
X599544Y314849D01*
X599128Y314450D01*
Y322150D01*
X599544Y321751D01*
D02*
G37*
G36*
X548858Y314136D02*
X548692Y314305D01*
X548511Y314456D01*
X548315Y314589D01*
X548103Y314705D01*
X547876Y314803D01*
X547633Y314883D01*
X547376Y314945D01*
X547103Y314989D01*
X546814Y315016D01*
X546511Y315025D01*
X546645Y317525D01*
X546947Y317533D01*
X547237Y317557D01*
X547512Y317598D01*
X547774Y317654D01*
X548023Y317726D01*
X548258Y317815D01*
X548479Y317920D01*
X548687Y318041D01*
X548882Y318178D01*
X549062Y318331D01*
X548858Y314136D01*
D02*
G37*
G36*
X466085Y311317D02*
X465877Y311097D01*
X465691Y310875D01*
X465527Y310651D01*
X465385Y310425D01*
X465265Y310197D01*
X465168Y309967D01*
X465093Y309736D01*
X465039Y309502D01*
X465009Y309267D01*
X465000Y309030D01*
X462030Y312000D01*
X462267Y312008D01*
X462502Y312039D01*
X462736Y312092D01*
X462967Y312168D01*
X463197Y312265D01*
X463425Y312385D01*
X463651Y312527D01*
X463875Y312691D01*
X464097Y312877D01*
X464317Y313085D01*
X466085Y311317D01*
D02*
G37*
G36*
X532271Y297986D02*
X532421Y297884D01*
X532593Y297794D01*
X532786Y297716D01*
X533000Y297650D01*
X533237Y297596D01*
X533495Y297554D01*
X533774Y297524D01*
X534398Y297500D01*
Y294500D01*
X534075Y294494D01*
X533495Y294446D01*
X533237Y294404D01*
X533000Y294350D01*
X532786Y294284D01*
X532593Y294206D01*
X532421Y294116D01*
X532271Y294014D01*
X532142Y293900D01*
Y298100D01*
X532271Y297986D01*
D02*
G37*
G36*
X380081Y160821D02*
X380064Y160751D01*
X380049Y160646D01*
X380025Y160335D01*
X380001Y159306D01*
X380000Y158964D01*
X376000D01*
X375900Y160858D01*
X380100D01*
X380081Y160821D01*
D02*
G37*
G36*
X514986Y119402D02*
X515044Y119249D01*
X515122Y119086D01*
X515223Y118913D01*
X515344Y118729D01*
X515651Y118332D01*
X515837Y118119D01*
X516272Y117661D01*
X514636Y115055D01*
X514403Y115277D01*
X513957Y115641D01*
X513744Y115783D01*
X513537Y115897D01*
X513337Y115984D01*
X513144Y116044D01*
X512957Y116077D01*
X512777Y116083D01*
X512603Y116061D01*
X514950Y119544D01*
X514986Y119402D01*
D02*
G37*
G36*
X505299Y117995D02*
X505333Y117817D01*
X505391Y117632D01*
X505472Y117440D01*
X505577Y117242D01*
X505706Y117036D01*
X505859Y116824D01*
X506035Y116605D01*
X506459Y116147D01*
X504338Y114026D01*
X504106Y114250D01*
X503661Y114627D01*
X503449Y114779D01*
X503244Y114908D01*
X503045Y115013D01*
X502853Y115095D01*
X502668Y115153D01*
X502490Y115186D01*
X502319Y115197D01*
X505289Y118167D01*
X505299Y117995D01*
D02*
G37*
G36*
X658081Y112781D02*
X657974Y112918D01*
X657842Y113042D01*
X657687Y113151D01*
X657508Y113245D01*
X657305Y113325D01*
X657078Y113390D01*
X656827Y113441D01*
X656553Y113477D01*
X656255Y113499D01*
X655932Y113506D01*
X656618Y116506D01*
X656945Y116510D01*
X657792Y116569D01*
X658030Y116605D01*
X658438Y116700D01*
X658609Y116760D01*
X658758Y116828D01*
X658885Y116903D01*
X658081Y112781D01*
D02*
G37*
G36*
X495666Y116333D02*
X495643Y116172D01*
X495650Y116002D01*
X495689Y115823D01*
X495758Y115634D01*
X495858Y115437D01*
X495989Y115230D01*
X496151Y115014D01*
X496344Y114789D01*
X496567Y114554D01*
X494256Y112623D01*
X491809Y115024D01*
X495721Y116484D01*
X495666Y116333D01*
D02*
G37*
G36*
X620920Y106838D02*
X620790Y106947D01*
X620639Y107044D01*
X620466Y107131D01*
X620271Y107205D01*
X620056Y107268D01*
X619818Y107320D01*
X619560Y107360D01*
X618978Y107406D01*
X618655Y107412D01*
X618553Y110412D01*
X618875Y110418D01*
X619455Y110468D01*
X619712Y110512D01*
X619947Y110568D01*
X620161Y110637D01*
X620353Y110718D01*
X620522Y110811D01*
X620670Y110917D01*
X620797Y111036D01*
X620920Y106838D01*
D02*
G37*
G36*
X605729Y104117D02*
X605844Y103987D01*
X605986Y103873D01*
X606153Y103774D01*
X606347Y103690D01*
X606566Y103622D01*
X606811Y103569D01*
X607082Y103531D01*
X607379Y103508D01*
X607702Y103500D01*
X606544Y100500D01*
X606211Y100498D01*
X604930Y100414D01*
X604750Y100382D01*
X604595Y100346D01*
X604466Y100306D01*
X604363Y100260D01*
X605639Y104261D01*
X605729Y104117D01*
D02*
G37*
G36*
X773777Y99998D02*
X773646Y100093D01*
X773493Y100179D01*
X773319Y100254D01*
X773123Y100319D01*
X772906Y100374D01*
X772667Y100420D01*
X772407Y100455D01*
X771823Y100495D01*
X771499Y100500D01*
X771145Y103500D01*
X771467Y103507D01*
X772043Y103561D01*
X772298Y103608D01*
X772530Y103669D01*
X772739Y103743D01*
X772926Y103831D01*
X773091Y103933D01*
X773232Y104048D01*
X773352Y104176D01*
X773777Y99998D01*
D02*
G37*
G36*
X565622Y98417D02*
X565494Y98531D01*
X565344Y98633D01*
X565172Y98723D01*
X564979Y98801D01*
X564765Y98867D01*
X564528Y98921D01*
X564270Y98963D01*
X563991Y98993D01*
X563367Y99017D01*
Y102017D01*
X563689Y102023D01*
X564270Y102071D01*
X564528Y102113D01*
X564765Y102167D01*
X564979Y102233D01*
X565172Y102311D01*
X565344Y102401D01*
X565494Y102503D01*
X565622Y102617D01*
Y98417D01*
D02*
G37*
G36*
X590550Y98528D02*
X590686Y98408D01*
X590845Y98302D01*
X591028Y98210D01*
X591234Y98132D01*
X591463Y98069D01*
X591716Y98019D01*
X591991Y97984D01*
X592290Y97963D01*
X592612Y97956D01*
X592075Y94956D01*
X591749Y94951D01*
X590903Y94885D01*
X590665Y94845D01*
X590448Y94796D01*
X590253Y94738D01*
X590080Y94671D01*
X589928Y94595D01*
X589798Y94511D01*
X590437Y98662D01*
X590550Y98528D01*
D02*
G37*
G36*
X766563Y94250D02*
X766450Y94384D01*
X766314Y94504D01*
X766155Y94610D01*
X765972Y94702D01*
X765766Y94779D01*
X765537Y94843D01*
X765284Y94892D01*
X765009Y94928D01*
X764710Y94949D01*
X764388Y94956D01*
X764925Y97956D01*
X765251Y97960D01*
X766097Y98027D01*
X766335Y98067D01*
X766552Y98116D01*
X766747Y98174D01*
X766920Y98241D01*
X767072Y98317D01*
X767202Y98401D01*
X766563Y94250D01*
D02*
G37*
%LPC*%
G36*
X403400Y684194D02*
X384400D01*
X379808Y682292D01*
X377906Y677700D01*
X379808Y673108D01*
X384400Y671206D01*
X403400D01*
X407992Y673108D01*
X409894Y677700D01*
X407992Y682292D01*
X403400Y684194D01*
D02*
G37*
%LPD*%
G36*
X748238Y690572D02*
X748109Y690654D01*
X747958Y690726D01*
X747785Y690790D01*
X747591Y690846D01*
X747375Y690893D01*
X747136Y690932D01*
X746594Y690983D01*
X745964Y691000D01*
X745372Y694000D01*
X745694Y694007D01*
X746268Y694064D01*
X746519Y694114D01*
X746748Y694178D01*
X746953Y694257D01*
X747134Y694350D01*
X747292Y694457D01*
X747427Y694578D01*
X747538Y694714D01*
X748238Y690572D01*
D02*
G37*
G36*
X666891Y694346D02*
X667042Y694274D01*
X667215Y694210D01*
X667409Y694154D01*
X667625Y694107D01*
X667864Y694068D01*
X668406Y694017D01*
X669036Y694000D01*
X669628Y691000D01*
X669306Y690993D01*
X668732Y690936D01*
X668481Y690886D01*
X668252Y690822D01*
X668047Y690743D01*
X667866Y690650D01*
X667708Y690543D01*
X667573Y690422D01*
X667462Y690286D01*
X666762Y694428D01*
X666891Y694346D01*
D02*
G37*
G36*
X675217Y688046D02*
X675368Y687947D01*
X675541Y687861D01*
X675735Y687786D01*
X675951Y687722D01*
X676188Y687671D01*
X676447Y687630D01*
X677028Y687584D01*
X677351Y687578D01*
X677442Y684578D01*
X677119Y684572D01*
X676540Y684522D01*
X676282Y684479D01*
X676047Y684423D01*
X675833Y684354D01*
X675641Y684274D01*
X675471Y684180D01*
X675323Y684075D01*
X675197Y683957D01*
X675087Y688155D01*
X675217Y688046D01*
D02*
G37*
G36*
X747246Y683810D02*
X747166Y683956D01*
X747059Y684087D01*
X746925Y684202D01*
X746764Y684302D01*
X746576Y684386D01*
X746361Y684455D01*
X746119Y684509D01*
X745850Y684548D01*
X745553Y684571D01*
X745230Y684578D01*
X745400Y687578D01*
X748756Y687730D01*
X747246Y683810D01*
D02*
G37*
G36*
X701381Y239552D02*
X701279Y239402D01*
X701189Y239230D01*
X701111Y239037D01*
X701045Y238822D01*
X700991Y238586D01*
X700949Y238328D01*
X700919Y238048D01*
X700895Y237425D01*
X697895D01*
X697889Y237747D01*
X697841Y238328D01*
X697799Y238586D01*
X697745Y238822D01*
X697679Y239037D01*
X697601Y239230D01*
X697511Y239402D01*
X697409Y239552D01*
X697295Y239680D01*
X701495D01*
X701381Y239552D01*
D02*
G37*
G36*
X682397Y227061D02*
X682223Y227083D01*
X682043Y227077D01*
X681856Y227044D01*
X681663Y226984D01*
X681463Y226897D01*
X681256Y226783D01*
X681043Y226642D01*
X680824Y226473D01*
X680597Y226277D01*
X680364Y226055D01*
X678728Y228661D01*
X678956Y228895D01*
X679513Y229536D01*
X679656Y229729D01*
X679877Y230086D01*
X679956Y230249D01*
X680014Y230402D01*
X680050Y230544D01*
X682397Y227061D01*
D02*
G37*
G36*
X637907Y227997D02*
X638056Y227892D01*
X638227Y227800D01*
X638419Y227721D01*
X638633Y227653D01*
X638869Y227598D01*
X639127Y227555D01*
X639406Y227525D01*
X640030Y227500D01*
X639976Y224500D01*
X639653Y224494D01*
X639072Y224447D01*
X638814Y224406D01*
X638577Y224353D01*
X638361Y224289D01*
X638168Y224213D01*
X637995Y224125D01*
X637844Y224025D01*
X637715Y223913D01*
X637780Y228113D01*
X637907Y227997D01*
D02*
G37*
G36*
X625644Y222078D02*
X625778Y221957D01*
X625936Y221850D01*
X626118Y221757D01*
X626323Y221678D01*
X626551Y221614D01*
X626803Y221564D01*
X627078Y221528D01*
X627377Y221507D01*
X627699Y221500D01*
X627106Y218500D01*
X626780Y218496D01*
X625934Y218432D01*
X625696Y218393D01*
X625479Y218346D01*
X625285Y218290D01*
X625112Y218226D01*
X624962Y218154D01*
X624833Y218072D01*
X625533Y222214D01*
X625644Y222078D01*
D02*
G37*
G36*
X688157Y212509D02*
X688026Y212602D01*
X687873Y212686D01*
X687699Y212759D01*
X687503Y212823D01*
X687286Y212877D01*
X687048Y212921D01*
X686506Y212980D01*
X686203Y212995D01*
X685879Y213000D01*
X685488Y216000D01*
X685810Y216007D01*
X686386Y216061D01*
X686641Y216109D01*
X686872Y216171D01*
X687081Y216246D01*
X687267Y216334D01*
X687430Y216437D01*
X687571Y216553D01*
X687689Y216682D01*
X688157Y212509D01*
D02*
G37*
G36*
X611753Y216408D02*
X611906Y216322D01*
X612080Y216247D01*
X612276Y216181D01*
X612493Y216126D01*
X612732Y216081D01*
X612992Y216045D01*
X613576Y216005D01*
X613900Y216000D01*
X614249Y213000D01*
X613927Y212993D01*
X613351Y212939D01*
X613096Y212892D01*
X612864Y212831D01*
X612654Y212757D01*
X612467Y212669D01*
X612303Y212568D01*
X612161Y212453D01*
X612042Y212325D01*
X611622Y216504D01*
X611753Y216408D01*
D02*
G37*
G36*
X681968Y205068D02*
X681839Y205150D01*
X681688Y205223D01*
X681516Y205288D01*
X681321Y205344D01*
X681104Y205392D01*
X680866Y205431D01*
X680324Y205483D01*
X680020Y205496D01*
X679694Y205500D01*
X679116Y208500D01*
X679438Y208507D01*
X680012Y208564D01*
X680264Y208614D01*
X680493Y208678D01*
X680698Y208756D01*
X680880Y208849D01*
X681038Y208955D01*
X681173Y209076D01*
X681285Y209212D01*
X681968Y205068D01*
D02*
G37*
G36*
X599029Y208936D02*
X599182Y208844D01*
X599356Y208764D01*
X599551Y208694D01*
X599768Y208634D01*
X600006Y208586D01*
X600265Y208548D01*
X600848Y208505D01*
X601172Y208500D01*
X601404Y205500D01*
X601081Y205494D01*
X600503Y205441D01*
X600247Y205396D01*
X600014Y205337D01*
X599802Y205265D01*
X599613Y205180D01*
X599446Y205082D01*
X599301Y204972D01*
X599178Y204848D01*
X598898Y209038D01*
X599029Y208936D01*
D02*
G37*
G36*
X675030Y198273D02*
X674929Y198316D01*
X674803Y198355D01*
X674650Y198389D01*
X674472Y198418D01*
X674038Y198464D01*
X673501Y198491D01*
X672860Y198500D01*
X671663Y201500D01*
X671986Y201508D01*
X672283Y201530D01*
X672553Y201569D01*
X672798Y201622D01*
X673017Y201691D01*
X673209Y201775D01*
X673376Y201874D01*
X673516Y201988D01*
X673630Y202118D01*
X673719Y202263D01*
X675030Y198273D01*
D02*
G37*
G36*
X587271Y201986D02*
X587421Y201884D01*
X587592Y201794D01*
X587786Y201716D01*
X588000Y201650D01*
X588237Y201596D01*
X588495Y201554D01*
X588774Y201524D01*
X589398Y201500D01*
Y198500D01*
X589075Y198494D01*
X588495Y198446D01*
X588237Y198404D01*
X588000Y198350D01*
X587786Y198284D01*
X587592Y198206D01*
X587421Y198116D01*
X587271Y198014D01*
X587142Y197900D01*
Y202100D01*
X587271Y201986D01*
D02*
G37*
G36*
X582858Y197900D02*
X582729Y198014D01*
X582579Y198116D01*
X582407Y198206D01*
X582214Y198284D01*
X582000Y198350D01*
X581763Y198404D01*
X581505Y198446D01*
X580925Y198494D01*
X580602Y198500D01*
Y201500D01*
X581226Y201524D01*
X581505Y201554D01*
X581763Y201596D01*
X582000Y201650D01*
X582214Y201716D01*
X582407Y201794D01*
X582579Y201884D01*
X582729Y201986D01*
X582858Y202100D01*
Y197900D01*
D02*
G37*
G36*
X553271Y201986D02*
X553421Y201884D01*
X553592Y201794D01*
X553786Y201716D01*
X554000Y201650D01*
X554237Y201596D01*
X554495Y201554D01*
X554774Y201524D01*
X555398Y201500D01*
Y198500D01*
X555075Y198494D01*
X554495Y198446D01*
X554237Y198404D01*
X554000Y198350D01*
X553786Y198284D01*
X553592Y198206D01*
X553421Y198116D01*
X553271Y198014D01*
X553142Y197900D01*
Y202100D01*
X553271Y201986D01*
D02*
G37*
G36*
X666697Y191502D02*
X666567Y191588D01*
X666415Y191663D01*
X666242Y191731D01*
X666047Y191789D01*
X665830Y191838D01*
X665592Y191878D01*
X665049Y191932D01*
X664746Y191945D01*
X664420Y191950D01*
X663890Y194950D01*
X664212Y194957D01*
X664787Y195014D01*
X665039Y195063D01*
X665268Y195126D01*
X665474Y195204D01*
X665657Y195295D01*
X665817Y195401D01*
X665954Y195521D01*
X666067Y195655D01*
X666697Y191502D01*
D02*
G37*
G36*
X573933Y195313D02*
X574085Y195236D01*
X574258Y195169D01*
X574453Y195111D01*
X574670Y195062D01*
X574908Y195022D01*
X575451Y194968D01*
X575754Y194954D01*
X576080Y194950D01*
X576610Y191950D01*
X576288Y191943D01*
X575714Y191887D01*
X575461Y191837D01*
X575232Y191774D01*
X575025Y191696D01*
X574843Y191605D01*
X574683Y191499D01*
X574547Y191379D01*
X574433Y191245D01*
X573803Y195398D01*
X573933Y195313D01*
D02*
G37*
G36*
X485179Y192081D02*
X485249Y192064D01*
X485354Y192049D01*
X485665Y192025D01*
X486694Y192001D01*
X487036Y192000D01*
Y188000D01*
X485142Y187900D01*
Y192100D01*
X485179Y192081D01*
D02*
G37*
G36*
X557127Y188463D02*
X558152Y187568D01*
X558251Y187510D01*
X558330Y187478D01*
X558388Y187472D01*
X555821Y184147D01*
X554553Y185377D01*
X556884Y188703D01*
X557127Y188463D01*
D02*
G37*
G36*
X561794Y184145D02*
X561824Y184018D01*
X561879Y183876D01*
X561960Y183721D01*
X562067Y183552D01*
X562198Y183368D01*
X562539Y182959D01*
X562982Y182493D01*
X560290Y180235D01*
X560049Y180472D01*
X559250Y181175D01*
X559091Y181290D01*
X558948Y181380D01*
X558822Y181446D01*
X558712Y181488D01*
X558618Y181506D01*
X561790Y184258D01*
X561794Y184145D01*
D02*
G37*
G36*
X549012Y177931D02*
X549050Y177869D01*
X549113Y177784D01*
X549316Y177547D01*
X550027Y176803D01*
X550268Y176560D01*
X547440Y173732D01*
X546030Y175000D01*
X549000Y177970D01*
X549012Y177931D01*
D02*
G37*
G36*
X692458Y173200D02*
X692375Y173267D01*
X692264Y173326D01*
X692125Y173379D01*
X691958Y173424D01*
X691762Y173463D01*
X691539Y173494D01*
X691008Y173536D01*
X690363Y173550D01*
Y177050D01*
X690699Y177054D01*
X691762Y177138D01*
X691958Y177176D01*
X692125Y177222D01*
X692264Y177274D01*
X692375Y177334D01*
X692458Y177400D01*
Y173200D01*
D02*
G37*
G36*
X687985Y163650D02*
X687948Y163669D01*
X687878Y163686D01*
X687773Y163701D01*
X687462Y163725D01*
X686433Y163749D01*
X686091Y163750D01*
Y167750D01*
X687985Y167850D01*
Y163650D01*
D02*
G37*
G36*
X391081Y236821D02*
X391064Y236751D01*
X391049Y236646D01*
X391025Y236335D01*
X391001Y235306D01*
X391000Y234964D01*
X387000D01*
X386900Y236858D01*
X391100D01*
X391081Y236821D01*
D02*
G37*
G36*
X391100Y208142D02*
X386900D01*
X386919Y208179D01*
X386936Y208249D01*
X386951Y208354D01*
X386975Y208665D01*
X386999Y209694D01*
X387000Y210036D01*
X391000D01*
X391100Y208142D01*
D02*
G37*
G36*
X414081Y157821D02*
X414064Y157751D01*
X414049Y157646D01*
X414025Y157335D01*
X414001Y156306D01*
X414000Y155964D01*
X410000D01*
X409900Y157858D01*
X414100D01*
X414081Y157821D01*
D02*
G37*
G36*
X414100Y98142D02*
X409900D01*
X409919Y98179D01*
X409936Y98250D01*
X409951Y98354D01*
X409975Y98665D01*
X409999Y99694D01*
X410000Y100036D01*
X414000D01*
X414100Y98142D01*
D02*
G37*
D12*
X810000Y770000D02*
G03*
X790000Y790000I-20000J0D01*
G01*
Y10000D02*
G03*
X810000Y29959I0J20000D01*
G01*
X30000Y790000D02*
G03*
X10000Y770000I0J-20000D01*
G01*
Y30000D02*
G03*
X30000Y10000I20000J0D01*
G01*
X810000Y770000D02*
Y770000D01*
Y716077D02*
Y770000D01*
Y698997D02*
Y716077D01*
X810000Y690457D02*
X810000Y698997D01*
X810000Y647757D02*
Y690457D01*
Y639217D02*
Y647757D01*
Y613597D02*
Y639217D01*
Y587977D02*
Y613597D01*
Y562357D02*
Y587977D01*
Y553817D02*
Y562357D01*
X772649Y790000D02*
X790000D01*
X729949D02*
X772649D01*
X704329D02*
X729949D01*
X644549D02*
X704329D01*
X810000Y545277D02*
X810000Y553817D01*
X810000Y417178D02*
Y445000D01*
Y400098D02*
Y417178D01*
Y528197D02*
Y545277D01*
Y511117D02*
Y528197D01*
Y468418D02*
Y511117D01*
Y445000D02*
Y468418D01*
X810000Y365938D02*
Y391558D01*
X810000Y400098D01*
X618929Y790000D02*
X644549D01*
X601849D02*
X618929D01*
X542069D02*
X601849D01*
X516449D02*
X542069D01*
X810000Y340318D02*
Y365938D01*
Y306158D02*
Y340318D01*
Y280538D02*
Y306158D01*
Y254918D02*
Y280538D01*
X810000Y246378D02*
X810000Y254918D01*
X810000Y195138D02*
Y212218D01*
Y152438D02*
Y195138D01*
Y237838D02*
Y246378D01*
Y212218D02*
Y237838D01*
Y135358D02*
Y152438D01*
Y109738D02*
Y135358D01*
X810000Y101198D02*
X810000Y109738D01*
X810000Y58498D02*
Y75578D01*
Y32878D02*
Y58498D01*
Y30000D02*
Y32878D01*
Y75578D02*
Y101198D01*
X755763Y10000D02*
X789923D01*
X721603D02*
X755763D01*
X789923D02*
X790000D01*
X678903D02*
X721603D01*
X661823D02*
X678903D01*
X627663D02*
X661823D01*
X610583D02*
X627663D01*
X490829Y790000D02*
X516449D01*
X465209D02*
X490829D01*
X439589D02*
X465209D01*
X405429D02*
X439589D01*
X371269D02*
X405429D01*
X320029D02*
X371269D01*
X311489D02*
X320029D01*
X268789D02*
X311489D01*
X209009D02*
X268789D01*
X183389D02*
X209009D01*
X157769D02*
X183389D01*
X132149D02*
X157769D01*
X106530D02*
X132149D01*
X72370D02*
X106530D01*
X55290D02*
X72370D01*
X30000D02*
X55290D01*
X10000Y758327D02*
Y770000D01*
Y741247D02*
Y758327D01*
Y715628D02*
Y741247D01*
Y698548D02*
Y715628D01*
X10000Y690008D02*
X10000Y698548D01*
X10000Y655848D02*
Y690008D01*
Y630228D02*
Y655848D01*
Y587528D02*
Y630228D01*
Y553368D02*
Y587528D01*
X10000Y510668D02*
Y544828D01*
X10000Y553368D01*
X10000Y493588D02*
Y510668D01*
Y467968D02*
Y493588D01*
Y442348D02*
Y467968D01*
Y408188D02*
Y442348D01*
X10000Y399648D02*
X10000Y408188D01*
X10000Y365488D02*
Y399648D01*
X584963Y10000D02*
X610583D01*
X550803D02*
X584963D01*
X516643D02*
X550803D01*
X491023D02*
X516643D01*
X465403D02*
X491023D01*
X431244D02*
X465403D01*
X405624D02*
X431244D01*
X397084D02*
X405624D01*
X354384D02*
X397084D01*
X345844D02*
X354384D01*
X294604D02*
X345844D01*
X268984D02*
X294604D01*
X234824D02*
X268984D01*
X209204D02*
X234824D01*
X192124D02*
X209204D01*
X166504D02*
X192124D01*
X140884D02*
X166504D01*
X123804D02*
X140884D01*
X98184D02*
X123804D01*
X81104D02*
X98184D01*
X10000Y339868D02*
Y365488D01*
Y305708D02*
Y339868D01*
Y271548D02*
Y305708D01*
Y254468D02*
Y271548D01*
X10000Y220308D02*
Y245928D01*
Y177608D02*
Y220308D01*
Y169068D02*
Y177608D01*
Y134908D02*
Y169068D01*
Y126368D02*
Y134908D01*
Y109288D02*
Y126368D01*
Y245928D02*
X10000Y254468D01*
X55484Y10000D02*
X81104D01*
X46944D02*
X55484D01*
X30000D02*
X46944D01*
X10000Y100748D02*
X10000Y109288D01*
X10000Y92208D02*
Y100748D01*
Y58049D02*
Y92208D01*
Y30050D02*
Y58049D01*
D13*
X595200Y318300D02*
D03*
X641200Y696300D02*
D03*
Y586300D02*
D03*
Y366300D02*
D03*
X595200Y648300D02*
D03*
X641200Y476300D02*
D03*
X595200Y538300D02*
D03*
Y428300D02*
D03*
D18*
X438446Y337554D02*
X500914D01*
X483000Y190000D02*
X552759D01*
X558259Y184500D01*
X558800D01*
X375920Y497840D02*
X501228D01*
X501340Y497728D01*
X546000Y178000D02*
X558250Y165750D01*
X690127D01*
X556855Y460500D02*
X719277D01*
X556840Y460515D02*
X556855Y460500D01*
X507000Y61000D02*
X520500Y47500D01*
X378000Y93000D02*
X410000Y61000D01*
X507000D01*
X378000Y93000D02*
Y163000D01*
X655162Y453324D02*
X684043Y424443D01*
X538521Y451317D02*
X543015Y446824D01*
X653176D02*
X684000Y416000D01*
X543015Y446824D02*
X653176D01*
X564847Y453324D02*
X655162D01*
X719277Y460500D02*
X743243Y436534D01*
X684000Y416000D02*
X753572D01*
X684043Y424443D02*
X763313D01*
X753572Y416000D02*
X779420Y390152D01*
X327180Y652300D02*
X378004Y703123D01*
X500829D01*
X300600Y652300D02*
X327180D01*
X490926Y554614D02*
X500840D01*
X489840Y555700D02*
X490926Y554614D01*
X375786Y555700D02*
X489840D01*
X411000Y365000D02*
X438446Y337554D01*
X483385Y327300D02*
X487139Y331054D01*
X393900Y327300D02*
X483385D01*
X441726Y346000D02*
X514000D01*
X487139Y331054D02*
X487680D01*
X414726Y373000D02*
X441726Y346000D01*
X520500Y47500D02*
X740500D01*
X786056Y93056D01*
Y382228D01*
X540000Y576000D02*
X574229Y610229D01*
X655092D01*
X265000Y576000D02*
X540000D01*
X538521Y465201D02*
X549620Y476300D01*
X538521Y451317D02*
Y465201D01*
X347800Y365000D02*
X411000D01*
X289845Y373000D02*
X414726D01*
X194744Y381434D02*
X418566D01*
X444000Y356000D02*
X527000D01*
X418566Y381434D02*
X444000Y356000D01*
X310100Y327300D02*
X347800Y365000D01*
X244145Y327300D02*
X289845Y373000D01*
X140610Y327300D02*
X194744Y381434D01*
X437300Y431700D02*
X463088Y405912D01*
X505948D01*
X278030Y431700D02*
X437300D01*
X201186Y437700D02*
X493210D01*
X527050Y403860D01*
X342386Y522300D02*
X375786Y555700D01*
X419000Y640000D02*
X449000Y670000D01*
X190420Y640000D02*
X419000D01*
X137720Y587300D02*
X190420Y640000D01*
X424147Y631000D02*
X455179Y662032D01*
X275309Y631000D02*
X424147D01*
X231609Y587300D02*
X275309Y631000D01*
X325680Y587300D02*
X360380Y622000D01*
X429000D01*
X460782Y653782D01*
X501056D01*
X470500Y645500D02*
X488006D01*
X412300Y587300D02*
X470500Y645500D01*
X393900Y587300D02*
X412300D01*
X455179Y662032D02*
X514175D01*
X449000Y670000D02*
X527000D01*
X131300Y652300D02*
X195097Y716097D01*
X526876D01*
X114000Y652300D02*
X131300D01*
X418522D02*
X462722Y696500D01*
X393900Y652300D02*
X418522D01*
X572000Y512000D02*
X691000D01*
X505000Y445000D02*
X572000Y512000D01*
X202946Y510286D02*
X526986D01*
X289598Y504228D02*
X504422D01*
X487530Y491490D02*
X487680Y491340D01*
X443230Y491490D02*
X487530D01*
X254000Y445000D02*
X505000D01*
X463187Y522300D02*
X487654Y546767D01*
X393900Y522300D02*
X463187D01*
X512179Y563000D02*
X513575Y561604D01*
X279790Y563000D02*
X512179D01*
X300600Y522300D02*
X342386D01*
X513575Y561604D02*
X514117D01*
X180380Y569000D02*
X527000D01*
X133680Y522300D02*
X180380Y569000D01*
X239090Y522300D02*
X279790Y563000D01*
X454478Y395522D02*
X501213D01*
X424300Y425700D02*
X454478Y395522D01*
X514029Y397554D02*
Y397831D01*
X505948Y405912D02*
X514029Y397831D01*
X462722Y696500D02*
X488178D01*
X249086Y652300D02*
X306410Y709623D01*
X513463Y709130D02*
X514004D01*
X207300Y652300D02*
X249086D01*
X306410Y709623D02*
X512970D01*
X505069Y503582D02*
X513610D01*
X504422Y504228D02*
X505069Y503582D01*
X513610D02*
X513993Y503199D01*
X242670Y457300D02*
X289598Y504228D01*
X149960Y457300D02*
X202946Y510286D01*
X335380Y457300D02*
X375920Y497840D01*
X350770Y425700D02*
X424300D01*
X655092Y610229D02*
X689322Y644458D01*
X207300Y327300D02*
X244145D01*
X389000Y206000D02*
Y239000D01*
X412000Y96000D02*
Y160000D01*
X549620Y476300D02*
X641200D01*
X155786Y392300D02*
X201186Y437700D01*
X430214Y392300D02*
X436395Y386119D01*
X487680D01*
X393900Y392300D02*
X430214D01*
X114000D02*
X155786D01*
X238630D02*
X278030Y431700D01*
X317370Y392300D02*
X350770Y425700D01*
X300600Y392300D02*
X317370D01*
X512970Y709623D02*
X513463Y709130D01*
X207300Y457300D02*
X242670D01*
X409291Y457551D02*
X443230Y491490D01*
X393900Y457300D02*
X394151Y457551D01*
X409291D01*
X300600Y327300D02*
X310100D01*
X114000D02*
X140610D01*
X207300Y392300D02*
X238630D01*
X300600Y457300D02*
X335380D01*
X114000D02*
X149960D01*
X114000Y522300D02*
X133680D01*
X207300D02*
X239090D01*
X207300Y587300D02*
X231609D01*
X300600D02*
X325680D01*
X114000D02*
X137720D01*
D19*
X558800Y184200D02*
X567700Y175300D01*
X558800Y184200D02*
Y184500D01*
X595200Y428300D02*
X656311D01*
X678241Y406371D01*
X632300Y318300D02*
X676576Y362576D01*
X595200Y318300D02*
X632300D01*
X567700Y175300D02*
X694600D01*
X715256Y454000D02*
X736103Y433152D01*
X669000Y454000D02*
X715256D01*
X569000Y394000D02*
X650526D01*
X779225Y368826D02*
X779521Y368530D01*
X675047Y368826D02*
X779225D01*
X672522Y366300D02*
X675047Y368826D01*
X676576Y362576D02*
X766443D01*
X641200Y366300D02*
X672522D01*
X650526Y394000D02*
X667526Y377000D01*
X740806D01*
X678241Y406371D02*
X743144D01*
X753469Y375106D02*
X753500Y375076D01*
X753469Y375106D02*
Y396045D01*
X743144Y406371D02*
X753469Y396045D01*
D20*
X596900Y206800D02*
X597100Y207000D01*
X683252D01*
X609700Y214200D02*
X610000Y214500D01*
X689718D01*
X572450Y193450D02*
X668050D01*
X572000Y193000D02*
X572450Y193450D01*
X668050D02*
X668500Y193900D01*
X551000Y200000D02*
X674661D01*
X675598Y200937D01*
X676410D01*
X683252Y207000D02*
X683740Y207488D01*
X699395Y235295D02*
Y241823D01*
X684100Y220000D02*
X699395Y235295D01*
X623570Y220000D02*
X684100D01*
X459000Y621000D02*
X475084Y637084D01*
X541388D01*
X512000Y119000D02*
X512812D01*
X516806Y115006D01*
X660012D01*
X660586Y114432D01*
X665000Y692000D02*
X665500Y692500D01*
X749500D01*
X750000Y693000D01*
X511573Y108912D02*
X622912D01*
X502289Y118196D02*
X511573Y108912D01*
X545840Y623704D02*
X629967D01*
X524691Y479691D02*
X539604Y494604D01*
X539840D01*
X602960Y102912D02*
X603772D01*
X775392Y102000D02*
X775696Y102304D01*
X603772Y102912D02*
X604683Y102000D01*
X775392D01*
X588000Y96912D02*
X588456Y96456D01*
X768544D02*
X769000Y96000D01*
X588456Y96456D02*
X768544D01*
X583383Y741383D02*
X739047D01*
X553000Y711000D02*
X583383Y741383D01*
X766035Y650879D02*
X778717Y638197D01*
X629967Y623704D02*
X657141Y650879D01*
X766035D01*
X646929Y406000D02*
X667929Y385000D01*
X726777D01*
X545000Y406000D02*
X646929D01*
X530000Y296000D02*
X676926D01*
X702451Y321525D02*
Y350106D01*
X676926Y296000D02*
X702451Y321525D01*
X778717Y638197D02*
Y638197D01*
X635652Y226000D02*
X678188D01*
X682188Y230000D02*
X683000D01*
X678188Y226000D02*
X682188Y230000D01*
X622912Y108912D02*
X623000Y109000D01*
X543069Y414898D02*
X645102D01*
X668000Y392000D01*
X714000D01*
X635605Y226046D02*
X635652Y226000D01*
X476691Y479691D02*
X524691D01*
X462000Y465000D02*
X476691Y479691D01*
X493012Y115988D02*
Y117773D01*
Y115988D02*
X508483Y100517D01*
X567765D01*
X623070Y220500D02*
X623570Y220000D01*
X689718Y214500D02*
X690052Y214834D01*
X748110Y686078D02*
X749188Y685000D01*
X750000D01*
X673078Y686078D02*
X748110D01*
X673000Y686000D02*
X673078Y686078D01*
D21*
X550954Y316275D02*
X551100Y316129D01*
X469275Y316275D02*
X550954D01*
X462000Y309000D02*
X469275Y316275D01*
D22*
X217000Y53000D02*
X300000D01*
X147000Y123000D02*
X217000Y53000D01*
X147000Y123000D02*
Y195000D01*
D23*
X673500Y156350D02*
D03*
Y143650D02*
D03*
X610000D02*
D03*
X622700D02*
D03*
X635400D02*
D03*
X648100D02*
D03*
X660800D02*
D03*
X622700Y156350D02*
D03*
X610000D02*
D03*
X597300D02*
D03*
X584600D02*
D03*
X559200D02*
D03*
X571900D02*
D03*
X546500D02*
D03*
Y143650D02*
D03*
X559200D02*
D03*
X571900D02*
D03*
X584600D02*
D03*
X597300D02*
D03*
X660800Y156350D02*
D03*
X648100D02*
D03*
X635400D02*
D03*
D24*
X75230Y260130D02*
D03*
Y299130D02*
D03*
X62230D02*
D03*
X75230Y286130D02*
D03*
X62230D02*
D03*
Y260130D02*
D03*
X75230Y273130D02*
D03*
X62230D02*
D03*
D25*
X790000Y770000D02*
D03*
Y445000D02*
D03*
X455360Y770000D02*
D03*
X790000Y30000D02*
D03*
X30000Y770000D02*
D03*
Y445000D02*
D03*
X430000Y30000D02*
D03*
X30000D02*
D03*
D26*
X207300Y352700D02*
D03*
Y327300D02*
D03*
X189300Y340000D02*
D03*
X114000Y677700D02*
D03*
Y652300D02*
D03*
X96000Y665000D02*
D03*
X393900Y677700D02*
D03*
Y652300D02*
D03*
X375900Y665000D02*
D03*
X282600D02*
D03*
X300600Y652300D02*
D03*
Y677700D02*
D03*
X207300D02*
D03*
Y652300D02*
D03*
X189300Y665000D02*
D03*
X393900Y612700D02*
D03*
Y587300D02*
D03*
X375900Y600000D02*
D03*
X96000D02*
D03*
X114000Y587300D02*
D03*
Y612700D02*
D03*
X300600D02*
D03*
Y587300D02*
D03*
X282600Y600000D02*
D03*
X189300D02*
D03*
X207300Y587300D02*
D03*
Y612700D02*
D03*
X393900Y547700D02*
D03*
Y522300D02*
D03*
X375900Y535000D02*
D03*
X282600D02*
D03*
X300600Y522300D02*
D03*
Y547700D02*
D03*
X207300D02*
D03*
Y522300D02*
D03*
X189300Y535000D02*
D03*
X96000D02*
D03*
X114000Y522300D02*
D03*
Y547700D02*
D03*
X393900Y482700D02*
D03*
Y457300D02*
D03*
X375900Y470000D02*
D03*
X96000D02*
D03*
X114000Y457300D02*
D03*
Y482700D02*
D03*
X300600D02*
D03*
Y457300D02*
D03*
X282600Y470000D02*
D03*
X189300D02*
D03*
X207300Y457300D02*
D03*
Y482700D02*
D03*
X393900Y417700D02*
D03*
Y392300D02*
D03*
X375900Y405000D02*
D03*
X282600D02*
D03*
X300600Y392300D02*
D03*
Y417700D02*
D03*
X207300D02*
D03*
Y392300D02*
D03*
X189300Y405000D02*
D03*
X96000D02*
D03*
X114000Y392300D02*
D03*
Y417700D02*
D03*
X393900Y352700D02*
D03*
Y327300D02*
D03*
X375900Y340000D02*
D03*
X96000D02*
D03*
X114000Y327300D02*
D03*
Y352700D02*
D03*
X300600D02*
D03*
Y327300D02*
D03*
X282600Y340000D02*
D03*
D27*
X585200Y328300D02*
D03*
X605200D02*
D03*
X651200Y706300D02*
D03*
X631200D02*
D03*
X651200Y596300D02*
D03*
X631200D02*
D03*
Y376300D02*
D03*
X651200D02*
D03*
X605200Y658300D02*
D03*
X585200D02*
D03*
X651200Y486300D02*
D03*
X631200D02*
D03*
X605200Y548300D02*
D03*
X585200D02*
D03*
X605200Y438300D02*
D03*
X585200D02*
D03*
D28*
X500914Y337554D02*
D03*
X558800Y184500D02*
D03*
X596900Y206800D02*
D03*
X609700Y214200D02*
D03*
X668500Y193900D02*
D03*
X676410Y200937D02*
D03*
X683740Y207488D02*
D03*
X501340Y497728D02*
D03*
X694600Y175300D02*
D03*
X690127Y165750D02*
D03*
X556840Y460515D02*
D03*
X422900Y74600D02*
D03*
X422700Y178100D02*
D03*
X450700Y250600D02*
D03*
X449700Y83900D02*
D03*
Y146600D02*
D03*
X449600Y189500D02*
D03*
X491000Y52500D02*
D03*
X479183D02*
D03*
X467000D02*
D03*
X475000Y156000D02*
D03*
X483000Y190000D02*
D03*
X224000Y248000D02*
D03*
Y269000D02*
D03*
Y258000D02*
D03*
X672772Y79000D02*
D03*
X680529Y67948D02*
D03*
X362000Y265000D02*
D03*
X362779Y164827D02*
D03*
X369000Y182000D02*
D03*
X360000Y54000D02*
D03*
X439500Y691000D02*
D03*
X362494Y67128D02*
D03*
X484736Y224188D02*
D03*
X768170Y307081D02*
D03*
X768000Y300000D02*
D03*
X439000Y398000D02*
D03*
X438140Y548000D02*
D03*
X705000Y433000D02*
D03*
X459000Y621000D02*
D03*
X27000Y227000D02*
D03*
X564847Y453324D02*
D03*
X669000Y454000D02*
D03*
X736103Y433152D02*
D03*
X512000Y119000D02*
D03*
X500840Y554614D02*
D03*
X665000Y692000D02*
D03*
X545840Y623704D02*
D03*
X576000Y490000D02*
D03*
X539840Y494604D02*
D03*
X569000Y394000D02*
D03*
X551100Y316129D02*
D03*
X487680Y331054D02*
D03*
X488538Y304756D02*
D03*
X551000Y200000D02*
D03*
X691116Y350850D02*
D03*
X312000Y44000D02*
D03*
X745216Y510006D02*
D03*
X775696Y102304D02*
D03*
X769000Y96000D02*
D03*
X743243Y436534D02*
D03*
X763313Y424443D02*
D03*
X779420Y390152D02*
D03*
X779521Y368530D02*
D03*
X786056Y382228D02*
D03*
X696000Y731000D02*
D03*
X695854Y656879D02*
D03*
X766443Y362576D02*
D03*
X740806Y377000D02*
D03*
X753500Y375076D02*
D03*
X689000Y329000D02*
D03*
X660676Y324075D02*
D03*
X448000Y364000D02*
D03*
X451753Y430107D02*
D03*
X514175Y662032D02*
D03*
X501056Y653782D02*
D03*
X527000Y670000D02*
D03*
X29815Y790049D02*
D03*
X21494Y788126D02*
D03*
X14728Y782916D02*
D03*
X10720Y775374D02*
D03*
X9969Y766868D02*
D03*
Y758327D02*
D03*
Y749788D02*
D03*
Y741247D02*
D03*
Y732708D02*
D03*
Y724167D02*
D03*
Y715628D02*
D03*
Y707088D02*
D03*
Y698548D02*
D03*
Y690008D02*
D03*
Y681468D02*
D03*
Y672928D02*
D03*
Y664388D02*
D03*
Y655848D02*
D03*
Y647308D02*
D03*
Y638768D02*
D03*
Y630228D02*
D03*
X9969Y621688D02*
D03*
Y613148D02*
D03*
Y604608D02*
D03*
Y596068D02*
D03*
Y587528D02*
D03*
Y578988D02*
D03*
Y570448D02*
D03*
Y561908D02*
D03*
Y553368D02*
D03*
Y544828D02*
D03*
Y536288D02*
D03*
Y527748D02*
D03*
Y519208D02*
D03*
Y510668D02*
D03*
Y502128D02*
D03*
Y493588D02*
D03*
Y485048D02*
D03*
Y476508D02*
D03*
X9969Y467968D02*
D03*
Y459428D02*
D03*
Y450888D02*
D03*
Y442348D02*
D03*
Y433808D02*
D03*
Y425268D02*
D03*
Y416728D02*
D03*
Y408188D02*
D03*
Y399648D02*
D03*
Y391108D02*
D03*
Y382568D02*
D03*
Y374028D02*
D03*
Y365488D02*
D03*
Y356948D02*
D03*
Y348408D02*
D03*
Y339868D02*
D03*
Y331328D02*
D03*
X9969Y322788D02*
D03*
Y314248D02*
D03*
Y305708D02*
D03*
Y297168D02*
D03*
Y288628D02*
D03*
Y280088D02*
D03*
Y271548D02*
D03*
Y263008D02*
D03*
Y254468D02*
D03*
Y245928D02*
D03*
Y237388D02*
D03*
Y228848D02*
D03*
Y220308D02*
D03*
Y211768D02*
D03*
Y203228D02*
D03*
Y194688D02*
D03*
Y186148D02*
D03*
X9969Y177608D02*
D03*
Y169068D02*
D03*
Y160528D02*
D03*
Y151988D02*
D03*
Y143448D02*
D03*
Y134908D02*
D03*
Y126368D02*
D03*
Y117828D02*
D03*
Y109288D02*
D03*
Y100748D02*
D03*
Y92208D02*
D03*
Y83668D02*
D03*
Y75128D02*
D03*
Y66589D02*
D03*
Y58049D02*
D03*
Y49509D02*
D03*
Y40968D02*
D03*
Y32429D02*
D03*
X10886Y23938D02*
D03*
X14081Y16018D02*
D03*
X21538Y11856D02*
D03*
X29864Y9956D02*
D03*
X38404Y9970D02*
D03*
X46944D02*
D03*
X55484D02*
D03*
X64024D02*
D03*
X72564D02*
D03*
X81104D02*
D03*
X89644D02*
D03*
X98184D02*
D03*
X106724D02*
D03*
X115264D02*
D03*
X123804D02*
D03*
X132344D02*
D03*
X140884D02*
D03*
X149424D02*
D03*
X157964D02*
D03*
X166504D02*
D03*
X175044D02*
D03*
X183584D02*
D03*
X192124D02*
D03*
X200664D02*
D03*
X209204D02*
D03*
X217744D02*
D03*
X226284D02*
D03*
X234824D02*
D03*
X243364D02*
D03*
X251904D02*
D03*
X260444D02*
D03*
X268984D02*
D03*
X277524D02*
D03*
X286064D02*
D03*
X294604D02*
D03*
X303144D02*
D03*
X311684D02*
D03*
X320224D02*
D03*
X328764D02*
D03*
X337304D02*
D03*
X345844D02*
D03*
X354384D02*
D03*
X362924D02*
D03*
X371464D02*
D03*
X380004D02*
D03*
X388544D02*
D03*
X397084D02*
D03*
X405624D02*
D03*
X414164D02*
D03*
X422704D02*
D03*
X431244D02*
D03*
X439783D02*
D03*
X448323D02*
D03*
X456863D02*
D03*
X465403D02*
D03*
X473943D02*
D03*
X482483D02*
D03*
X491023D02*
D03*
X499563D02*
D03*
X508103D02*
D03*
X516643D02*
D03*
X525183D02*
D03*
X533723D02*
D03*
X542263D02*
D03*
X550803D02*
D03*
X559343D02*
D03*
X567883D02*
D03*
X576423D02*
D03*
X584963D02*
D03*
X593503D02*
D03*
X602043D02*
D03*
X610583D02*
D03*
X619123D02*
D03*
X627663D02*
D03*
X636203D02*
D03*
X644743D02*
D03*
X653283D02*
D03*
X661823D02*
D03*
X670363D02*
D03*
X678903D02*
D03*
X687443D02*
D03*
X695983D02*
D03*
X704523D02*
D03*
X713063D02*
D03*
X721603D02*
D03*
X730143D02*
D03*
X738683D02*
D03*
X747223D02*
D03*
X755763D02*
D03*
X764303D02*
D03*
X772843D02*
D03*
X781383D02*
D03*
X789923D02*
D03*
X798270Y11776D02*
D03*
X805108Y16892D02*
D03*
X809220Y24377D02*
D03*
X810030Y32878D02*
D03*
Y41418D02*
D03*
Y49958D02*
D03*
Y58498D02*
D03*
Y67038D02*
D03*
Y75578D02*
D03*
Y84118D02*
D03*
Y92658D02*
D03*
Y101198D02*
D03*
Y109738D02*
D03*
Y118278D02*
D03*
Y126818D02*
D03*
Y135358D02*
D03*
Y143898D02*
D03*
Y152438D02*
D03*
Y160978D02*
D03*
Y169518D02*
D03*
X810030Y178058D02*
D03*
Y186598D02*
D03*
Y195138D02*
D03*
Y203678D02*
D03*
Y212218D02*
D03*
Y220758D02*
D03*
Y229298D02*
D03*
Y237838D02*
D03*
Y246378D02*
D03*
Y254918D02*
D03*
Y263458D02*
D03*
Y271998D02*
D03*
Y280538D02*
D03*
Y289078D02*
D03*
Y297618D02*
D03*
Y306158D02*
D03*
Y314698D02*
D03*
Y323238D02*
D03*
X810030Y331778D02*
D03*
Y340318D02*
D03*
Y348858D02*
D03*
Y357398D02*
D03*
Y365938D02*
D03*
Y374478D02*
D03*
Y383018D02*
D03*
Y391558D02*
D03*
Y400098D02*
D03*
Y408638D02*
D03*
Y417178D02*
D03*
Y425718D02*
D03*
Y434258D02*
D03*
Y442798D02*
D03*
Y451338D02*
D03*
Y459878D02*
D03*
Y468418D02*
D03*
X810030Y476957D02*
D03*
Y485497D02*
D03*
Y494037D02*
D03*
Y502577D02*
D03*
Y511117D02*
D03*
Y519657D02*
D03*
Y528197D02*
D03*
Y536737D02*
D03*
Y545277D02*
D03*
Y553817D02*
D03*
Y562357D02*
D03*
Y570897D02*
D03*
Y579437D02*
D03*
Y587977D02*
D03*
Y596517D02*
D03*
Y605057D02*
D03*
Y613597D02*
D03*
X810030Y622137D02*
D03*
Y630677D02*
D03*
Y639217D02*
D03*
Y647757D02*
D03*
Y656297D02*
D03*
Y664837D02*
D03*
Y673377D02*
D03*
Y681917D02*
D03*
Y690457D02*
D03*
Y698997D02*
D03*
Y707537D02*
D03*
Y716077D02*
D03*
Y724617D02*
D03*
Y733157D02*
D03*
Y741697D02*
D03*
Y750237D02*
D03*
Y758777D02*
D03*
Y767317D02*
D03*
X809174Y775814D02*
D03*
X804983Y783255D02*
D03*
X798091Y788298D02*
D03*
X789729Y790030D02*
D03*
X781189D02*
D03*
X772649D02*
D03*
X764109D02*
D03*
X755569D02*
D03*
X747029D02*
D03*
X738489D02*
D03*
X729949D02*
D03*
X721409D02*
D03*
X712869D02*
D03*
X704329D02*
D03*
X695789D02*
D03*
X687249D02*
D03*
X678709D02*
D03*
X670169D02*
D03*
X661629D02*
D03*
X653089D02*
D03*
X644549D02*
D03*
X636009D02*
D03*
X627469D02*
D03*
X618929D02*
D03*
X610389D02*
D03*
X601849D02*
D03*
X593309D02*
D03*
X584769D02*
D03*
X576229D02*
D03*
X567689D02*
D03*
X559149D02*
D03*
X550609D02*
D03*
X542069D02*
D03*
X533529D02*
D03*
X524989D02*
D03*
X516449D02*
D03*
X507909D02*
D03*
X499369D02*
D03*
X490829D02*
D03*
X482289D02*
D03*
X473749D02*
D03*
X465209D02*
D03*
X456669D02*
D03*
X448129D02*
D03*
X439589D02*
D03*
X431049D02*
D03*
X422509D02*
D03*
X413969D02*
D03*
X405429D02*
D03*
X396889D02*
D03*
X388349D02*
D03*
X379809D02*
D03*
X371269D02*
D03*
X362729D02*
D03*
X354189D02*
D03*
X345649D02*
D03*
X337109D02*
D03*
X328569D02*
D03*
X320029D02*
D03*
X311489D02*
D03*
X302949D02*
D03*
X294409D02*
D03*
X285869D02*
D03*
X277329D02*
D03*
X268789D02*
D03*
X260249D02*
D03*
X251709D02*
D03*
X243169D02*
D03*
X234629D02*
D03*
X226089D02*
D03*
X217549D02*
D03*
X209009D02*
D03*
X200469D02*
D03*
X191929D02*
D03*
X183389D02*
D03*
X174849D02*
D03*
X166309D02*
D03*
X157769D02*
D03*
X149229D02*
D03*
X140689D02*
D03*
X132149D02*
D03*
X123610D02*
D03*
X115070D02*
D03*
X106530D02*
D03*
X97990D02*
D03*
X89450D02*
D03*
X80910D02*
D03*
X72370D02*
D03*
X63830D02*
D03*
X55290D02*
D03*
X46750D02*
D03*
X38210D02*
D03*
X778717Y638197D02*
D03*
X691000Y512000D02*
D03*
X696000Y524000D02*
D03*
X689322Y644458D02*
D03*
X684213Y185285D02*
D03*
X691843Y288654D02*
D03*
X612493Y121381D02*
D03*
X577130Y99790D02*
D03*
X698771Y20226D02*
D03*
X769841Y287925D02*
D03*
X503000Y32000D02*
D03*
X751698Y325456D02*
D03*
X759000Y148000D02*
D03*
X99000Y34000D02*
D03*
X461506Y585320D02*
D03*
X466000Y724000D02*
D03*
X481578Y363276D02*
D03*
X642000Y122000D02*
D03*
X540475Y122256D02*
D03*
X694251Y150682D02*
D03*
X699395Y241823D02*
D03*
X714475Y226700D02*
D03*
X683000Y230000D02*
D03*
X693000Y254000D02*
D03*
X660586Y114432D02*
D03*
X623000Y109000D02*
D03*
X602960Y102912D02*
D03*
X660000Y54000D02*
D03*
X249906Y43250D02*
D03*
X218000Y77000D02*
D03*
X234000Y62000D02*
D03*
X195000Y90000D02*
D03*
X207000Y129000D02*
D03*
Y148000D02*
D03*
X228000Y221000D02*
D03*
Y203000D02*
D03*
X189018Y180442D02*
D03*
X228000Y212000D02*
D03*
X128975Y226699D02*
D03*
X110647Y212421D02*
D03*
X59000Y64000D02*
D03*
Y83000D02*
D03*
Y105000D02*
D03*
X108323Y284943D02*
D03*
X121000Y297000D02*
D03*
X148000Y311000D02*
D03*
X174000D02*
D03*
X199000D02*
D03*
X576000Y683000D02*
D03*
X575000Y572000D02*
D03*
X571000Y382000D02*
D03*
X660818Y409692D02*
D03*
X635605Y226046D02*
D03*
X726777Y385000D02*
D03*
X714000Y392000D02*
D03*
X541388Y637084D02*
D03*
X543069Y414898D02*
D03*
X545000Y406000D02*
D03*
X527050Y403860D02*
D03*
X481471Y464455D02*
D03*
X487680Y491340D02*
D03*
X481566Y621033D02*
D03*
X468565Y412411D02*
D03*
X487654Y546767D02*
D03*
X527000Y569000D02*
D03*
X265000Y576000D02*
D03*
X530000Y296000D02*
D03*
X493012Y117773D02*
D03*
X567765Y100517D02*
D03*
X702451Y350106D02*
D03*
X623070Y220500D02*
D03*
X690052Y214834D02*
D03*
X501213Y395522D02*
D03*
X514029Y397554D02*
D03*
X488006Y645500D02*
D03*
X514117Y561604D02*
D03*
X500829Y703123D02*
D03*
X488178Y696500D02*
D03*
X514004Y709130D02*
D03*
X526876Y716097D02*
D03*
X513993Y503199D02*
D03*
X526986Y510286D02*
D03*
X750000Y685000D02*
D03*
Y693000D02*
D03*
X740529Y391773D02*
D03*
X337000Y78000D02*
D03*
X300000Y53000D02*
D03*
X673000Y686000D02*
D03*
X378000Y163000D02*
D03*
X502289Y118196D02*
D03*
X514000Y346000D02*
D03*
X527000Y356000D02*
D03*
X412194Y613800D02*
D03*
X144000Y690000D02*
D03*
X143000Y626000D02*
D03*
Y562000D02*
D03*
Y496000D02*
D03*
Y431000D02*
D03*
Y365000D02*
D03*
X236200Y364226D02*
D03*
X236000Y429000D02*
D03*
Y495000D02*
D03*
X235702Y559766D02*
D03*
X237000Y625000D02*
D03*
Y690000D02*
D03*
X329592Y689113D02*
D03*
X320000Y616000D02*
D03*
X320424Y551456D02*
D03*
X320510Y486096D02*
D03*
X319000Y421000D02*
D03*
X320000Y356000D02*
D03*
X412690Y413590D02*
D03*
X414000Y486000D02*
D03*
X412000Y549000D02*
D03*
X411074Y681557D02*
D03*
X660681Y634394D02*
D03*
X660775Y544365D02*
D03*
X389000Y239000D02*
D03*
X147000Y204667D02*
D03*
Y195000D02*
D03*
Y214333D02*
D03*
Y224000D02*
D03*
X689000Y606000D02*
D03*
Y615000D02*
D03*
Y543000D02*
D03*
Y561000D02*
D03*
X481476Y520744D02*
D03*
X481634Y677807D02*
D03*
X462000Y465000D02*
D03*
Y309000D02*
D03*
X692625Y481153D02*
D03*
X705000Y586000D02*
D03*
X585000Y200000D02*
D03*
X572000Y193000D02*
D03*
X696120Y702907D02*
D03*
X720000Y571000D02*
D03*
X688000Y722000D02*
D03*
X689000Y676000D02*
D03*
X553000Y711000D02*
D03*
X739047Y741383D02*
D03*
X753410Y587531D02*
D03*
X780000Y509000D02*
D03*
X487680Y386119D02*
D03*
X307000Y256000D02*
D03*
X753000Y641000D02*
D03*
X740000Y336000D02*
D03*
X336000Y181000D02*
D03*
X313000Y237000D02*
D03*
X307502Y154679D02*
D03*
X314000Y136000D02*
D03*
X281000Y150000D02*
D03*
X280000Y252000D02*
D03*
X254000Y445000D02*
D03*
X546000Y178000D02*
D03*
X450850Y588010D02*
D03*
Y283250D02*
D03*
X588000Y96912D02*
D03*
X412000Y96000D02*
D03*
Y160000D02*
D03*
X389000Y206000D02*
D03*
M02*
