M48
;Layer_Color=9474304
;FILE_FORMAT=4:2
METRIC,TZ
;TYPE=PLATED
T01F00S00C0.20
T02F00S00C0.30
T03F00S00C0.50
T05F00S00C0.70
T06F00S00C3.20
%
T01
X622Y2601
X752
Y2731
Y2861
Y2991
X622
Y2861
Y2731
T02
X141Y160
X109Y239
X100Y324
Y410
Y495
Y580
Y666
Y751
Y837
Y922
Y1007
Y1093
Y1178
Y1264
Y1349
Y1434
Y1520
Y1605
Y1691
Y1776
X100Y1861
Y1947
Y2032
Y2118
Y2203
Y2288
Y2374
Y2459
Y2545
Y2630
Y2715
Y2801
Y2886
Y2972
Y3057
Y3142
Y3228
X100Y3313
Y3399
Y3484
Y3569
Y3655
Y3740
Y3826
Y3911
X1430Y3650
X1480Y3110
X1740
X1990
X2240Y2690
Y2580
Y2480
X2280Y2210
Y2120
Y2030
X1890Y1804
X2070Y1480
Y1290
X1950Y900
X2180Y770
X2340Y620
X2499Y433
X2519Y100
X2434
X2348
X2263
X2177
X2092
X2007
X1921
X1836
X1750
X1665
X1580
X1494
X1409
X1323
X1238
X1153
X1067
X982
X896
X811
X726
X640
X555
X469
X384
X299Y100
X215Y119
X590Y640
Y830
Y1050
X990Y340
X2604Y100
X2690
X2775
X2861
X2946
X3031
X3117
X3202
X3288
X3373
X3458
X3544
X3629
X3715
X3800
X3885
X3600Y540
X3625Y671
X3370Y780
X3120Y440
X3000Y530
X3140Y1360
X3075Y1547
X2810Y1500
X3360Y1810
X3690Y1820
X3628Y1648
X3780Y1630
X3890Y2060
Y2390
X3620Y2650
X3070Y2560
X3130Y2370
X2800Y2520
X3200Y3560
X2362Y3642
X1210Y2970
X1083Y2849
X1106Y2124
X1290Y2267
X1470Y2240
Y2143
Y2047
Y1950
X270Y2270
X4227Y1781
X4120Y1600
X4497Y1466
X4750Y1560
X4830Y1900
X4496Y1895
X4507Y2506
X4508Y2833
X4620Y3090
X4885Y3048
X4877Y3311
X5009Y3376
X5140Y3460
X5270Y3560
X4816Y3633
X4877Y3861
X5012Y3955
X5690Y3940
X5710Y3820
X5511Y3161
X5300Y2960
X5510Y2000
X5588Y1845
X5460Y1780
X5720Y1930
X5850Y2000
X5969Y2068
X6097Y2142
X6231Y2205
X6356Y2260
X6830Y2300
X6901Y2148
X6837Y2075
X6764Y2009
X6685Y1939
X6842Y1853
X6946Y1753
X6901Y1658
X6943Y1507
X7590Y1480
X7690Y960
X7757Y1023
X7728Y100
X7643
X7558
X7472
X7387
X7301
X7216
X7131
X7045
X6960
X6874
X6789
X6704
X6618
X6533
X6447
X6362
X6277
X6191
X6106
X6020
X5935
X5850
X5764
X5679
X5593
X5508
X5423
X5337
X5252
X5166
X5081
X4996
X4910
X4825
X4739
X4654
X4569
X4483
X4398
X4312
X4227
X4142
X4056
X3971
X4229Y746
X4120Y960
X4497Y839
X4670Y525
X4792
X4910
X5030Y320
X5023Y1182
X4930Y1178
X5120Y1190
X5405Y1223
X5678Y1005
X5771Y998
X5880Y969
X6030Y1029
X6230Y1090
X6125Y1214
X6420Y1220
X6606Y1144
X6728Y790
X6805Y679
X6600Y540
X6988Y202
X7814Y100
X7899
X7145Y2267
X6994Y2418
X6930Y2540
X6918Y2887
X6890Y3290
X6911Y3508
X7025Y3501
X7400Y3360
X7517Y3255
X7682Y3071
X7680Y3000
X7698Y2879
X7664Y3626
X7795Y3685
X7861Y3822
X7794Y3902
X7405Y3918
X7408Y3770
X7535Y3751
X7268Y3850
X7140Y3920
X6607Y3241
X4480Y3640
X4847Y2242
X8100Y2208
Y2122
Y2037
Y1951
Y1866
Y1781
X8100Y1695
Y1610
Y1524
Y1439
Y1354
Y1268
Y1183
Y1097
Y1012
Y927
Y841
Y756
Y670
Y585
Y500
Y414
Y329
X8092Y244
X8051Y169
X7983Y118
X8100Y2293
Y2378
Y2464
Y2549
Y2635
Y2720
Y2805
Y2891
Y2976
Y3062
Y3147
Y3232
X8100Y3318
Y3403
Y3489
Y3574
Y3659
Y3745
Y3830
Y3916
Y4001
Y4086
Y4172
Y4257
Y4343
Y4428
Y4513
Y4599
Y4684
X8100Y4770
Y4855
Y4940
Y5026
Y5111
Y5197
Y5282
Y5367
Y5453
Y5538
Y5624
Y5709
Y5794
Y5880
Y5965
Y6051
Y6136
X8100Y6221
Y6307
Y6392
Y6478
Y6563
Y6648
Y6734
Y6819
Y6905
Y6990
Y7075
Y7161
Y7246
Y7332
Y7417
Y7502
Y7588
Y7673
X8092Y7758
X8050Y7833
X7981Y7883
X7897Y7900
X7812
X7726
X7641
X7556
X7470
X7385
X7299
X7214
X7129
X7043
X6958
X6872
X6787
X6702
X6616
X6531
X6445
X6360
X6275
X6189
X6104
X6018
X5933
X5848
X5762
X5677
X5591
X5506
X5421
X5335
X5250
X5164
X5079
X4994
X4908
X4823
X4737
X4652
X4567
X4481
X4396
X4310
X4225
X4140
X4054
X3969
X4111Y6816
X4395Y6910
X4882Y6965
X5008Y7031
X5140Y7091
X5269Y7161
X5530Y7110
X5760Y6830
X5270Y6700
X5142Y6620
X5011Y6538
X4880Y6455
X4816Y6210
X4590Y6210
X4615Y5853
X4508Y5880
X4381Y5480
X4120Y5490
X4122Y6138
X4140Y4860
X4620Y4650
X4815Y4645
X4877Y4913
X5013Y4977
X5140Y5032
X5270Y5103
X5398Y4946
X5760Y4900
X5648Y4533
X5568Y4605
X5431Y4149
X5450Y4060
X5271Y4039
X5140Y3976
X4686Y4124
X4518Y4301
X4390Y3980
X4127Y4136
X4815Y5207
X4877Y5468
X5008Y5546
X5141Y5616
X5270Y5690
X5750Y5720
X5458Y6237
X5414Y6371
X4816Y6778
X4660Y7240
X6880Y7220
X6960Y7310
X6961Y7029
X6890Y6760
X6959Y6569
X6893Y6445
X6890Y6150
Y6060
X7050Y5860
X7200Y5710
X6890Y5610
Y5430
X6960Y5240
X6910Y5120
X6926Y4812
X6690Y4540
X6608Y4097
X7050Y4330
X7361Y4332
X7432Y4365
X7633Y4244
X7800Y5090
X7452Y5100
X7534Y5875
X7530Y6410
X7787Y6382
X7500Y6850
Y6930
X7390Y7414
X6730Y6860
X6650Y6920
X6607Y6344
X6608Y5444
X3204Y5515
X3200Y6160
X3296Y6891
X2370Y6900
Y6250
X2357Y5598
X2650Y5760
X2360Y4950
Y4290
X2540Y4450
X3190Y4210
X3205Y4861
X1430Y4960
Y4310
Y5620
Y6260
X1440Y6900
X1407Y7900
X1492
X1578
X1663
X1748
X1834
X1919
X2005
X2090
X2175
X2261
X2346
X2432
X2517
X2602
X2688
X2773
X2859
X2944
X3029
X3115
X3200
X3286
X3371
X3456
X3542
X3627
X3713
X3798
X3883
X1321
X1236
X1151
X1065
X980
X894
X809
X724
X638
X553
X467
X382
X298Y7900
X215Y7881
X147Y7829
X107Y7754
X100Y7669
Y7583
Y7498
Y7412
Y7327
Y7242
Y7156
Y7071
Y6985
Y6900
Y6815
Y6729
Y6644
Y6558
Y6473
Y6388
Y6302
X100Y6217
Y6131
Y6046
Y5961
Y5875
Y5790
Y5704
Y5619
Y5534
Y5448
Y5363
Y5277
Y5192
Y5107
Y5021
Y4936
Y4850
Y4765
X100Y4680
Y4594
Y4509
Y4423
Y4338
Y4253
Y4167
Y4082
Y3996
T03
X5852Y3283
X6052
X6312Y3763
X6512
X6052Y4383
X5852
X6312Y4863
X6512
X6052Y5483
X5852
X6312Y5963
X6512
X6052Y6583
X5852
X6312Y7063
X6512
T05
X5465Y1436
Y1564
X5592
X5719
X5846
X5973
X6100
Y1436
X6227
X6354
X6481
X6608
X6735
Y1564
X6608
X6481
X6354
X6227
X5973Y1436
X5846
X5719
X5592
X5952Y3183
X6412Y3663
X5952Y4283
X6412Y4763
X5952Y5383
X6412Y5863
X5952Y6483
X6412Y6963
T06
X300Y300
X4300
X7900
Y4450
Y7700
X4554
X300
Y4450
M30
