M48
;Layer_Color=9474304
;FILE_FORMAT=4:2
METRIC,TZ
;TYPE=PLATED
T04F00S00C0.50
%
G90
G05
T04
X870Y3400G85X1050
X1050Y3273G85X1230
X1050Y3527G85X1230
X1050Y3923G85X1230
X1983Y3923G85X2163
X1983Y3527G85X2163
X1983Y3273G85X2163
X1803Y3400G85X1983
X2736Y3400G85X2916
X2916Y3527G85X3096
X2916Y3273G85X3096
X2916Y3923G85X3096
X3849Y3923G85X4029
X3849Y3527G85X4029
X3849Y3273G85X4029
X3669Y3400G85X3849
X3669Y4050G85X3849
X3849Y4177G85X4029
X3849Y4573G85X4029
X3849Y4827G85X4029
X3669Y4700G85X3849
X3669Y5350G85X3849
X3849Y5477G85X4029
X3849Y5223G85X4029
X3849Y5873G85X4029
X3849Y6127G85X4029
X3669Y6000G85X3849
X3669Y6650G85X3849
X3849Y6777G85X4029
X3849Y6523G85X4029
X2916Y6523G85X3096
X2916Y6777G85X3096
X2736Y6650G85X2916
X2736Y6000G85X2916
X2916Y6127G85X3096
X2916Y5873G85X3096
X2916Y5477G85X3096
X2916Y5223G85X3096
X2736Y5350G85X2916
X2736Y4700G85X2916
X2916Y4827G85X3096
X2916Y4573G85X3096
X2916Y4177G85X3096
X2736Y4050G85X2916
X1983Y4177G85X2163
X1803Y4050G85X1983
X1803Y4700G85X1983
X1983Y4573G85X2163
X1983Y4827G85X2163
X1983Y5223G85X2163
X1983Y5477G85X2163
X1803Y5350G85X1983
X1803Y6000G85X1983
X1983Y5873G85X2163
X1983Y6127G85X2163
X1983Y6523G85X2163
X1983Y6777G85X2163
X1803Y6650G85X1983
X1050Y6777G85X1230
X1050Y6523G85X1230
X870Y6650G85X1050
X870Y6000G85X1050
X1050Y5873G85X1230
X1050Y6127G85X1230
X1050Y5477G85X1230
X1050Y5223G85X1230
X870Y5350G85X1050
X870Y4700G85X1050
X1050Y4573G85X1230
X1050Y4827G85X1230
X1050Y4177G85X1230
X870Y4050G85X1050
M30
